<svg version="1.1" viewBox="0.0 0.0 960.0 540.0" fill="none" stroke="none" stroke-linecap="square" stroke-miterlimit="10" xmlns:xlink="http://www.w3.org/1999/xlink" xmlns="http://www.w3.org/2000/svg"><clipPath id="p.0"><path d="m0 0l960.0 0l0 540.0l-960.0 0l0 -540.0z" clip-rule="nonzero"/></clipPath><g clip-path="url(#p.0)"><path fill="#cccccc" d="m0 0l960.0 0l0 540.0l-960.0 0z" fill-rule="evenodd"/><path fill="#595959" d="m203.25984 172.96588l0 0c0 -33.276245 26.975723 -60.25197 60.25197 -60.25197l432.97635 0c15.979858 0 31.305176 6.347954 42.604614 17.647385c11.299438 11.299438 17.6474 26.624771 17.6474 42.604584l0 241.00787c0 33.276245 -26.975769 60.251953 -60.252014 60.251953l-432.97635 0c-33.276245 0 -60.25197 -26.975708 -60.25197 -60.251953z" fill-rule="evenodd"/><path stroke="#434343" stroke-width="1.0" stroke-linejoin="round" stroke-linecap="butt" d="m203.25984 172.96588l0 0c0 -33.276245 26.975723 -60.25197 60.25197 -60.25197l432.97635 0c15.979858 0 31.305176 6.347954 42.604614 17.647385c11.299438 11.299438 17.6474 26.624771 17.6474 42.604584l0 241.00787c0 33.276245 -26.975769 60.251953 -60.252014 60.251953l-432.97635 0c-33.276245 0 -60.25197 -26.975708 -60.25197 -60.251953z" fill-rule="evenodd"/><path fill="#eeeeee" d="m329.55905 135.22047l0 0c0 -5.580826 4.52417 -10.104988 10.10498 -10.104988l280.6719 0c2.6800537 0 5.250244 1.0646286 7.1453247 2.9596786c1.8950806 1.89505 2.9596558 4.4653015 2.9596558 7.1453094l0 40.419952c0 5.580826 -4.524109 10.10498 -10.10498 10.10498l-280.6719 0l0 0c-5.5808105 0 -10.10498 -4.5241547 -10.10498 -10.10498z" fill-rule="evenodd"/><path stroke="#595959" stroke-width="1.0" stroke-linejoin="round" stroke-linecap="butt" d="m329.55905 135.22047l0 0c0 -5.580826 4.52417 -10.104988 10.10498 -10.104988l280.6719 0c2.6800537 0 5.250244 1.0646286 7.1453247 2.9596786c1.8950806 1.89505 2.9596558 4.4653015 2.9596558 7.1453094l0 40.419952c0 5.580826 -4.524109 10.10498 -10.10498 10.10498l-280.6719 0l0 0c-5.5808105 0 -10.10498 -4.5241547 -10.10498 -10.10498z" fill-rule="evenodd"/><path fill="#000000" d="m364.81625 150.70982l0 5.078125l0.359375 0q0.8125 0 1.328125 -0.25q0.53125 -0.25 0.890625 -0.828125q0.359375 -0.578125 0.46875 -1.578125l0.3125 0l0 6.203125l-0.3125 0q-0.171875 -1.75 -0.953125 -2.3125q-0.765625 -0.5625 -1.734375 -0.5625l-0.359375 0l0 3.78125q0 0.9375 0.109375 1.1875q0.109375 0.234375 0.40625 0.40625q0.3125 0.171875 0.828125 0.171875l0.40625 0l0 0.34375l-6.453125 0l0 -0.34375l0.40625 0q0.53125 0 0.859375 -0.1875q0.25 -0.125 0.375 -0.4375q0.09375 -0.21875 0.09375 -1.140625l0 -8.125q0 -0.953125 -0.109375 -1.1875q-0.09375 -0.234375 -0.40625 -0.40625q-0.296875 -0.1875 -0.8125 -0.1875l-0.40625 0l0 -0.34375l10.421875 0l0 3.546875l-0.375 0q-0.125 -1.25 -0.65625 -1.84375q-0.515625 -0.609375 -1.515625 -0.84375q-0.546875 -0.140625 -2.015625 -0.140625l-1.15625 0zm13.099121 11.296875l0 0.34375l-6.453125 0l0 -0.34375l0.40625 0q0.546875 0 0.875 -0.1875q0.234375 -0.125 0.359375 -0.4375q0.09375 -0.21875 0.09375 -1.140625l0 -8.125q0 -0.953125 -0.109375 -1.1875q-0.09375 -0.234375 -0.40625 -0.40625q-0.296875 -0.1875 -0.8125 -0.1875l-0.40625 0l0 -0.34375l6.453125 0l0 0.34375l-0.40625 0q-0.53125 0 -0.859375 0.1875q-0.25 0.125 -0.375 0.4375q-0.109375 0.21875 -0.109375 1.15625l0 8.125q0 0.9375 0.109375 1.1875q0.109375 0.234375 0.40625 0.40625q0.3125 0.171875 0.828125 0.171875l0.40625 0zm13.713379 -12.015625l0 0.34375q-0.671875 0.109375 -1.203125 0.71875q-0.375 0.453125 -1.140625 2.140625l-4.25 9.4375l-0.296875 0l-4.234375 -9.8125q-0.765625 -1.78125 -1.03125 -2.09375q-0.265625 -0.3125 -0.984375 -0.390625l0 -0.34375l5.921875 0l0 0.34375l-0.203125 0q-0.796875 0 -1.09375 0.203125q-0.203125 0.140625 -0.203125 0.390625q0 0.171875 0.0625 0.40625q0.078125 0.21875 0.5 1.1875l2.640625 6.140625l2.4375 -5.46875q0.4375 -0.984375 0.53125 -1.328125q0.109375 -0.34375 0.109375 -0.578125q0 -0.265625 -0.15625 -0.46875q-0.140625 -0.21875 -0.421875 -0.328125q-0.390625 -0.15625 -1.03125 -0.15625l0 -0.34375l4.046875 0zm5.2698364 0.71875l0 5.03125l0.25 0q1.171875 0 1.703125 -0.734375q0.53125 -0.75 0.671875 -2.1875l0.34375 0l0 6.46875l-0.34375 0q-0.109375 -1.0625 -0.46875 -1.734375q-0.34375 -0.671875 -0.8125 -0.90625q-0.453125 -0.234375 -1.34375 -0.234375l0 3.484375q0 1.015625 0.078125 1.25q0.09375 0.234375 0.328125 0.375q0.25 0.140625 0.78125 0.140625l0.734375 0q1.734375 0 2.765625 -0.796875q1.046875 -0.796875 1.5 -2.4375l0.34375 0l-0.5625 3.921875l-10.671875 0l0 -0.34375l0.40625 0q0.546875 0 0.875 -0.1875q0.234375 -0.125 0.359375 -0.4375q0.09375 -0.21875 0.09375 -1.140625l0 -8.125q0 -0.84375 -0.046875 -1.03125q-0.078125 -0.328125 -0.328125 -0.5q-0.34375 -0.25 -0.953125 -0.25l-0.40625 0l0 -0.34375l10.34375 0l0 3.65625l-0.359375 0q-0.25 -1.328125 -0.734375 -1.90625q-0.484375 -0.59375 -1.359375 -0.875q-0.5 -0.15625 -1.90625 -0.15625l-1.28125 0zm13.131073 8.296875l-5.3125 0l0 -1.890625l5.3125 0l0 1.890625zm5.478302 -2.25l0 3.421875q0 1.0 0.125 1.265625q0.125 0.265625 0.4375 0.421875q0.3125 0.140625 1.15625 0.140625l0 0.34375l-6.28125 0l0 -0.34375q0.859375 0 1.15625 -0.15625q0.3125 -0.15625 0.4375 -0.40625q0.125 -0.265625 0.125 -1.265625l0 -8.015625q0 -1.0 -0.125 -1.25q-0.125 -0.265625 -0.4375 -0.421875q-0.296875 -0.15625 -1.15625 -0.15625l0 -0.34375l5.390625 0q2.65625 0 3.8125 0.953125q1.15625 0.953125 1.15625 2.375q0 1.203125 -0.75 2.0625q-0.734375 0.84375 -2.046875 1.15625q-0.890625 0.21875 -3.0 0.21875zm0 -6.046875l0 5.34375q0.3125 0.015625 0.46875 0.015625q1.109375 0 1.703125 -0.65625q0.609375 -0.671875 0.609375 -2.046875q0 -1.375 -0.609375 -2.015625q-0.59375 -0.640625 -1.796875 -0.640625l-0.375 0zm12.744934 8.125l-4.375 0l-0.515625 1.203125q-0.25 0.59375 -0.25 0.984375q0 0.53125 0.421875 0.765625q0.234375 0.15625 1.203125 0.21875l0 0.34375l-4.109375 0l0 -0.34375q0.671875 -0.09375 1.09375 -0.546875q0.4375 -0.453125 1.0625 -1.859375l4.421875 -9.859375l0.171875 0l4.453125 10.125q0.640625 1.453125 1.046875 1.8125q0.3125 0.296875 0.875 0.328125l0 0.34375l-5.984375 0l0 -0.34375l0.25 0q0.71875 0 1.015625 -0.1875q0.203125 -0.15625 0.203125 -0.421875q0 -0.171875 -0.0625 -0.34375q-0.015625 -0.078125 -0.265625 -0.6875l-0.65625 -1.53125zm-0.3125 -0.671875l-1.84375 -4.25l-1.890625 4.25l3.734375 0zm10.972931 -1.4375l0 3.453125q0 1.0 0.125 1.265625q0.125 0.265625 0.4375 0.421875q0.3125 0.140625 1.15625 0.140625l0 0.34375l-6.328125 0l0 -0.34375q0.859375 0 1.15625 -0.15625q0.3125 -0.15625 0.4375 -0.40625q0.125 -0.265625 0.125 -1.265625l0 -8.015625q0 -1.0 -0.125 -1.25q-0.125 -0.265625 -0.4375 -0.421875q-0.3125 -0.15625 -1.15625 -0.15625l0 -0.34375l5.734375 0q2.25 0 3.28125 0.3125q1.046875 0.3125 1.703125 1.15625q0.65625 0.828125 0.65625 1.9375q0 1.375 -0.984375 2.265625q-0.625 0.5625 -1.765625 0.84375l2.96875 4.1875q0.59375 0.8125 0.828125 1.015625q0.375 0.28125 0.875 0.296875l0 0.34375l-3.890625 0l-3.984375 -5.625l-0.8125 0zm0 -6.0625l0 5.40625l0.515625 0q1.265625 0 1.890625 -0.21875q0.640625 -0.234375 1.0 -0.84375q0.359375 -0.609375 0.359375 -1.578125q0 -1.421875 -0.671875 -2.09375q-0.65625 -0.671875 -2.109375 -0.671875l-0.984375 0zm16.285461 8.171875l-4.375 0l-0.515625 1.203125q-0.25 0.59375 -0.25 0.984375q0 0.53125 0.421875 0.765625q0.234375 0.15625 1.203125 0.21875l0 0.34375l-4.109375 0l0 -0.34375q0.671875 -0.09375 1.09375 -0.546875q0.4375 -0.453125 1.0625 -1.859375l4.421875 -9.859375l0.171875 0l4.453125 10.125q0.640625 1.453125 1.046875 1.8125q0.3125 0.296875 0.875 0.328125l0 0.34375l-5.984375 0l0 -0.34375l0.25 0q0.71875 0 1.015625 -0.1875q0.203125 -0.15625 0.203125 -0.421875q0 -0.171875 -0.0625 -0.34375q-0.015625 -0.078125 -0.265625 -0.6875l-0.65625 -1.53125zm-0.3125 -0.671875l-1.84375 -4.25l-1.890625 4.25l3.734375 0zm18.894806 -8.453125l0 4.359375l-0.34375 0q-0.609375 -1.78125 -1.828125 -2.703125q-1.21875 -0.9375 -2.671875 -0.9375q-1.375 0 -2.296875 0.78125q-0.921875 0.78125 -1.3125 2.171875q-0.375 1.390625 -0.375 2.859375q0 1.765625 0.40625 3.109375q0.421875 1.34375 1.359375 1.96875q0.9375 0.625 2.21875 0.625q0.453125 0 0.921875 -0.09375q0.46875 -0.09375 0.953125 -0.28125l0 -2.5625q0 -0.734375 -0.109375 -0.9375q-0.09375 -0.21875 -0.40625 -0.390625q-0.3125 -0.171875 -0.75 -0.171875l-0.328125 0l0 -0.34375l6.0 0l0 0.34375q-0.671875 0.046875 -0.953125 0.1875q-0.265625 0.140625 -0.40625 0.46875q-0.078125 0.171875 -0.078125 0.84375l0 2.5625q-1.1875 0.53125 -2.46875 0.796875q-1.28125 0.28125 -2.65625 0.28125q-1.75 0 -2.921875 -0.484375q-1.15625 -0.484375 -2.046875 -1.25q-0.890625 -0.78125 -1.390625 -1.765625q-0.640625 -1.25 -0.640625 -2.8125q0 -2.78125 1.953125 -4.703125q1.96875 -1.921875 4.9375 -1.921875q0.921875 0 1.65625 0.140625q0.40625 0.078125 1.296875 0.421875q0.90625 0.34375 1.0625 0.34375q0.265625 0 0.484375 -0.1875q0.21875 -0.1875 0.390625 -0.71875l0.34375 0zm6.589569 7.015625l0 3.453125q0 1.0 0.125 1.265625q0.125 0.265625 0.4375 0.421875q0.3125 0.140625 1.15625 0.140625l0 0.34375l-6.328125 0l0 -0.34375q0.859375 0 1.15625 -0.15625q0.3125 -0.15625 0.4375 -0.40625q0.125 -0.265625 0.125 -1.265625l0 -8.015625q0 -1.0 -0.125 -1.25q-0.125 -0.265625 -0.4375 -0.421875q-0.3125 -0.15625 -1.15625 -0.15625l0 -0.34375l5.734375 0q2.25 0 3.28125 0.3125q1.046875 0.3125 1.703125 1.15625q0.65625 0.828125 0.65625 1.9375q0 1.375 -0.984375 2.265625q-0.625 0.5625 -1.765625 0.84375l2.96875 4.1875q0.59375 0.8125 0.828125 1.015625q0.375 0.28125 0.875 0.296875l0 0.34375l-3.890625 0l-3.984375 -5.625l-0.8125 0zm0 -6.0625l0 5.40625l0.515625 0q1.265625 0 1.890625 -0.21875q0.640625 -0.234375 1.0 -0.84375q0.359375 -0.609375 0.359375 -1.578125q0 -1.421875 -0.671875 -2.09375q-0.65625 -0.671875 -2.109375 -0.671875l-0.984375 0zm16.28543 8.171875l-4.375 0l-0.515625 1.203125q-0.25 0.59375 -0.25 0.984375q0 0.53125 0.421875 0.765625q0.234375 0.15625 1.203125 0.21875l0 0.34375l-4.109375 0l0 -0.34375q0.671875 -0.09375 1.09375 -0.546875q0.4375 -0.453125 1.0625 -1.859375l4.421875 -9.859375l0.171875 0l4.453125 10.125q0.640625 1.453125 1.046875 1.8125q0.3125 0.296875 0.875 0.328125l0 0.34375l-5.984375 0l0 -0.34375l0.25 0q0.71875 0 1.015625 -0.1875q0.203125 -0.15625 0.203125 -0.421875q0 -0.171875 -0.0625 -0.34375q-0.015625 -0.078125 -0.265625 -0.6875l-0.65625 -1.53125zm-0.3125 -0.671875l-1.84375 -4.25l-1.890625 4.25l3.734375 0zm11.051086 -1.40625l0 3.421875q0 1.0 0.125 1.265625q0.125 0.265625 0.4375 0.421875q0.3125 0.140625 1.15625 0.140625l0 0.34375l-6.28125 0l0 -0.34375q0.859375 0 1.15625 -0.15625q0.3125 -0.15625 0.4375 -0.40625q0.125 -0.265625 0.125 -1.265625l0 -8.015625q0 -1.0 -0.125 -1.25q-0.125 -0.265625 -0.4375 -0.421875q-0.296875 -0.15625 -1.15625 -0.15625l0 -0.34375l5.390625 0q2.65625 0 3.8124695 0.953125q1.15625 0.953125 1.15625 2.375q0 1.203125 -0.75 2.0625q-0.7343445 0.84375 -2.0468445 1.15625q-0.890625 0.21875 -3.0 0.21875zm0 -6.046875l0 5.34375q0.3125 0.015625 0.46875 0.015625q1.109375 0 1.703125 -0.65625q0.609375 -0.671875 0.609375 -2.046875q0 -1.375 -0.609375 -2.015625q-0.59375 -0.640625 -1.796875 -0.640625l-0.375 0zm11.458466 5.703125l0 3.828125q0 0.9375 0.109375 1.1875q0.109375 0.234375 0.40625 0.40625q0.3125 0.171875 0.828125 0.171875l0.40625 0l0 0.34375l-6.453125 0l0 -0.34375l0.40625 0q0.546875 0 0.875 -0.1875q0.234375 -0.125 0.359375 -0.4375q0.09375 -0.21875 0.09375 -1.140625l0 -8.125q0 -0.953125 -0.09375 -1.1875q-0.09375 -0.234375 -0.40625 -0.40625q-0.296875 -0.1875 -0.828125 -0.1875l-0.40625 0l0 -0.34375l6.453125 0l0 0.34375l-0.40625 0q-0.53125 0 -0.859375 0.1875q-0.234375 0.125 -0.375 0.4375q-0.109375 0.21875 -0.109375 1.15625l0 3.5l4.375 0l0 -3.5q0 -0.953125 -0.109375 -1.1875q-0.09375 -0.234375 -0.40625 -0.40625q-0.3125 -0.1875 -0.828125 -0.1875l-0.40625 0l0 -0.34375l6.453125 0l0 0.34375l-0.390625 0q-0.546875 0 -0.875 0.1875q-0.234375 0.125 -0.375 0.4375q-0.09375 0.21875 -0.09375 1.15625l0 8.125q0 0.9375 0.09375 1.1875q0.109375 0.234375 0.40625 0.40625q0.3125 0.171875 0.84375 0.171875l0.390625 0l0 0.34375l-6.453125 0l0 -0.34375l0.40625 0q0.546875 0 0.859375 -0.1875q0.25 -0.125 0.375 -0.4375q0.109375 -0.21875 0.109375 -1.140625l0 -3.828125l-4.375 0zm21.284851 -6.59375q2.953125 -0.109375 4.796875 1.734375q1.84375 1.828125 1.84375 4.578125q0 2.34375 -1.375 4.125q-1.8125 2.375 -5.140625 2.375q-3.34375 0 -5.15625 -2.265625q-1.4375 -1.78125 -1.4375 -4.234375q0 -2.75 1.859375 -4.578125q1.875 -1.84375 4.609375 -1.734375zm0.109375 0.59375q-1.6875 0 -2.578125 1.71875q-0.71875 1.421875 -0.71875 4.09375q0 3.15625 1.109375 4.671875q0.78125 1.046875 2.171875 1.046875q0.9375 0 1.5625 -0.453125q0.8125 -0.578125 1.25 -1.859375q0.453125 -1.28125 0.453125 -3.34375q0 -2.453125 -0.46875 -3.65625q-0.453125 -1.21875 -1.15625 -1.71875q-0.703125 -0.5 -1.625 -0.5zm12.152039 6.3125l0 3.453125q0 1.0 0.125 1.265625q0.125 0.265625 0.4375 0.421875q0.3125 0.140625 1.15625 0.140625l0 0.34375l-6.328125 0l0 -0.34375q0.859375 0 1.15625 -0.15625q0.3125 -0.15625 0.4375 -0.40625q0.125 -0.265625 0.125 -1.265625l0 -8.015625q0 -1.0 -0.125 -1.25q-0.125 -0.265625 -0.4375 -0.421875q-0.3125 -0.15625 -1.15625 -0.15625l0 -0.34375l5.734375 0q2.25 0 3.28125 0.3125q1.046875 0.3125 1.703125 1.15625q0.65625 0.828125 0.65625 1.9375q0 1.375 -0.984375 2.265625q-0.625 0.5625 -1.765625 0.84375l2.96875 4.1875q0.59375 0.8125 0.828125 1.015625q0.375 0.28125 0.875 0.296875l0 0.34375l-3.890625 0l-3.984375 -5.625l-0.8125 0zm0 -6.0625l0 5.40625l0.515625 0q1.265625 0 1.890625 -0.21875q0.640625 -0.234375 1.0 -0.84375q0.359375 -0.609375 0.359375 -1.578125q0 -1.421875 -0.671875 -2.09375q-0.65625 -0.671875 -2.109375 -0.671875l-0.984375 0zm8.769836 11.6875l0 -0.34375l0.40625 0q0.53125 0 0.8125 -0.15625q0.296875 -0.171875 0.4375 -0.46875q0.078125 -0.1875 0.078125 -1.140625l0 -8.125q0 -0.953125 -0.109375 -1.1875q-0.09375 -0.234375 -0.40625 -0.40625q-0.296875 -0.1875 -0.8125 -0.1875l-0.40625 0l0 -0.34375l5.53125 0q2.203125 0 3.5625 0.609375q1.640625 0.734375 2.484375 2.234375q0.859375 1.484375 0.859375 3.375q0 1.296875 -0.421875 2.40625q-0.421875 1.09375 -1.09375 1.8125q-0.65625 0.703125 -1.53125 1.140625q-0.859375 0.4375 -2.109375 0.671875q-0.5625 0.109375 -1.75 0.109375l-5.53125 0zm4.703125 -11.65625l0 9.640625q0 0.765625 0.0625 0.9375q0.078125 0.171875 0.265625 0.265625q0.234375 0.140625 0.703125 0.140625q1.515625 0 2.328125 -1.046875q1.09375 -1.390625 1.09375 -4.34375q0 -2.375 -0.75 -3.796875q-0.59375 -1.125 -1.53125 -1.515625q-0.640625 -0.28125 -2.171875 -0.28125zm13.597961 0.015625l0 5.03125l0.25 0q1.171875 0 1.703125 -0.734375q0.53125 -0.75 0.671875 -2.1875l0.34375 0l0 6.46875l-0.34375 0q-0.109375 -1.0625 -0.46875 -1.734375q-0.34375 -0.671875 -0.8125 -0.90625q-0.453125 -0.234375 -1.34375 -0.234375l0 3.484375q0 1.015625 0.078125 1.25q0.09375 0.234375 0.328125 0.375q0.25 0.140625 0.78125 0.140625l0.734375 0q1.734375 0 2.765625 -0.796875q1.046875 -0.796875 1.5 -2.4375l0.34375 0l-0.5625 3.921875l-10.671875 0l0 -0.34375l0.40625 0q0.546875 0 0.875 -0.1875q0.234375 -0.125 0.359375 -0.4375q0.09375 -0.21875 0.09375 -1.140625l0 -8.125q0 -0.84375 -0.046875 -1.03125q-0.078125 -0.328125 -0.328125 -0.5q-0.34375 -0.25 -0.953125 -0.25l-0.40625 0l0 -0.34375l10.34375 0l0 3.65625l-0.359375 0q-0.25 -1.328125 -0.734375 -1.90625q-0.484375 -0.59375 -1.359375 -0.875q-0.5 -0.15625 -1.90625 -0.15625l-1.28125 0zm12.3185425 6.015625l0 3.453125q0 1.0 0.125 1.265625q0.125 0.265625 0.4375 0.421875q0.3125 0.140625 1.15625 0.140625l0 0.34375l-6.328125 0l0 -0.34375q0.859375 0 1.15625 -0.15625q0.3125 -0.15625 0.4375 -0.40625q0.125 -0.265625 0.125 -1.265625l0 -8.015625q0 -1.0 -0.125 -1.25q-0.125 -0.265625 -0.4375 -0.421875q-0.3125 -0.15625 -1.15625 -0.15625l0 -0.34375l5.734375 0q2.25 0 3.28125 0.3125q1.046875 0.3125 1.703125 1.15625q0.65625 0.828125 0.65625 1.9375q0 1.375 -0.984375 2.265625q-0.625 0.5625 -1.765625 0.84375l2.96875 4.1875q0.59375 0.8125 0.828125 1.015625q0.375 0.28125 0.875 0.296875l0 0.34375l-3.890625 0l-3.984375 -5.625l-0.8125 0zm0 -6.0625l0 5.40625l0.515625 0q1.265625 0 1.890625 -0.21875q0.640625 -0.234375 1.0 -0.84375q0.359375 -0.609375 0.359375 -1.578125q0 -1.421875 -0.671875 -2.09375q-0.65625 -0.671875 -2.109375 -0.671875l-0.984375 0z" fill-rule="nonzero"/><path fill="#c9daf8" d="m94.92913 38.619423l770.1417 0l0 60.62992l-770.1417 0z" fill-rule="evenodd"/><path stroke="#000000" stroke-width="1.0" stroke-linejoin="round" stroke-linecap="butt" d="m94.92913 38.619423l770.1417 0l0 60.62992l-770.1417 0z" fill-rule="evenodd"/><path fill="#000000" d="m147.64288 56.99313l0 8.718746l-0.671875 0q-1.21875 -3.5781212 -3.671875 -5.437496q-2.4375 -1.859375 -5.328125 -1.859375q-2.765625 0 -4.609375 1.5625q-1.84375 1.5625 -2.609375 4.343746q-0.765625 2.78125 -0.765625 5.71875q0 3.5625 0.828125 6.25q0.84375 2.671875 2.703125 3.9375q1.875 1.25 4.453125 1.25q0.890625 0 1.828125 -0.1875q0.9375 -0.203125 1.921875 -0.5625l0 -5.140625q0 -1.453125 -0.203125 -1.875q-0.203125 -0.4375 -0.828125 -0.78125q-0.625 -0.359375 -1.515625 -0.359375l-0.640625 0l0 -0.671875l12.015625 0l0 0.671875q-1.375 0.09375 -1.921875 0.375q-0.53125 0.28125 -0.8125 0.9375q-0.171875 0.359375 -0.171875 1.703125l0 5.140625q-2.359375 1.0625 -4.921875 1.59375q-2.5625 0.53125 -5.3125 0.53125q-3.515625 0 -5.84375 -0.953125q-2.328125 -0.953125 -4.1093826 -2.515625q-1.765625 -1.5625 -2.78125 -3.5q-1.265625 -2.515625 -1.265625 -5.640625q0 -5.578125 3.90625 -9.421871q3.9218826 -3.84375 9.875008 -3.84375q1.84375 0 3.3125 0.296875q0.796875 0.140625 2.59375 0.828125q1.796875 0.671875 2.125 0.671875q0.515625 0 0.953125 -0.359375q0.4375 -0.375 0.796875 -1.421875l0.671875 0zm13.456894 1.984375l0 10.062496l0.484375 0q2.359375 0 3.40625 -1.46875q1.0625 -1.484375 1.359375 -4.359371l0.6875 0l0 12.937496l-0.6875 0q-0.21875 -2.109375 -0.921875 -3.453125q-0.703125 -1.359375 -1.640625 -1.8125q-0.921875 -0.46875 -2.6875 -0.46875l0 6.953125q0 2.046875 0.171875 2.5q0.171875 0.453125 0.640625 0.75q0.484375 0.296875 1.53125 0.296875l1.484375 0q3.46875 0 5.546875 -1.609375q2.09375 -1.609375 3.0 -4.890625l0.671875 0l-1.109375 7.859375l-21.359375 0l0 -0.671875l0.8125 0q1.078125 0 1.734375 -0.390625q0.46875 -0.25 0.734375 -0.875q0.203125 -0.4375 0.203125 -2.296875l0 -16.249996q0 -1.671875 -0.09375 -2.0625q-0.1875 -0.640625 -0.671875 -0.984375q-0.703125 -0.515625 -1.90625 -0.515625l-0.8125 0l0 -0.671875l20.6875 0l0 7.312496l-0.703125 0q-0.515625 -2.6718712 -1.484375 -3.8437462q-0.953125 -1.171875 -2.703125 -1.71875q-1.015625 -0.328125 -3.828125 -0.328125l-2.546875 0zm24.022568 -1.421875l12.1875 15.328121l0 -10.624996q0 -2.21875 -0.640625 -3.0q-0.875 -1.0625 -2.921875 -1.03125l0 -0.671875l8.15625 0l0 0.671875q-1.5625 0.203125 -2.109375 0.53125q-0.53125 0.3125 -0.828125 1.03125q-0.296875 0.71875 -0.296875 2.46875l0 20.578121l-0.625 0l-16.71875 -20.578121l0 15.718746q0 2.125 0.96875 2.875q0.984375 0.75 2.25 0.75l0.578125 0l0 0.671875l-8.765625 0l0 -0.671875q2.03125 -0.015625 2.828125 -0.828125q0.8125 -0.828125 0.8125 -2.796875l0 -17.453121l-0.53125 -0.65625q-0.78125 -0.984375 -1.390625 -1.28125q-0.59375 -0.3125 -1.71875 -0.359375l0 -0.671875l8.765625 0zm27.832184 1.421875l0 10.062496l0.484375 0q2.359375 0 3.40625 -1.46875q1.0625 -1.484375 1.359375 -4.359371l0.6875 0l0 12.937496l-0.6875 0q-0.21875 -2.109375 -0.921875 -3.453125q-0.703125 -1.359375 -1.640625 -1.8125q-0.921875 -0.46875 -2.6875 -0.46875l0 6.953125q0 2.046875 0.171875 2.5q0.171875 0.453125 0.640625 0.75q0.484375 0.296875 1.53125 0.296875l1.484375 0q3.46875 0 5.546875 -1.609375q2.09375 -1.609375 3.0 -4.890625l0.671875 0l-1.109375 7.859375l-21.359375 0l0 -0.671875l0.8125 0q1.078125 0 1.734375 -0.390625q0.46875 -0.25 0.734375 -0.875q0.203125 -0.4375 0.203125 -2.296875l0 -16.249996q0 -1.671875 -0.09375 -2.0625q-0.1875 -0.640625 -0.671875 -0.984375q-0.703125 -0.515625 -1.90625 -0.515625l-0.8125 0l0 -0.671875l20.6875 0l0 7.312496l-0.703125 0q-0.515625 -2.6718712 -1.484375 -3.8437462q-0.953125 -1.171875 -2.703125 -1.71875q-1.015625 -0.328125 -3.828125 -0.328125l-2.546875 0zm24.647568 12.031246l0 6.921875q0 2.015625 0.234375 2.53125q0.25 0.515625 0.859375 0.828125q0.625 0.3125 2.328125 0.3125l0 0.671875l-12.65625 0l0 -0.671875q1.71875 0 2.328125 -0.3125q0.609375 -0.328125 0.859375 -0.828125q0.25 -0.515625 0.25 -2.53125l0 -16.031246q0 -2.0 -0.25 -2.515625q-0.25 -0.53125 -0.875 -0.84375q-0.609375 -0.3125 -2.3125 -0.3125l0 -0.671875l11.484375 0q4.484375 0 6.5625 0.625q2.078125 0.625 3.390625 2.296875q1.3125 1.65625 1.3125 3.8906212q0 2.734375 -1.96875 4.53125q-1.25 1.125 -3.515625 1.6875l5.9375 8.375q1.171875 1.625 1.65625 2.015625q0.75 0.5625 1.734375 0.625l0 0.671875l-7.78125 0l-7.96875 -11.265625l-1.609375 0zm0 -12.124996l0 10.828121l1.03125 0q2.53125 0 3.78125 -0.453125q1.265625 -0.46875 1.984375 -1.671875q0.71875 -1.21875 0.71875 -3.171875q0 -2.8281212 -1.328125 -4.171871q-1.3125 -1.359375 -4.25 -1.359375l-1.9375 0zm32.566544 16.359371l-8.734375 0l-1.03125 2.40625q-0.515625 1.203125 -0.515625 1.984375q0 1.03125 0.84375 1.53125q0.484375 0.296875 2.421875 0.4375l0 0.671875l-8.218735 0l0 -0.671875q1.3281097 -0.203125 2.1718597 -1.09375q0.859375 -0.90625 2.125 -3.734375l8.84375 -19.718746l0.34375 0l8.90625 20.265621q1.28125 2.875 2.09375 3.625q0.625 0.5625 1.75 0.65625l0 0.671875l-11.953125 0l0 -0.671875l0.5 0q1.4375 0 2.015625 -0.40625q0.40625 -0.28125 0.40625 -0.828125q0 -0.328125 -0.109375 -0.6875q-0.03125 -0.15625 -0.546875 -1.359375l-1.3125 -3.078125zm-0.625 -1.359375l-3.671875 -8.5l-3.796875 8.5l7.46875 0zm32.826996 -16.328121l0 6.687496l-0.65625 0q-0.578125 -2.3124962 -1.296875 -3.3124962q-0.703125 -1.015625 -1.953125 -1.625q-0.6875 -0.328125 -2.421875 -0.328125l-1.828125 0l0 19.062496q0 1.90625 0.203125 2.375q0.203125 0.46875 0.8125 0.828125q0.625 0.359375 1.671875 0.359375l0.828125 0l0 0.671875l-12.953125 0l0 -0.671875l0.828125 0q1.078125 0 1.734375 -0.390625q0.46875 -0.25 0.75 -0.875q0.1875 -0.4375 0.1875 -2.296875l0 -19.062496l-1.78125 0q-2.5 0 -3.625 1.0625q-1.59375 1.46875 -2.0 4.203121l-0.703125 0l0 -6.687496l22.203125 0zm11.5225525 1.421875l0 10.062496l0.484375 0q2.359375 0 3.40625 -1.46875q1.0625 -1.484375 1.359375 -4.359371l0.6875 0l0 12.937496l-0.6875 0q-0.21875 -2.109375 -0.921875 -3.453125q-0.703125 -1.359375 -1.640625 -1.8125q-0.921875 -0.46875 -2.6875 -0.46875l0 6.953125q0 2.046875 0.171875 2.5q0.171875 0.453125 0.640625 0.75q0.484375 0.296875 1.53125 0.296875l1.484375 0q3.46875 0 5.546875 -1.609375q2.09375 -1.609375 3.0 -4.890625l0.671875 0l-1.109375 7.859375l-21.359375 0l0 -0.671875l0.8125 0q1.078125 0 1.734375 -0.390625q0.46875 -0.25 0.734375 -0.875q0.203125 -0.4375 0.203125 -2.296875l0 -16.249996q0 -1.671875 -0.09375 -2.0625q-0.1875 -0.640625 -0.671875 -0.984375q-0.703125 -0.515625 -1.90625 -0.515625l-0.8125 0l0 -0.671875l20.6875 0l0 7.312496l-0.703125 0q-0.515625 -2.6718712 -1.484375 -3.8437462q-0.953125 -1.171875 -2.703125 -1.71875q-1.015625 -0.328125 -3.828125 -0.328125l-2.546875 0zm60.38324 -1.421875l0 0.671875q-0.6875 0.0625 -1.171875 0.390625q-0.46875 0.328125 -0.828125 1.0q-0.109375 0.21875 -1.15625 2.828125l-7.75 20.390621l-0.703125 0l-6.125 -15.921875l-6.75 15.921875l-0.671875 0l-8.125 -20.171871q-1.234375 -3.046875 -1.734375 -3.6875q-0.484375 -0.640625 -1.65625 -0.75l0 -0.671875l10.71875 0l0 0.671875q-1.296875 0.046875 -1.734375 0.40625q-0.421875 0.34375 -0.421875 0.875q0 0.6875 0.890625 2.9375l4.859375 11.984371l3.875 -9.359375l-1.015625 -2.6249962q-0.84375 -2.15625 -1.296875 -2.875q-0.453125 -0.71875 -1.046875 -1.03125q-0.59375 -0.3125 -1.734375 -0.3125l0 -0.671875l11.96875 0l0 0.671875q-1.265625 0.03125 -1.8125 0.203125q-0.375 0.125 -0.59375 0.4375q-0.21875 0.296875 -0.21875 0.671875q0 0.421875 0.8125 2.578125l4.515625 11.703121l4.015625 -10.593746q0.640625 -1.640625 0.78125 -2.234375q0.15625 -0.609375 0.15625 -1.125q0 -0.734375 -0.515625 -1.15625q-0.5 -0.4375 -1.953125 -0.484375l0 -0.671875l6.421875 0zm11.7213745 17.687496l-8.734375 0l-1.03125 2.40625q-0.515625 1.203125 -0.515625 1.984375q0 1.03125 0.84375 1.53125q0.484375 0.296875 2.421875 0.4375l0 0.671875l-8.21875 0l0 -0.671875q1.328125 -0.203125 2.171875 -1.09375q0.859375 -0.90625 2.125 -3.734375l8.84375 -19.718746l0.34375 0l8.90625 20.265621q1.28125 2.875 2.09375 3.625q0.625 0.5625 1.75 0.65625l0 0.671875l-11.953125 0l0 -0.671875l0.5 0q1.4375 0 2.015625 -0.40625q0.40625 -0.28125 0.40625 -0.828125q0 -0.328125 -0.109375 -0.6875q-0.03125 -0.15625 -0.546875 -1.359375l-1.3125 -3.078125zm-0.625 -1.359375l-3.671875 -8.5l-3.796875 8.5l7.46875 0zm21.972809 -2.875l0 6.921875q0 2.015625 0.234375 2.53125q0.25 0.515625 0.859375 0.828125q0.625 0.3125 2.328125 0.3125l0 0.671875l-12.65625 0l0 -0.671875q1.71875 0 2.328125 -0.3125q0.609375 -0.328125 0.859375 -0.828125q0.25 -0.515625 0.25 -2.53125l0 -16.031246q0 -2.0 -0.25 -2.515625q-0.25 -0.53125 -0.875 -0.84375q-0.609375 -0.3125 -2.3125 -0.3125l0 -0.671875l11.484375 0q4.484375 0 6.5625 0.625q2.078125 0.625 3.390625 2.296875q1.3125 1.65625 1.3125 3.8906212q0 2.734375 -1.96875 4.53125q-1.25 1.125 -3.515625 1.6875l5.9375 8.375q1.171875 1.625 1.65625 2.015625q0.75 0.5625 1.734375 0.625l0 0.671875l-7.78125 0l-7.96875 -11.265625l-1.609375 0zm0 -12.124996l0 10.828121l1.03125 0q2.53125 0 3.78125 -0.453125q1.265625 -0.46875 1.984375 -1.671875q0.71875 -1.21875 0.71875 -3.171875q0 -2.8281212 -1.328125 -4.171871q-1.3125 -1.359375 -4.25 -1.359375l-1.9375 0zm42.78531 -1.890625l0 8.718746l-0.671875 0q-1.21875 -3.5781212 -3.671875 -5.437496q-2.4375 -1.859375 -5.328125 -1.859375q-2.765625 0 -4.609375 1.5625q-1.84375 1.5625 -2.609375 4.343746q-0.765625 2.78125 -0.765625 5.71875q0 3.5625 0.828125 6.25q0.84375 2.671875 2.703125 3.9375q1.875 1.25 4.453125 1.25q0.890625 0 1.828125 -0.1875q0.9375 -0.203125 1.921875 -0.5625l0 -5.140625q0 -1.453125 -0.203125 -1.875q-0.203125 -0.4375 -0.828125 -0.78125q-0.625 -0.359375 -1.515625 -0.359375l-0.640625 0l0 -0.671875l12.015625 0l0 0.671875q-1.375 0.09375 -1.921875 0.375q-0.53125 0.28125 -0.8125 0.9375q-0.171875 0.359375 -0.171875 1.703125l0 5.140625q-2.359375 1.0625 -4.921875 1.59375q-2.5625 0.53125 -5.3125 0.53125q-3.515625 0 -5.84375 -0.953125q-2.328125 -0.953125 -4.109375 -2.515625q-1.765625 -1.5625 -2.78125 -3.5q-1.265625 -2.515625 -1.265625 -5.640625q0 -5.578125 3.90625 -9.421871q3.921875 -3.84375 9.875 -3.84375q1.84375 0 3.3125 0.296875q0.796875 0.140625 2.59375 0.828125q1.796875 0.671875 2.125 0.671875q0.515625 0 0.953125 -0.359375q0.4375 -0.375 0.796875 -1.421875l0.671875 0zm18.816284 18.249996l-8.734375 0l-1.03125 2.40625q-0.515625 1.203125 -0.515625 1.984375q0 1.03125 0.84375 1.53125q0.484375 0.296875 2.421875 0.4375l0 0.671875l-8.21875 0l0 -0.671875q1.328125 -0.203125 2.171875 -1.09375q0.859375 -0.90625 2.125 -3.734375l8.84375 -19.718746l0.34375 0l8.90625 20.265621q1.28125 2.875 2.09375 3.625q0.625 0.5625 1.75 0.65625l0 0.671875l-11.953125 0l0 -0.671875l0.5 0q1.4375 0 2.015625 -0.40625q0.40625 -0.28125 0.40625 -0.828125q0 -0.328125 -0.109375 -0.6875q-0.03125 -0.15625 -0.546875 -1.359375l-1.3125 -3.078125zm-0.625 -1.359375l-3.671875 -8.5l-3.796875 8.5l7.46875 0zm29.847809 -0.03125l6.703125 -16.296871l10.0624695 0l0 0.671875l-0.8125 0q-1.09375 0 -1.75 0.390625q-0.45309448 0.25 -0.7187195 0.859375q-0.203125 0.4375 -0.203125 2.28125l0 16.281246q0 1.90625 0.203125 2.375q0.203125 0.46875 0.8124695 0.828125q0.625 0.359375 1.65625 0.359375l0.8125 0l0 0.671875l-12.9062195 0l0 -0.671875l0.796875 0q1.09375 0 1.75 -0.390625q0.453125 -0.25 0.734375 -0.875q0.203125 -0.4375 0.203125 -2.296875l0 -18.312496l-9.484375 22.546871l-0.4375 0l-9.625 -22.374996l0 17.406246q0 1.8125 0.09375 2.234375q0.234375 0.90625 1.03125 1.484375q0.796875 0.578125 2.484375 0.578125l0 0.671875l-8.453125 0l0 -0.671875l0.25 0q0.828125 0.015625 1.53125 -0.265625q0.71875 -0.28125 1.078125 -0.75q0.359375 -0.484375 0.5625 -1.34375q0.03125 -0.1875 0.03125 -1.859375l0 -15.624996q0 -1.890625 -0.203125 -2.34375q-0.1875 -0.46875 -0.8125 -0.828125q-0.625 -0.359375 -1.65625 -0.359375l-0.78125 0l0 -0.671875l10.09375 0l6.953125 16.296871zm31.107086 7.75l0 0.671875l-12.921875 0l0 -0.671875l0.8125 0q1.078125 0 1.734375 -0.390625q0.46875 -0.25 0.734375 -0.875q0.203125 -0.4375 0.203125 -2.296875l0 -16.249996q0 -1.890625 -0.203125 -2.359375q-0.203125 -0.484375 -0.8125 -0.84375q-0.609375 -0.359375 -1.65625 -0.359375l-0.8125 0l0 -0.671875l12.921875 0l0 0.671875l-0.828125 0q-1.0625 0 -1.71875 0.390625q-0.484375 0.25 -0.75 0.875q-0.203125 0.4375 -0.203125 2.296875l0 16.249996q0 1.90625 0.203125 2.375q0.21875 0.46875 0.828125 0.828125q0.609375 0.359375 1.640625 0.359375l0.828125 0zm10.151611 -24.046871l12.1875 15.328121l0 -10.624996q0 -2.21875 -0.640625 -3.0q-0.875 -1.0625 -2.921875 -1.03125l0 -0.671875l8.15625 0l0 0.671875q-1.5625 0.203125 -2.109375 0.53125q-0.53125 0.3125 -0.828125 1.03125q-0.296875 0.71875 -0.296875 2.46875l0 20.578121l-0.625 0l-16.71875 -20.578121l0 15.718746q0 2.125 0.96875 2.875q0.984375 0.75 2.25 0.75l0.578125 0l0 0.671875l-8.765625 0l0 -0.671875q2.03125 -0.015625 2.828125 -0.828125q0.8125 -0.828125 0.8125 -2.796875l0 -17.453121l-0.53125 -0.65625q-0.78125 -0.984375 -1.390625 -1.28125q-0.59375 -0.3125 -1.71875 -0.359375l0 -0.671875l8.765625 0zm43.41028 -0.5625l0 8.718746l-0.671875 0q-1.21875 -3.5781212 -3.671875 -5.437496q-2.4375 -1.859375 -5.328125 -1.859375q-2.765625 0 -4.609375 1.5625q-1.84375 1.5625 -2.609375 4.343746q-0.765625 2.78125 -0.765625 5.71875q0 3.5625 0.828125 6.25q0.84375 2.671875 2.703125 3.9375q1.875 1.25 4.453125 1.25q0.890625 0 1.828125 -0.1875q0.9375 -0.203125 1.921875 -0.5625l0 -5.140625q0 -1.453125 -0.203125 -1.875q-0.203125 -0.4375 -0.828125 -0.78125q-0.625 -0.359375 -1.515625 -0.359375l-0.640625 0l0 -0.671875l12.015625 0l0 0.671875q-1.375 0.09375 -1.921875 0.375q-0.53125 0.28125 -0.8125 0.9375q-0.171875 0.359375 -0.171875 1.703125l0 5.140625q-2.359375 1.0625 -4.921875 1.59375q-2.5625 0.53125 -5.3125 0.53125q-3.515625 0 -5.84375 -0.953125q-2.328125 -0.953125 -4.109375 -2.515625q-1.765625 -1.5625 -2.78125 -3.5q-1.265625 -2.515625 -1.265625 -5.640625q0 -5.578125 3.90625 -9.421871q3.921875 -3.84375 9.875 -3.84375q1.84375 0 3.3125 0.296875q0.796875 0.140625 2.59375 0.828125q1.796875 0.671875 2.125 0.671875q0.515625 0 0.953125 -0.359375q0.4375 -0.375 0.796875 -1.421875l0.671875 0zm13.10144 25.281246l0 -0.671875l0.828125 0q1.078125 0 1.640625 -0.328125q0.578125 -0.34375 0.859375 -0.9375q0.15625 -0.375 0.15625 -2.296875l0 -16.249996q0 -1.890625 -0.203125 -2.359375q-0.1875 -0.484375 -0.8125 -0.84375q-0.609375 -0.359375 -1.640625 -0.359375l-0.828125 0l0 -0.671875l11.078125 0q4.421875 0 7.125 1.203125q3.296875 1.484375 5.0 4.46875q1.703125 2.9843712 1.703125 6.765621q0 2.609375 -0.84375 4.8125q-0.828125 2.1875 -2.171875 3.625q-1.328125 1.421875 -3.0625 2.296875q-1.734375 0.859375 -4.25 1.328125q-1.125 0.21875 -3.5 0.21875l-11.078125 0zm9.4375 -23.312496l0 19.281246q0 1.53125 0.140625 1.890625q0.140625 0.34375 0.484375 0.515625q0.5 0.28125 1.421875 0.28125q3.046875 0 4.65625 -2.078125q2.1875 -2.8125 2.1875 -8.71875q0 -4.75 -1.5 -7.593746q-1.1875 -2.234375 -3.046875 -3.03125q-1.3125 -0.5625 -4.34375 -0.546875zm31.457214 -1.75q5.90625 -0.21875 9.59375 3.453125q3.6875 3.6562462 3.6875 9.156246q0 4.703125 -2.75 8.28125q-3.640625 4.734375 -10.296875 4.734375q-6.671875 0 -10.3125 -4.515625q-2.890625 -3.578125 -2.890625 -8.484375q0 -5.5 3.75 -9.171871q3.75 -3.671875 9.21875 -3.453125zm0.21875 1.171875q-3.390625 0 -5.15625 3.453125q-1.453125 2.8437462 -1.453125 8.171871q0 6.328125 2.234375 9.34375q1.546875 2.125 4.328125 2.125q1.890625 0 3.140625 -0.921875q1.609375 -1.15625 2.5 -3.71875q0.890625 -2.5625 0.890625 -6.6875q0 -4.90625 -0.921875 -7.328121q-0.90625 -2.4375 -2.3125 -3.4375q-1.40625 -1.0 -3.25 -1.0zm39.316223 -1.390625l0 8.562496l-0.71875 0q-0.796875 -3.3437462 -2.984375 -5.124996q-2.1875 -1.796875 -4.953125 -1.796875q-2.328125 0 -4.265625 1.328125q-1.921875 1.328125 -2.8125 3.484375q-1.15625 2.7499962 -1.15625 6.124996q0 3.3125 0.84375 6.046875q0.84375 2.71875 2.625 4.125q1.78125 1.390625 4.625 1.390625q2.34375 0 4.28125 -1.015625q1.9375 -1.03125 4.09375 -3.53125l0 2.140625q-2.078125 2.15625 -4.328125 3.140625q-2.25 0.96875 -5.265625 0.96875q-3.953125 0 -7.03125 -1.578125q-3.0625 -1.59375 -4.734375 -4.5625q-1.671875 -2.96875 -1.671875 -6.328125q0 -3.53125 1.84375 -6.703121q1.859375 -3.171875 5.0 -4.921875q3.15625 -1.75 6.6875 -1.75q2.609375 0 5.5 1.125q1.6875 0.65625 2.140625 0.65625q0.578125 0 1.0 -0.421875q0.4375 -0.421875 0.5625 -1.359375l0.71875 0zm2.9103394 0.5625l12.765625 0l0 0.671875l-0.640625 0q-1.4375 0 -1.984375 0.3125q-0.53125 0.296875 -0.765625 0.828125q-0.21875 0.53125 -0.21875 2.640625l0 12.093746q0 3.328125 0.5 4.40625q0.5 1.0625 1.640625 1.78125q1.15625 0.703125 2.90625 0.703125q2.0 0 3.40625 -0.890625q1.421875 -0.90625 2.125 -2.484375q0.703125 -1.59375 0.703125 -5.53125l0 -10.078121q0 -1.65625 -0.359375 -2.359375q-0.34375 -0.71875 -0.875 -1.0q-0.8125 -0.421875 -2.3125 -0.421875l0 -0.671875l8.546875 0l0 0.671875l-0.5 0q-1.046875 0 -1.734375 0.421875q-0.6875 0.421875 -1.0 1.265625q-0.234375 0.578125 -0.234375 2.09375l0 9.390621q0 4.34375 -0.578125 6.28125q-0.578125 1.9375 -2.796875 3.5625q-2.21875 1.609375 -6.078125 1.609375q-3.203125 0 -4.953125 -0.84375q-2.390625 -1.171875 -3.375 -2.984375q-0.984375 -1.828125 -0.984375 -4.921875l0 -12.093746q0 -2.140625 -0.234375 -2.65625q-0.234375 -0.515625 -0.828125 -0.828125q-0.578125 -0.3125 -2.140625 -0.296875l0 -0.671875zm43.87903 16.296871l6.703125 -16.296871l10.0625 0l0 0.671875l-0.8125 0q-1.09375 0 -1.75 0.390625q-0.453125 0.25 -0.71875 0.859375q-0.203125 0.4375 -0.203125 2.28125l0 16.281246q0 1.90625 0.203125 2.375q0.203125 0.46875 0.8125 0.828125q0.625 0.359375 1.65625 0.359375l0.8125 0l0 0.671875l-12.90625 0l0 -0.671875l0.796875 0q1.09375 0 1.75 -0.390625q0.453125 -0.25 0.734375 -0.875q0.203125 -0.4375 0.203125 -2.296875l0 -18.312496l-9.484375 22.546871l-0.4375 0l-9.625 -22.374996l0 17.406246q0 1.8125 0.09375 2.234375q0.234375 0.90625 1.03125 1.484375q0.796875 0.578125 2.484375 0.578125l0 0.671875l-8.453125 0l0 -0.671875l0.25 0q0.828125 0.015625 1.53125 -0.265625q0.71875 -0.28125 1.078125 -0.75q0.359375 -0.484375 0.5625 -1.34375q0.03125 -0.1875 0.03125 -1.859375l0 -15.624996q0 -1.890625 -0.203125 -2.34375q-0.1875 -0.46875 -0.8125 -0.828125q-0.625 -0.359375 -1.65625 -0.359375l-0.78125 0l0 -0.671875l10.09375 0l6.953125 16.296871zm27.607056 -14.874996l0 10.062496l0.484375 0q2.359375 0 3.40625 -1.46875q1.0625 -1.484375 1.359375 -4.359371l0.6875 0l0 12.937496l-0.6875 0q-0.21875 -2.109375 -0.921875 -3.453125q-0.703125 -1.359375 -1.640625 -1.8125q-0.921875 -0.46875 -2.6875 -0.46875l0 6.953125q0 2.046875 0.171875 2.5q0.171875 0.453125 0.640625 0.75q0.484375 0.296875 1.53125 0.296875l1.484375 0q3.46875 0 5.546875 -1.609375q2.09375 -1.609375 3.0 -4.890625l0.671875 0l-1.109375 7.859375l-21.359375 0l0 -0.671875l0.8125 0q1.078125 0 1.734375 -0.390625q0.46875 -0.25 0.734375 -0.875q0.203125 -0.4375 0.203125 -2.296875l0 -16.249996q0 -1.671875 -0.09375 -2.0625q-0.1875 -0.640625 -0.671875 -0.984375q-0.703125 -0.515625 -1.90625 -0.515625l-0.8125 0l0 -0.671875l20.6875 0l0 7.312496l-0.703125 0q-0.515625 -2.6718712 -1.484375 -3.8437462q-0.953125 -1.171875 -2.703125 -1.71875q-1.015625 -0.328125 -3.828125 -0.328125l-2.546875 0zm24.022583 -1.421875l12.1875 15.328121l0 -10.624996q0 -2.21875 -0.640625 -3.0q-0.875 -1.0625 -2.921875 -1.03125l0 -0.671875l8.15625 0l0 0.671875q-1.5625 0.203125 -2.109375 0.53125q-0.53125 0.3125 -0.828125 1.03125q-0.296875 0.71875 -0.296875 2.46875l0 20.578121l-0.625 0l-16.71875 -20.578121l0 15.718746q0 2.125 0.96875 2.875q0.984375 0.75 2.25 0.75l0.578125 0l0 0.671875l-8.765625 0l0 -0.671875q2.03125 -0.015625 2.828125 -0.828125q0.8125 -0.828125 0.8125 -2.796875l0 -17.453121l-0.53125 -0.65625q-0.78125 -0.984375 -1.390625 -1.28125q-0.59375 -0.3125 -1.71875 -0.359375l0 -0.671875l8.765625 0zm41.207153 0l0 6.687496l-0.65625 0q-0.578125 -2.3124962 -1.296875 -3.3124962q-0.703125 -1.015625 -1.953125 -1.625q-0.6875 -0.328125 -2.421875 -0.328125l-1.828125 0l0 19.062496q0 1.90625 0.203125 2.375q0.203125 0.46875 0.8125 0.828125q0.625 0.359375 1.671875 0.359375l0.828125 0l0 0.671875l-12.953125 0l0 -0.671875l0.828125 0q1.078125 0 1.734375 -0.390625q0.46875 -0.25 0.75 -0.875q0.1875 -0.4375 0.1875 -2.296875l0 -19.062496l-1.78125 0q-2.5 0 -3.625 1.0625q-1.59375 1.46875 -2.0 4.203121l-0.703125 0l0 -6.687496l22.203125 0zm18.881958 -0.5625l0.203125 8.234371l-0.75 0q-0.53125 -3.0937462 -2.59375 -4.968746q-2.0625 -1.890625 -4.46875 -1.890625q-1.859375 0 -2.953125 1.0q-1.078125 0.984375 -1.078125 2.28125q0 0.8125 0.375 1.453125q0.53125 0.859375 1.703125 1.6874962q0.859375 0.609375 3.953125 2.140625q4.34375 2.125 5.84375 4.03125q1.5 1.890625 1.5 4.328125q0 3.109375 -2.421875 5.34375q-2.40625 2.21875 -6.125 2.21875q-1.171875 0 -2.21875 -0.234375q-1.03125 -0.234375 -2.59375 -0.890625q-0.875 -0.359375 -1.4375 -0.359375q-0.484375 0 -1.015625 0.359375q-0.515625 0.359375 -0.84375 1.109375l-0.671875 0l0 -9.328125l0.671875 0q0.796875 3.9375 3.078125 6.015625q2.296875 2.0625 4.9375 2.0625q2.046875 0 3.25 -1.109375q1.21875 -1.125 1.21875 -2.59375q0 -0.875 -0.46875 -1.6875q-0.46875 -0.828125 -1.421875 -1.5625q-0.9375 -0.75 -3.34375 -1.921875q-3.375 -1.671875 -4.859375 -2.828125q-1.46875 -1.171875 -2.265625 -2.609375q-0.78125 -1.4375 -0.78125 -3.171875q0 -2.9531212 2.15625 -5.031246q2.171875 -2.078125 5.484375 -2.078125q1.203125 0 2.328125 0.296875q0.859375 0.21875 2.078125 0.8125q1.234375 0.59375 1.734375 0.59375q0.46875 0 0.734375 -0.296875q0.28125 -0.296875 0.515625 -1.40625l0.546875 0z" fill-rule="nonzero"/><path fill="#eeeeee" d="m329.55905 220.5958l0 0c0 -5.580826 4.52417 -10.10498 10.10498 -10.10498l280.6719 0c2.6800537 0 5.250244 1.0646362 7.1453247 2.9596863c1.8950806 1.89505 2.9596558 4.4652863 2.9596558 7.145294l0 40.419952c0 5.580841 -4.524109 10.10498 -10.10498 10.10498l-280.6719 0l0 0c-5.5808105 0 -10.10498 -4.5241394 -10.10498 -10.10498z" fill-rule="evenodd"/><path stroke="#595959" stroke-width="1.0" stroke-linejoin="round" stroke-linecap="butt" d="m329.55905 220.5958l0 0c0 -5.580826 4.52417 -10.10498 10.10498 -10.10498l280.6719 0c2.6800537 0 5.250244 1.0646362 7.1453247 2.9596863c1.8950806 1.89505 2.9596558 4.4652863 2.9596558 7.145294l0 40.419952c0 5.580841 -4.524109 10.10498 -10.10498 10.10498l-280.6719 0l0 0c-5.5808105 0 -10.10498 -4.5241394 -10.10498 -10.10498z" fill-rule="evenodd"/><path fill="#000000" d="m387.2455 242.10077l0 3.453125q0 1.0 0.125 1.265625q0.125 0.265625 0.4375 0.421875q0.3125 0.140625 1.15625 0.140625l0 0.34375l-6.328125 0l0 -0.34375q0.859375 0 1.15625 -0.15625q0.3125 -0.15625 0.4375 -0.40625q0.125 -0.265625 0.125 -1.265625l0 -8.015625q0 -1.0 -0.125 -1.25q-0.125 -0.265625 -0.4375 -0.421875q-0.3125 -0.15625 -1.15625 -0.15625l0 -0.34375l5.734375 0q2.25 0 3.28125 0.3125q1.046875 0.3125 1.703125 1.15625q0.65625 0.828125 0.65625 1.9375q0 1.375 -0.984375 2.265625q-0.625 0.5625 -1.765625 0.84375l2.96875 4.1875q0.59375 0.8125 0.828125 1.015625q0.375 0.28125 0.875 0.296875l0 0.34375l-3.890625 0l-3.984375 -5.625l-0.8125 0zm0 -6.0625l0 5.40625l0.515625 0q1.265625 0 1.890625 -0.21875q0.640625 -0.234375 1.0 -0.84375q0.359375 -0.609375 0.359375 -1.578125q0 -1.421875 -0.671875 -2.09375q-0.65625 -0.671875 -2.109375 -0.671875l-0.984375 0zm15.722931 -0.84375q2.953125 -0.109375 4.796875 1.734375q1.84375 1.828125 1.84375 4.578125q0 2.34375 -1.375 4.125q-1.8125 2.375 -5.140625 2.375q-3.34375 0 -5.15625 -2.265625q-1.4375 -1.78125 -1.4375 -4.234375q0 -2.75 1.859375 -4.578125q1.875 -1.84375 4.609375 -1.734375zm0.109375 0.59375q-1.6875 0 -2.578125 1.71875q-0.71875 1.421875 -0.71875 4.09375q0 3.15625 1.109375 4.671875q0.78125 1.046875 2.171875 1.046875q0.9375 0 1.5625 -0.453125q0.8125 -0.578125 1.25 -1.859375q0.453125 -1.28125 0.453125 -3.34375q0 -2.453125 -0.46875 -3.65625q-0.453125 -1.21875 -1.15625 -1.71875q-0.703125 -0.5 -1.625 -0.5zm14.964569 8.421875l-4.375 0l-0.515625 1.203125q-0.25 0.59375 -0.25 0.984375q0 0.53125 0.421875 0.765625q0.234375 0.15625 1.203125 0.21875l0 0.34375l-4.109375 0l0 -0.34375q0.671875 -0.09375 1.09375 -0.546875q0.4375 -0.453125 1.0625 -1.859375l4.421875 -9.859375l0.171875 0l4.453125 10.125q0.640625 1.453125 1.046875 1.8125q0.3125 0.296875 0.875 0.328125l0 0.34375l-5.984375 0l0 -0.34375l0.25 0q0.71875 0 1.015625 -0.1875q0.203125 -0.15625 0.203125 -0.421875q0 -0.171875 -0.0625 -0.34375q-0.015625 -0.078125 -0.265625 -0.6875l-0.65625 -1.53125zm-0.3125 -0.671875l-1.84375 -4.25l-1.890625 4.25l3.734375 0zm6.269806 4.1875l0 -0.34375l0.40625 0q0.53125 0 0.8125 -0.15625q0.296875 -0.171875 0.4375 -0.46875q0.078125 -0.1875 0.078125 -1.140625l0 -8.125q0 -0.953125 -0.109375 -1.1875q-0.09375 -0.234375 -0.40625 -0.40625q-0.296875 -0.1875 -0.8125 -0.1875l-0.40625 0l0 -0.34375l5.53125 0q2.203125 0 3.5625 0.609375q1.640625 0.734375 2.484375 2.234375q0.859375 1.484375 0.859375 3.375q0 1.296875 -0.421875 2.40625q-0.421875 1.09375 -1.09375 1.8125q-0.65625 0.703125 -1.53125 1.140625q-0.859375 0.4375 -2.109375 0.671875q-0.5625 0.109375 -1.75 0.109375l-5.53125 0zm4.703125 -11.65625l0 9.640625q0 0.765625 0.0625 0.9375q0.078125 0.171875 0.265625 0.265625q0.234375 0.140625 0.703125 0.140625q1.515625 0 2.328125 -1.046875q1.09375 -1.390625 1.09375 -4.34375q0 -2.375 -0.75 -3.796875q-0.59375 -1.125 -1.53125 -1.515625q-0.640625 -0.28125 -2.171875 -0.28125zm24.612274 -0.703125l0 3.34375l-0.328125 0q-0.28125 -1.15625 -0.640625 -1.65625q-0.359375 -0.5 -0.984375 -0.8125q-0.34375 -0.15625 -1.203125 -0.15625l-0.921875 0l0 9.53125q0 0.9375 0.09375 1.1875q0.109375 0.234375 0.421875 0.40625q0.3125 0.171875 0.828125 0.171875l0.421875 0l0 0.34375l-6.46875 0l0 -0.34375l0.40625 0q0.53125 0 0.859375 -0.1875q0.234375 -0.125 0.375 -0.4375q0.109375 -0.21875 0.109375 -1.140625l0 -9.53125l-0.90625 0q-1.234375 0 -1.8125 0.53125q-0.78125 0.734375 -1.0 2.09375l-0.34375 0l0 -3.34375l11.09375 0zm7.5438538 -0.171875q2.953125 -0.109375 4.796875 1.734375q1.84375 1.828125 1.84375 4.578125q0 2.34375 -1.375 4.125q-1.8125 2.375 -5.140625 2.375q-3.34375 0 -5.15625 -2.265625q-1.4375 -1.78125 -1.4375 -4.234375q0 -2.75 1.859375 -4.578125q1.875 -1.84375 4.609375 -1.734375zm0.109375 0.59375q-1.6875 0 -2.578125 1.71875q-0.71875 1.421875 -0.71875 4.09375q0 3.15625 1.109375 4.671875q0.78125 1.046875 2.171875 1.046875q0.9375 0 1.5625 -0.453125q0.8125 -0.578125 1.25 -1.859375q0.453125 -1.28125 0.453125 -3.34375q0 -2.453125 -0.46875 -3.65625q-0.453125 -1.21875 -1.15625 -1.71875q-0.703125 -0.5 -1.625 -0.5zm30.025757 -0.421875l0 0.34375q-0.359375 0.03125 -0.59375 0.203125q-0.234375 0.15625 -0.421875 0.484375q-0.046875 0.109375 -0.5625 1.421875l-3.875 10.1875l-0.359375 0l-3.0625 -7.953125l-3.359375 7.953125l-0.34375 0l-4.0625 -10.078125q-0.625 -1.53125 -0.875 -1.84375q-0.234375 -0.3125 -0.828125 -0.375l0 -0.34375l5.359375 0l0 0.34375q-0.640625 0.015625 -0.859375 0.203125q-0.203125 0.171875 -0.203125 0.4375q0 0.34375 0.4375 1.46875l2.421875 5.984375l1.9375 -4.671875l-0.5 -1.3125q-0.421875 -1.078125 -0.65625 -1.4375q-0.21875 -0.359375 -0.515625 -0.515625q-0.296875 -0.15625 -0.875 -0.15625l0 -0.34375l5.984375 0l0 0.34375q-0.625 0.015625 -0.90625 0.09375q-0.1875 0.078125 -0.296875 0.234375q-0.109375 0.140625 -0.109375 0.328125q0 0.203125 0.40625 1.28125l2.25 5.84375l2.015625 -5.28125q0.328125 -0.828125 0.390625 -1.125q0.078125 -0.296875 0.078125 -0.5625q0 -0.359375 -0.265625 -0.578125q-0.25 -0.21875 -0.96875 -0.234375l0 -0.34375l3.21875 0zm5.852844 8.84375l-4.375 0l-0.515625 1.203125q-0.25 0.59375 -0.25 0.984375q0 0.53125 0.421875 0.765625q0.234375 0.15625 1.203125 0.21875l0 0.34375l-4.109375 0l0 -0.34375q0.671875 -0.09375 1.09375 -0.546875q0.4375 -0.453125 1.0625 -1.859375l4.421875 -9.859375l0.171875 0l4.453125 10.125q0.640625 1.453125 1.046875 1.8125q0.3125 0.296875 0.875 0.328125l0 0.34375l-5.984375 0l0 -0.34375l0.25 0q0.71875 0 1.015625 -0.1875q0.203125 -0.15625 0.203125 -0.421875q0 -0.171875 -0.0625 -0.34375q-0.015625 -0.078125 -0.265625 -0.6875l-0.65625 -1.53125zm-0.3125 -0.671875l-1.84375 -4.25l-1.890625 4.25l3.734375 0zm10.972961 -1.4375l0 3.453125q0 1.0 0.125 1.265625q0.125 0.265625 0.4375 0.421875q0.3125 0.140625 1.15625 0.140625l0 0.34375l-6.328125 0l0 -0.34375q0.859375 0 1.15625 -0.15625q0.3125 -0.15625 0.4375 -0.40625q0.125 -0.265625 0.125 -1.265625l0 -8.015625q0 -1.0 -0.125 -1.25q-0.125 -0.265625 -0.4375 -0.421875q-0.3125 -0.15625 -1.15625 -0.15625l0 -0.34375l5.734375 0q2.25 0 3.28125 0.3125q1.046875 0.3125 1.703125 1.15625q0.65625 0.828125 0.65625 1.9375q0 1.375 -0.984375 2.265625q-0.625 0.5625 -1.765625 0.84375l2.96875 4.1875q0.59375 0.8125 0.828125 1.015625q0.375 0.28125 0.875 0.296875l0 0.34375l-3.890625 0l-3.984375 -5.625l-0.8125 0zm0 -6.0625l0 5.40625l0.515625 0q1.265625 0 1.890625 -0.21875q0.640625 -0.234375 1.0 -0.84375q0.359375 -0.609375 0.359375 -1.578125q0 -1.421875 -0.671875 -2.09375q-0.65625 -0.671875 -2.109375 -0.671875l-0.984375 0zm21.480774 5.140625q1.765625 0.40625 2.46875 0.984375q1.015625 0.828125 1.015625 2.15625q0 1.390625 -1.109375 2.296875q-1.375 1.109375 -4.0 1.109375l-6.28125 0l0 -0.34375q0.859375 0 1.15625 -0.15625q0.3125 -0.15625 0.4375 -0.40625q0.125 -0.265625 0.125 -1.265625l0 -8.015625q0 -1.0 -0.125 -1.25q-0.125 -0.265625 -0.4375 -0.421875q-0.3125 -0.15625 -1.15625 -0.15625l0 -0.34375l5.921875 0q2.125 0 3.0 0.390625q0.890625 0.375 1.390625 1.125q0.515625 0.75 0.515625 1.59375q0 0.890625 -0.65625 1.59375q-0.640625 0.703125 -2.265625 1.109375zm-3.3125 -0.25q1.296875 0 1.90625 -0.28125q0.609375 -0.296875 0.9375 -0.828125q0.328125 -0.53125 0.328125 -1.34375q0 -0.828125 -0.328125 -1.34375q-0.3125 -0.53125 -0.921875 -0.796875q-0.59375 -0.28125 -1.921875 -0.265625l0 4.859375zm0 0.71875l0 3.953125l-0.015625 0.453125q0 0.5 0.25 0.75q0.25 0.25 0.75 0.25q0.734375 0 1.34375 -0.328125q0.609375 -0.328125 0.9375 -0.9375q0.328125 -0.609375 0.328125 -1.375q0 -0.859375 -0.40625 -1.546875q-0.390625 -0.6875 -1.09375 -0.953125q-0.703125 -0.28125 -2.09375 -0.265625zm12.4122925 0.453125l0 3.453125q0 1.0 0.125 1.265625q0.125 0.265625 0.4375 0.421875q0.3125 0.140625 1.15625 0.140625l0 0.34375l-6.328125 0l0 -0.34375q0.859375 0 1.15625 -0.15625q0.3125 -0.15625 0.4375 -0.40625q0.125 -0.265625 0.125 -1.265625l0 -8.015625q0 -1.0 -0.125 -1.25q-0.125 -0.265625 -0.4375 -0.421875q-0.3125 -0.15625 -1.15625 -0.15625l0 -0.34375l5.734375 0q2.25 0 3.28125 0.3125q1.046875 0.3125 1.703125 1.15625q0.65625 0.828125 0.65625 1.9375q0 1.375 -0.984375 2.265625q-0.625 0.5625 -1.765625 0.84375l2.96875 4.1875q0.59375 0.8125 0.828125 1.015625q0.375 0.28125 0.875 0.296875l0 0.34375l-3.890625 0l-3.984375 -5.625l-0.8125 0zm0 -6.0625l0 5.40625l0.515625 0q1.265625 0 1.890625 -0.21875q0.640625 -0.234375 1.0 -0.84375q0.359375 -0.609375 0.359375 -1.578125q0 -1.421875 -0.671875 -2.09375q-0.65625 -0.671875 -2.109375 -0.671875l-0.984375 0zm15.347961 11.34375l0 0.34375l-6.453125 0l0 -0.34375l0.40625 0q0.546875 0 0.875 -0.1875q0.234375 -0.125 0.359375 -0.4375q0.09375 -0.21875 0.09375 -1.140625l0 -8.125q0 -0.953125 -0.109375 -1.1875q-0.09375 -0.234375 -0.40625 -0.40625q-0.296875 -0.1875 -0.8125 -0.1875l-0.40625 0l0 -0.34375l6.453125 0l0 0.34375l-0.40625 0q-0.53125 0 -0.859375 0.1875q-0.25 0.125 -0.375 0.4375q-0.109375 0.21875 -0.109375 1.15625l0 8.125q0 0.9375 0.109375 1.1875q0.109375 0.234375 0.40625 0.40625q0.3125 0.171875 0.828125 0.171875l0.40625 0zm5.510254 -11.296875l0 5.03125l0.25 0q1.171875 0 1.703125 -0.734375q0.53125 -0.75 0.671875 -2.1875l0.34375 0l0 6.46875l-0.34375 0q-0.109375 -1.0625 -0.46875 -1.734375q-0.34375 -0.671875 -0.8125 -0.90625q-0.453125 -0.234375 -1.34375 -0.234375l0 3.484375q0 1.015625 0.078125 1.25q0.09375 0.234375 0.328125 0.375q0.25 0.140625 0.78125 0.140625l0.734375 0q1.734375 0 2.765625 -0.796875q1.046875 -0.796875 1.5 -2.4375l0.34375 0l-0.5625 3.921875l-10.671875 0l0 -0.34375l0.40625 0q0.546875 0 0.875 -0.1875q0.234375 -0.125 0.359375 -0.4375q0.09375 -0.21875 0.09375 -1.140625l0 -8.125q0 -0.84375 -0.046875 -1.03125q-0.078125 -0.328125 -0.328125 -0.5q-0.34375 -0.25 -0.953125 -0.25l-0.40625 0l0 -0.34375l10.34375 0l0 3.65625l-0.359375 0q-0.25 -1.328125 -0.734375 -1.90625q-0.484375 -0.59375 -1.359375 -0.875q-0.5 -0.15625 -1.90625 -0.15625l-1.28125 0zm12.4904785 0l0 5.078125l0.359375 0q0.8125 0 1.328125 -0.25q0.53125 -0.25 0.890625 -0.828125q0.359375 -0.578125 0.46875 -1.578125l0.3125 0l0 6.203125l-0.3125 0q-0.171875 -1.75 -0.953125 -2.3125q-0.765625 -0.5625 -1.734375 -0.5625l-0.359375 0l0 3.78125q0 0.9375 0.109375 1.1875q0.109375 0.234375 0.40625 0.40625q0.3125 0.171875 0.828125 0.171875l0.40625 0l0 0.34375l-6.453125 0l0 -0.34375l0.40625 0q0.53125 0 0.859375 -0.1875q0.25 -0.125 0.375 -0.4375q0.09375 -0.21875 0.09375 -1.140625l0 -8.125q0 -0.953125 -0.109375 -1.1875q-0.09375 -0.234375 -0.40625 -0.40625q-0.296875 -0.1875 -0.8125 -0.1875l-0.40625 0l0 -0.34375l10.421875 0l0 3.546875l-0.375 0q-0.125 -1.25 -0.65625 -1.84375q-0.515625 -0.609375 -1.515625 -0.84375q-0.546875 -0.140625 -2.015625 -0.140625l-1.15625 0z" fill-rule="nonzero"/><path fill="#eeeeee" d="m329.55905 305.97113l0 0c0 -5.580841 4.52417 -10.10498 10.10498 -10.10498l280.6719 0c2.6800537 0 5.250244 1.0646362 7.1453247 2.9596863c1.8950806 1.89505 2.9596558 4.465271 2.9596558 7.145294l0 40.419952c0 5.5808105 -4.524109 10.10498 -10.10498 10.10498l-280.6719 0l0 0c-5.5808105 0 -10.10498 -4.52417 -10.10498 -10.10498z" fill-rule="evenodd"/><path stroke="#595959" stroke-width="1.0" stroke-linejoin="round" stroke-linecap="butt" d="m329.55905 305.97113l0 0c0 -5.580841 4.52417 -10.10498 10.10498 -10.10498l280.6719 0c2.6800537 0 5.250244 1.0646362 7.1453247 2.9596863c1.8950806 1.89505 2.9596558 4.465271 2.9596558 7.145294l0 40.419952c0 5.5808105 -4.524109 10.10498 -10.10498 10.10498l-280.6719 0l0 0c-5.5808105 0 -10.10498 -4.52417 -10.10498 -10.10498z" fill-rule="evenodd"/><path fill="#000000" d="m402.6446 320.56985q2.953125 -0.109375 4.796875 1.734375q1.84375 1.828125 1.84375 4.578125q0 2.34375 -1.375 4.125q-1.8125 2.375 -5.140625 2.375q-3.34375 0 -5.15625 -2.265625q-1.4375 -1.78125 -1.4375 -4.234375q0 -2.75 1.859375 -4.578125q1.875 -1.84375 4.609375 -1.734375zm0.109375 0.59375q-1.6875 0 -2.578125 1.71875q-0.71875 1.421875 -0.71875 4.09375q0 3.15625 1.109375 4.671875q0.78125 1.046875 2.171875 1.046875q0.9375 0 1.5625 -0.453125q0.8125 -0.578125 1.25 -1.859375q0.453125 -1.28125 0.453125 -3.34375q0 -2.453125 -0.46875 -3.65625q-0.453125 -1.21875 -1.15625 -1.71875q-0.703125 -0.5 -1.625 -0.5zm12.230194 6.34375l0 3.421875q0 1.0 0.125 1.265625q0.125 0.265625 0.4375 0.421875q0.3125 0.140625 1.15625 0.140625l0 0.34375l-6.28125 0l0 -0.34375q0.859375 0 1.15625 -0.15625q0.3125 -0.15625 0.4375 -0.40625q0.125 -0.265625 0.125 -1.265625l0 -8.015625q0 -1.0 -0.125 -1.25q-0.125 -0.265625 -0.4375 -0.421875q-0.296875 -0.15625 -1.15625 -0.15625l0 -0.34375l5.390625 0q2.65625 0 3.8125 0.953125q1.15625 0.953125 1.15625 2.375q0 1.203125 -0.75 2.0625q-0.734375 0.84375 -2.046875 1.15625q-0.890625 0.21875 -3.0 0.21875zm0 -6.046875l0 5.34375q0.3125 0.015625 0.46875 0.015625q1.109375 0 1.703125 -0.65625q0.609375 -0.671875 0.609375 -2.046875q0 -1.375 -0.609375 -2.015625q-0.59375 -0.640625 -1.796875 -0.640625l-0.375 0zm11.489716 0l0 5.078125l0.359375 0q0.8125 0 1.328125 -0.25q0.53125 -0.25 0.890625 -0.828125q0.359375 -0.578125 0.46875 -1.578125l0.3125 0l0 6.203125l-0.3125 0q-0.171875 -1.75 -0.953125 -2.3125q-0.765625 -0.5625 -1.734375 -0.5625l-0.359375 0l0 3.78125q0 0.9375 0.109375 1.1875q0.109375 0.234375 0.40625 0.40625q0.3125 0.171875 0.828125 0.171875l0.40625 0l0 0.34375l-6.453125 0l0 -0.34375l0.40625 0q0.53125 0 0.859375 -0.1875q0.25 -0.125 0.375 -0.4375q0.09375 -0.21875 0.09375 -1.140625l0 -8.125q0 -0.953125 -0.109375 -1.1875q-0.09375 -0.234375 -0.40625 -0.40625q-0.296875 -0.1875 -0.8125 -0.1875l-0.40625 0l0 -0.34375l10.421875 0l0 3.546875l-0.375 0q-0.125 -1.25 -0.65625 -1.84375q-0.515625 -0.609375 -1.515625 -0.84375q-0.546875 -0.140625 -2.015625 -0.140625l-1.15625 0zm13.474121 -0.890625q2.953125 -0.109375 4.796875 1.734375q1.84375 1.828125 1.84375 4.578125q0 2.34375 -1.375 4.125q-1.8125 2.375 -5.140625 2.375q-3.34375 0 -5.15625 -2.265625q-1.4375 -1.78125 -1.4375 -4.234375q0 -2.75 1.859375 -4.578125q1.875 -1.84375 4.609375 -1.734375zm0.109375 0.59375q-1.6875 0 -2.578125 1.71875q-0.71875 1.421875 -0.71875 4.09375q0 3.15625 1.109375 4.671875q0.78125 1.046875 2.171875 1.046875q0.9375 0 1.5625 -0.453125q0.8125 -0.578125 1.25 -1.859375q0.453125 -1.28125 0.453125 -3.34375q0 -2.453125 -0.46875 -3.65625q-0.453125 -1.21875 -1.15625 -1.71875q-0.703125 -0.5 -1.625 -0.5zm12.152039 6.3125l0 3.453125q0 1.0 0.125 1.265625q0.125 0.265625 0.4375 0.421875q0.3125 0.140625 1.15625 0.140625l0 0.34375l-6.328125 0l0 -0.34375q0.859375 0 1.15625 -0.15625q0.3125 -0.15625 0.4375 -0.40625q0.125 -0.265625 0.125 -1.265625l0 -8.015625q0 -1.0 -0.125 -1.25q-0.125 -0.265625 -0.4375 -0.421875q-0.3125 -0.15625 -1.15625 -0.15625l0 -0.34375l5.734375 0q2.25 0 3.28125 0.3125q1.046875 0.3125 1.703125 1.15625q0.65625 0.828125 0.65625 1.9375q0 1.375 -0.984375 2.265625q-0.625 0.5625 -1.765625 0.84375l2.96875 4.1875q0.59375 0.8125 0.828125 1.015625q0.375 0.28125 0.875 0.296875l0 0.34375l-3.890625 0l-3.984375 -5.625l-0.8125 0zm0 -6.0625l0 5.40625l0.515625 0q1.265625 0 1.890625 -0.21875q0.640625 -0.234375 1.0 -0.84375q0.359375 -0.609375 0.359375 -1.578125q0 -1.421875 -0.671875 -2.09375q-0.65625 -0.671875 -2.109375 -0.671875l-0.984375 0zm25.637024 -0.953125l0 4.28125l-0.359375 0q-0.390625 -1.671875 -1.484375 -2.5625q-1.09375 -0.890625 -2.484375 -0.890625q-1.15625 0 -2.125 0.671875q-0.96875 0.65625 -1.40625 1.734375q-0.578125 1.375 -0.578125 3.0625q0 1.65625 0.421875 3.015625q0.421875 1.359375 1.3125 2.0625q0.890625 0.6875 2.3125 0.6875q1.171875 0 2.140625 -0.5q0.96875 -0.515625 2.046875 -1.765625l0 1.0625q-1.046875 1.09375 -2.171875 1.578125q-1.125 0.484375 -2.625 0.484375q-1.984375 0 -3.515625 -0.78125q-1.53125 -0.796875 -2.375 -2.28125q-0.828125 -1.484375 -0.828125 -3.171875q0 -1.765625 0.921875 -3.34375q0.9375 -1.59375 2.5 -2.46875q1.578125 -0.875 3.34375 -0.875q1.296875 0 2.75 0.578125q0.84375 0.328125 1.0625 0.328125q0.296875 0 0.5 -0.21875q0.21875 -0.21875 0.28125 -0.6875l0.359375 0zm5.972931 7.015625l0 3.453125q0 1.0 0.125 1.265625q0.125 0.265625 0.4375 0.421875q0.3125 0.140625 1.15625 0.140625l0 0.34375l-6.328125 0l0 -0.34375q0.859375 0 1.15625 -0.15625q0.3125 -0.15625 0.4375 -0.40625q0.125 -0.265625 0.125 -1.265625l0 -8.015625q0 -1.0 -0.125 -1.25q-0.125 -0.265625 -0.4375 -0.421875q-0.3125 -0.15625 -1.15625 -0.15625l0 -0.34375l5.734375 0q2.25 0 3.28125 0.3125q1.046875 0.3125 1.703125 1.15625q0.65625 0.828125 0.65625 1.9375q0 1.375 -0.984375 2.265625q-0.625 0.5625 -1.765625 0.84375l2.96875 4.1875q0.59375 0.8125 0.828125 1.015625q0.375 0.28125 0.875 0.296875l0 0.34375l-3.890625 0l-3.984375 -5.625l-0.8125 0zm0 -6.0625l0 5.40625l0.515625 0q1.265625 0 1.890625 -0.21875q0.640625 -0.234375 1.0 -0.84375q0.359375 -0.609375 0.359375 -1.578125q0 -1.421875 -0.671875 -2.09375q-0.65625 -0.671875 -2.109375 -0.671875l-0.984375 0zm13.597961 0.046875l0 5.03125l0.25 0q1.171875 0 1.703125 -0.734375q0.53125 -0.75 0.671875 -2.1875l0.34375 0l0 6.46875l-0.34375 0q-0.109375 -1.0625 -0.46875 -1.734375q-0.34375 -0.671875 -0.8125 -0.90625q-0.453125 -0.234375 -1.34375 -0.234375l0 3.484375q0 1.015625 0.078125 1.25q0.09375 0.234375 0.328125 0.375q0.25 0.140625 0.78125 0.140625l0.734375 0q1.734375 0 2.765625 -0.796875q1.046875 -0.796875 1.5 -2.4375l0.34375 0l-0.5625 3.921875l-10.671875 0l0 -0.34375l0.40625 0q0.546875 0 0.875 -0.1875q0.234375 -0.125 0.359375 -0.4375q0.09375 -0.21875 0.09375 -1.140625l0 -8.125q0 -0.84375 -0.046875 -1.03125q-0.078125 -0.328125 -0.328125 -0.5q-0.34375 -0.25 -0.953125 -0.25l-0.40625 0l0 -0.34375l10.34375 0l0 3.65625l-0.359375 0q-0.25 -1.328125 -0.734375 -1.90625q-0.484375 -0.59375 -1.359375 -0.875q-0.5 -0.15625 -1.90625 -0.15625l-1.28125 0zm15.131073 8.125l-4.375 0l-0.515625 1.203125q-0.25 0.59375 -0.25 0.984375q0 0.53125 0.421875 0.765625q0.234375 0.15625 1.203125 0.21875l0 0.34375l-4.109375 0l0 -0.34375q0.671875 -0.09375 1.09375 -0.546875q0.4375 -0.453125 1.0625 -1.859375l4.421875 -9.859375l0.171875 0l4.453125 10.125q0.640625 1.453125 1.046875 1.8125q0.3125 0.296875 0.875 0.328125l0 0.34375l-5.984375 0l0 -0.34375l0.25 0q0.71875 0 1.015625 -0.1875q0.203125 -0.15625 0.203125 -0.421875q0 -0.171875 -0.0625 -0.34375q-0.015625 -0.078125 -0.265625 -0.6875l-0.65625 -1.53125zm-0.3125 -0.671875l-1.84375 -4.25l-1.890625 4.25l3.734375 0zm16.400024 -8.171875l0 3.34375l-0.328125 0q-0.28125 -1.15625 -0.640625 -1.65625q-0.359375 -0.5 -0.984375 -0.8125q-0.34375 -0.15625 -1.203125 -0.15625l-0.921875 0l0 9.53125q0 0.9375 0.09375 1.1875q0.109375 0.234375 0.421875 0.40625q0.3125 0.171875 0.828125 0.171875l0.421875 0l0 0.34375l-6.46875 0l0 -0.34375l0.40625 0q0.53125 0 0.859375 -0.1875q0.234375 -0.125 0.375 -0.4375q0.109375 -0.21875 0.109375 -1.140625l0 -9.53125l-0.90625 0q-1.234375 0 -1.8125 0.53125q-0.78125 0.734375 -1.0 2.09375l-0.34375 0l0 -3.34375l11.09375 0zm7.5060425 12.015625l0 0.34375l-6.453125 0l0 -0.34375l0.40625 0q0.546875 0 0.875 -0.1875q0.234375 -0.125 0.359375 -0.4375q0.09375 -0.21875 0.09375 -1.140625l0 -8.125q0 -0.953125 -0.109375 -1.1875q-0.09375 -0.234375 -0.40625 -0.40625q-0.296875 -0.1875 -0.8125 -0.1875l-0.40625 0l0 -0.34375l6.453125 0l0 0.34375l-0.40625 0q-0.53125 0 -0.859375 0.1875q-0.25 0.125 -0.375 0.4375q-0.109375 0.21875 -0.109375 1.15625l0 8.125q0 0.9375 0.109375 1.1875q0.109375 0.234375 0.40625 0.40625q0.3125 0.171875 0.828125 0.171875l0.40625 0zm7.635315 -12.1875q2.953125 -0.109375 4.796875 1.734375q1.84375 1.828125 1.84375 4.578125q0 2.34375 -1.375 4.125q-1.8125 2.375 -5.140625 2.375q-3.34375 0 -5.15625 -2.265625q-1.4375 -1.78125 -1.4375 -4.234375q0 -2.75 1.859375 -4.578125q1.875 -1.84375 4.609375 -1.734375zm0.109375 0.59375q-1.6875 0 -2.578125 1.71875q-0.71875 1.421875 -0.71875 4.09375q0 3.15625 1.109375 4.671875q0.78125 1.046875 2.171875 1.046875q0.9375 0 1.5625 -0.453125q0.8125 -0.578125 1.25 -1.859375q0.453125 -1.28125 0.453125 -3.34375q0 -2.453125 -0.46875 -3.65625q-0.453125 -1.21875 -1.15625 -1.71875q-0.703125 -0.5 -1.625 -0.5zm11.839539 -0.421875l6.09375 7.671875l0 -5.3125q0 -1.109375 -0.3125 -1.5q-0.4375 -0.53125 -1.46875 -0.515625l0 -0.34375l4.078125 0l0 0.34375q-0.78125 0.09375 -1.046875 0.265625q-0.265625 0.15625 -0.421875 0.515625q-0.140625 0.359375 -0.140625 1.234375l0 10.28125l-0.3125 0l-8.359375 -10.28125l0 7.84375q0 1.078125 0.484375 1.453125q0.484375 0.359375 1.125 0.359375l0.28125 0l0 0.34375l-4.375 0l0 -0.34375q1.015625 0 1.421875 -0.40625q0.40625 -0.421875 0.40625 -1.40625l0 -8.71875l-0.265625 -0.328125q-0.390625 -0.484375 -0.703125 -0.640625q-0.296875 -0.15625 -0.859375 -0.171875l0 -0.34375l4.375 0z" fill-rule="nonzero"/><path fill="#eeeeee" d="m329.55905 391.34647l0 0c0 -5.580841 4.52417 -10.105011 10.10498 -10.105011l280.6719 0c2.6800537 0 5.250244 1.0646362 7.1453247 2.9596863c1.8950806 1.89505 2.9596558 4.4653015 2.9596558 7.1453247l0 40.419952c0 5.5808105 -4.524109 10.10498 -10.10498 10.10498l-280.6719 0l0 0c-5.5808105 0 -10.10498 -4.52417 -10.10498 -10.10498z" fill-rule="evenodd"/><path stroke="#595959" stroke-width="1.0" stroke-linejoin="round" stroke-linecap="butt" d="m329.55905 391.34647l0 0c0 -5.580841 4.52417 -10.105011 10.10498 -10.105011l280.6719 0c2.6800537 0 5.250244 1.0646362 7.1453247 2.9596863c1.8950806 1.89505 2.9596558 4.4653015 2.9596558 7.1453247l0 40.419952c0 5.5808105 -4.524109 10.10498 -10.10498 10.10498l-280.6719 0l0 0c-5.5808105 0 -10.10498 -4.52417 -10.10498 -10.10498z" fill-rule="evenodd"/><path fill="#000000" d="m403.67853 405.9452q2.953125 -0.109375 4.796875 1.734375q1.84375 1.828125 1.84375 4.578125q0 2.34375 -1.375 4.125q-1.8125 2.375 -5.140625 2.375q-3.34375 0 -5.15625 -2.265625q-1.4375 -1.78125 -1.4375 -4.234375q0 -2.75 1.859375 -4.578125q1.875 -1.84375 4.609375 -1.734375zm0.109375 0.59375q-1.6875 0 -2.578125 1.71875q-0.71875 1.421875 -0.71875 4.09375q0 3.15625 1.109375 4.671875q0.78125 1.046875 2.171875 1.046875q0.9375 0 1.5625 -0.453125q0.8125 -0.578125 1.25 -1.859375q0.453125 -1.28125 0.453125 -3.34375q0 -2.453125 -0.46875 -3.65625q-0.453125 -1.21875 -1.15625 -1.71875q-0.703125 -0.5 -1.625 -0.5zm12.230194 6.34375l0 3.421875q0 1.0 0.125 1.265625q0.125 0.265625 0.4375 0.421875q0.3125 0.140625 1.15625 0.140625l0 0.34375l-6.28125 0l0 -0.34375q0.859375 0 1.15625 -0.15625q0.3125 -0.15625 0.4375 -0.40625q0.125 -0.265625 0.125 -1.265625l0 -8.015625q0 -1.0 -0.125 -1.25q-0.125 -0.265625 -0.4375 -0.421875q-0.296875 -0.15625 -1.15625 -0.15625l0 -0.34375l5.390625 0q2.65625 0 3.8125 0.953125q1.15625 0.953125 1.15625 2.375q0 1.203125 -0.75 2.0625q-0.734375 0.84375 -2.046875 1.15625q-0.890625 0.21875 -3.0 0.21875zm0 -6.046875l0 5.34375q0.3125 0.015625 0.46875 0.015625q1.109375 0 1.703125 -0.65625q0.609375 -0.671875 0.609375 -2.046875q0 -1.375 -0.609375 -2.015625q-0.59375 -0.640625 -1.796875 -0.640625l-0.375 0zm11.442841 0l0 5.03125l0.25 0q1.171875 0 1.703125 -0.734375q0.53125 -0.75 0.671875 -2.1875l0.34375 0l0 6.46875l-0.34375 0q-0.109375 -1.0625 -0.46875 -1.734375q-0.34375 -0.671875 -0.8125 -0.90625q-0.453125 -0.234375 -1.34375 -0.234375l0 3.484375q0 1.015625 0.078125 1.25q0.09375 0.234375 0.328125 0.375q0.25 0.140625 0.78125 0.140625l0.734375 0q1.734375 0 2.765625 -0.796875q1.046875 -0.796875 1.5 -2.4375l0.34375 0l-0.5625 3.921875l-10.671875 0l0 -0.34375l0.40625 0q0.546875 0 0.875 -0.1875q0.234375 -0.125 0.359375 -0.4375q0.09375 -0.21875 0.09375 -1.140625l0 -8.125q0 -0.84375 -0.046875 -1.03125q-0.078125 -0.328125 -0.328125 -0.5q-0.34375 -0.25 -0.953125 -0.25l-0.40625 0l0 -0.34375l10.34375 0l0 3.65625l-0.359375 0q-0.25 -1.328125 -0.734375 -1.90625q-0.484375 -0.59375 -1.359375 -0.875q-0.5 -0.15625 -1.90625 -0.15625l-1.28125 0zm12.318573 6.015625l0 3.453125q0 1.0 0.125 1.265625q0.125 0.265625 0.4375 0.421875q0.3125 0.140625 1.15625 0.140625l0 0.34375l-6.328125 0l0 -0.34375q0.859375 0 1.15625 -0.15625q0.3125 -0.15625 0.4375 -0.40625q0.125 -0.265625 0.125 -1.265625l0 -8.015625q0 -1.0 -0.125 -1.25q-0.125 -0.265625 -0.4375 -0.421875q-0.3125 -0.15625 -1.15625 -0.15625l0 -0.34375l5.734375 0q2.25 0 3.28125 0.3125q1.046875 0.3125 1.703125 1.15625q0.65625 0.828125 0.65625 1.9375q0 1.375 -0.984375 2.265625q-0.625 0.5625 -1.765625 0.84375l2.96875 4.1875q0.59375 0.8125 0.828125 1.015625q0.375 0.28125 0.875 0.296875l0 0.34375l-3.890625 0l-3.984375 -5.625l-0.8125 0zm0 -6.0625l0 5.40625l0.515625 0q1.265625 0 1.890625 -0.21875q0.640625 -0.234375 1.0 -0.84375q0.359375 -0.609375 0.359375 -1.578125q0 -1.421875 -0.671875 -2.09375q-0.65625 -0.671875 -2.109375 -0.671875l-0.984375 0zm16.285461 8.171875l-4.375 0l-0.515625 1.203125q-0.25 0.59375 -0.25 0.984375q0 0.53125 0.421875 0.765625q0.234375 0.15625 1.203125 0.21875l0 0.34375l-4.109375 0l0 -0.34375q0.671875 -0.09375 1.09375 -0.546875q0.4375 -0.453125 1.0625 -1.859375l4.421875 -9.859375l0.171875 0l4.453125 10.125q0.640625 1.453125 1.046875 1.8125q0.3125 0.296875 0.875 0.328125l0 0.34375l-5.984375 0l0 -0.34375l0.25 0q0.71875 0 1.015625 -0.1875q0.203125 -0.15625 0.203125 -0.421875q0 -0.171875 -0.0625 -0.34375q-0.015625 -0.078125 -0.265625 -0.6875l-0.65625 -1.53125zm-0.3125 -0.671875l-1.84375 -4.25l-1.890625 4.25l3.734375 0zm16.400024 -8.171875l0 3.34375l-0.328125 0q-0.28125 -1.15625 -0.640625 -1.65625q-0.359375 -0.5 -0.984375 -0.8125q-0.34375 -0.15625 -1.203125 -0.15625l-0.921875 0l0 9.53125q0 0.9375 0.09375 1.1875q0.109375 0.234375 0.421875 0.40625q0.3125 0.171875 0.828125 0.171875l0.421875 0l0 0.34375l-6.46875 0l0 -0.34375l0.40625 0q0.53125 0 0.859375 -0.1875q0.234375 -0.125 0.375 -0.4375q0.109375 -0.21875 0.109375 -1.140625l0 -9.53125l-0.90625 0q-1.234375 0 -1.8125 0.53125q-0.78125 0.734375 -1.0 2.09375l-0.34375 0l0 -3.34375l11.09375 0zm7.506073 12.015625l0 0.34375l-6.453125 0l0 -0.34375l0.40625 0q0.546875 0 0.875 -0.1875q0.234375 -0.125 0.359375 -0.4375q0.09375 -0.21875 0.09375 -1.140625l0 -8.125q0 -0.953125 -0.109375 -1.1875q-0.09375 -0.234375 -0.40625 -0.40625q-0.296875 -0.1875 -0.8125 -0.1875l-0.40625 0l0 -0.34375l6.453125 0l0 0.34375l-0.40625 0q-0.53125 0 -0.859375 0.1875q-0.25 0.125 -0.375 0.4375q-0.109375 0.21875 -0.109375 1.15625l0 8.125q0 0.9375 0.109375 1.1875q0.109375 0.234375 0.40625 0.40625q0.3125 0.171875 0.828125 0.171875l0.40625 0zm7.635254 -12.1875q2.953125 -0.109375 4.796875 1.734375q1.84375 1.828125 1.84375 4.578125q0 2.34375 -1.375 4.125q-1.8125 2.375 -5.140625 2.375q-3.34375 0 -5.15625 -2.265625q-1.4375 -1.78125 -1.4375 -4.234375q0 -2.75 1.859375 -4.578125q1.875 -1.84375 4.609375 -1.734375zm0.109375 0.59375q-1.6875 0 -2.578125 1.71875q-0.71875 1.421875 -0.71875 4.09375q0 3.15625 1.109375 4.671875q0.78125 1.046875 2.171875 1.046875q0.9375 0 1.5625 -0.453125q0.8125 -0.578125 1.25 -1.859375q0.453125 -1.28125 0.453125 -3.34375q0 -2.453125 -0.46875 -3.65625q-0.453125 -1.21875 -1.15625 -1.71875q-0.703125 -0.5 -1.625 -0.5zm11.839569 -0.421875l6.09375 7.671875l0 -5.3125q0 -1.109375 -0.3125 -1.5q-0.4375 -0.53125 -1.46875 -0.515625l0 -0.34375l4.078125 0l0 0.34375q-0.78125 0.09375 -1.046875 0.265625q-0.265625 0.15625 -0.421875 0.515625q-0.140625 0.359375 -0.140625 1.234375l0 10.28125l-0.3125 0l-8.359375 -10.28125l0 7.84375q0 1.078125 0.484375 1.453125q0.484375 0.359375 1.125 0.359375l0.28125 0l0 0.34375l-4.375 0l0 -0.34375q1.015625 0 1.421875 -0.40625q0.40625 -0.421875 0.40625 -1.40625l0 -8.71875l-0.265625 -0.328125q-0.390625 -0.484375 -0.703125 -0.640625q-0.296875 -0.15625 -0.859375 -0.171875l0 -0.34375l4.375 0zm18.527618 6.765625l0 3.421875q0 1.0 0.125 1.265625q0.125 0.265625 0.4375 0.421875q0.3125 0.140625 1.15625 0.140625l0 0.34375l-6.28125 0l0 -0.34375q0.859375 0 1.15625 -0.15625q0.3125 -0.15625 0.4375 -0.40625q0.125 -0.265625 0.125 -1.265625l0 -8.015625q0 -1.0 -0.125 -1.25q-0.125 -0.265625 -0.4375 -0.421875q-0.296875 -0.15625 -1.15625 -0.15625l0 -0.34375l5.390625 0q2.65625 0 3.8125 0.953125q1.15625 0.953125 1.15625 2.375q0 1.203125 -0.75 2.0625q-0.734375 0.84375 -2.046875 1.15625q-0.890625 0.21875 -3.0 0.21875zm0 -6.046875l0 5.34375q0.3125 0.015625 0.46875 0.015625q1.109375 0 1.703125 -0.65625q0.609375 -0.671875 0.609375 -2.046875q0 -1.375 -0.609375 -2.015625q-0.59375 -0.640625 -1.796875 -0.640625l-0.375 0zm18.145996 7.296875l-0.46875 4.34375l-10.96875 0l0 -0.34375l0.40625 0q0.546875 0 0.875 -0.1875q0.234375 -0.125 0.359375 -0.4375q0.109375 -0.21875 0.109375 -1.140625l0 -8.125q0 -0.953125 -0.109375 -1.1875q-0.09375 -0.234375 -0.40625 -0.40625q-0.296875 -0.1875 -0.828125 -0.1875l-0.40625 0l0 -0.34375l6.59375 0l0 0.34375l-0.546875 0q-0.53125 0 -0.859375 0.1875q-0.234375 0.125 -0.375 0.4375q-0.09375 0.21875 -0.09375 1.15625l0 7.859375q0 0.953125 0.109375 1.21875q0.109375 0.25 0.421875 0.375q0.234375 0.09375 1.109375 0.09375l1.015625 0q0.984375 0 1.640625 -0.34375q0.65625 -0.359375 1.140625 -1.09375q0.484375 -0.75 0.90625 -2.21875l0.375 0zm8.4279175 0.828125l-4.375 0l-0.515625 1.203125q-0.25 0.59375 -0.25 0.984375q0 0.53125 0.421875 0.765625q0.234375 0.15625 1.203125 0.21875l0 0.34375l-4.109375 0l0 -0.34375q0.671875 -0.09375 1.09375 -0.546875q0.4375 -0.453125 1.0625 -1.859375l4.421875 -9.859375l0.171875 0l4.453125 10.125q0.640625 1.453125 1.046875 1.8125q0.3125 0.296875 0.875 0.328125l0 0.34375l-5.984375 0l0 -0.34375l0.25 0q0.71875 0 1.015625 -0.1875q0.203125 -0.15625 0.203125 -0.421875q0 -0.171875 -0.0625 -0.34375q-0.015625 -0.078125 -0.265625 -0.6875l-0.65625 -1.53125zm-0.3125 -0.671875l-1.84375 -4.25l-1.890625 4.25l3.734375 0zm10.660461 -8.171875l6.09375 7.671875l0 -5.3125q0 -1.109375 -0.3125 -1.5q-0.4375 -0.53125 -1.46875 -0.515625l0 -0.34375l4.078125 0l0 0.34375q-0.78125 0.09375 -1.046875 0.265625q-0.265625 0.15625 -0.421875 0.515625q-0.140625 0.359375 -0.140625 1.234375l0 10.28125l-0.3125 0l-8.359375 -10.28125l0 7.84375q0 1.078125 0.484375 1.453125q0.484375 0.359375 1.125 0.359375l0.28125 0l0 0.34375l-4.375 0l0 -0.34375q1.015625 0 1.421875 -0.40625q0.40625 -0.421875 0.40625 -1.40625l0 -8.71875l-0.265625 -0.328125q-0.390625 -0.484375 -0.703125 -0.640625q-0.296875 -0.15625 -0.859375 -0.171875l0 -0.34375l4.375 0z" fill-rule="nonzero"/></g></svg>