<svg version="1.1" viewBox="0.0 0.0 960.0 540.0" fill="none" stroke="none" stroke-linecap="square" stroke-miterlimit="10" xmlns:xlink="http://www.w3.org/1999/xlink" xmlns="http://www.w3.org/2000/svg"><clipPath id="g309cfe5cb8d_0_102.0"><path d="m0 0l960.0 0l0 540.0l-960.0 0l0 -540.0z" clip-rule="nonzero"/></clipPath><g clip-path="url(#g309cfe5cb8d_0_102.0)"><path fill="#ffffff" d="m0 0l960.0 0l0 540.0l-960.0 0z" fill-rule="evenodd"/><path fill="#31394d" d="m0 0l960.0 0l0 134.07874l-960.0 0z" fill-rule="evenodd"/><path fill="#000000" fill-opacity="0.0" d="m32.727036 52.59055l894.55115 0l0 65.480316l-894.55115 0z" fill-rule="evenodd"/><path fill="#ffffff" d="m52.55516 97.8368q-1.9375 0 -3.46875 -0.34375q-1.53125 -0.328125 -3.359375 -0.890625q-1.125 -0.40625 -1.6875 -0.4375l0.296875 -6.765625l2.390625 0l0.640625 4.859375q0.625 0.59375 2.0625 1.0625q1.4375 0.46875 3.15625 0.46875q2.84375 0 4.3125 -1.265625q1.46875 -1.28125 1.46875 -3.515625q0 -1.453125 -0.796875 -2.5q-0.796875 -1.046875 -2.125 -1.78125q-1.328125 -0.75 -3.640625 -1.765625q-2.09375 -0.9375 -3.640625 -1.90625q-1.546875 -0.96875 -2.6875 -2.59375q-1.140625 -1.625 -1.140625 -3.890625q0 -2.0625 1.09375 -3.6875q1.109375 -1.625 3.171875 -2.546875q2.078125 -0.9375 4.84375 -0.9375q1.71875 0 3.046875 0.265625q1.328125 0.25 3.0 0.703125q0.75 0.265625 1.265625 0.328125l-0.21875 6.28125l-2.28125 0l-0.734375 -4.59375q-0.375 -0.375 -1.5625 -0.703125q-1.171875 -0.34375 -2.546875 -0.34375q-2.578125 0 -3.90625 1.09375q-1.328125 1.078125 -1.328125 3.125q0 1.5 0.796875 2.515625q0.8125 1.0 2.0 1.703125q1.203125 0.703125 3.8125 1.9375q2.421875 1.15625 3.953125 2.09375q1.53125 0.9375 2.625 2.453125q1.109375 1.5 1.109375 3.59375q0 1.984375 -1.109375 3.8125q-1.09375 1.828125 -3.359375 3.0q-2.25 1.171875 -5.453125 1.171875zm16.047974 8.890625q-0.640625 0 -1.25 -0.078125q-0.609375 -0.078125 -0.875 -0.21875l0 -3.25q0.21875 0.140625 0.875 0.21875q0.65625 0.078125 1.25 0.078125q1.796875 0 3.15625 -1.25q1.359375 -1.25 2.625 -4.796875l-1.78125 0l-7.09375 -18.484375l-1.71875 -0.484375l0 -1.75l9.0 0l0 1.75l-2.875 0.453125l3.65625 11.015625l1.71875 5.453125l1.59375 -5.5l3.328125 -10.96875l-2.5 -0.453125l0 -1.75l7.5 0l0 1.75l-1.859375 0.453125q-5.5 16.796875 -6.46875 19.078125q-1.265625 3.203125 -2.3125 5.015625q-1.046875 1.8125 -2.46875 2.765625q-1.40625 0.953125 -3.5 0.953125zm21.804886 -12.28125q0.375 0.5625 1.578125 1.015625q1.21875 0.4375 2.5625 0.4375q2.125 0 3.125 -0.8125q1.015625 -0.828125 1.015625 -2.28125q0 -1.015625 -0.640625 -1.75q-0.625 -0.75 -1.765625 -1.328125q-1.140625 -0.578125 -3.265625 -1.40625q-2.875 -1.078125 -4.203125 -2.59375q-1.328125 -1.515625 -1.328125 -3.96875q0 -1.640625 0.984375 -2.875q1.0 -1.234375 2.734375 -1.921875q1.734375 -0.703125 3.859375 -0.703125q1.71875 0 3.0 0.265625q1.296875 0.265625 2.078125 0.53125q0.78125 0.25 1.046875 0.328125l0 4.625l-2.28125 0l-0.734375 -2.75q-0.234375 -0.453125 -1.203125 -0.765625q-0.96875 -0.328125 -2.15625 -0.328125q-1.6875 0 -2.71875 0.75q-1.015625 0.75 -1.015625 2.015625q0 1.125 0.53125 1.859375q0.546875 0.71875 1.359375 1.171875q0.828125 0.4375 2.25 1.03125l0.75 0.3125q2.078125 0.8125 3.390625 1.5625q1.3125 0.75 2.1875 1.96875q0.875 1.203125 0.875 2.953125q0 2.765625 -2.15625 4.40625q-2.140625 1.640625 -5.875 1.640625q-1.828125 0 -3.828125 -0.5q-1.984375 -0.5 -3.265625 -1.03125l0 -4.765625l2.4375 0l0.671875 2.90625zm21.757019 3.359375q-2.125 0 -3.171875 -0.96875q-1.046875 -0.96875 -1.046875 -3.328125l0 -14.328125l-2.6875 0l0 -1.6875q0.1875 -0.03125 1.046875 -0.25q0.859375 -0.234375 1.15625 -0.421875q0.59375 -0.328125 0.9375 -1.34375q0.296875 -0.703125 0.703125 -2.265625q0.40625 -1.578125 0.484375 -1.875l2.203125 0l0.078125 5.375l6.234375 0l0 2.46875l-6.234375 0l0 11.453125q0 2.125 0.125 2.984375q0.140625 0.859375 0.5625 1.125q0.4375 0.265625 1.46875 0.265625q1.015625 0 2.21875 -0.265625q1.21875 -0.265625 1.890625 -0.5625l0.5625 1.6875q-0.890625 0.671875 -2.890625 1.3125q-2.0 0.625 -3.640625 0.625zm17.989471 0.03125q-4.515625 0 -6.890625 -2.9375q-2.359375 -2.953125 -2.359375 -7.890625q0 -3.234375 1.21875 -5.703125q1.234375 -2.46875 3.453125 -3.8125q2.234375 -1.34375 5.0625 -1.34375q3.46875 0 5.390625 1.921875q1.9375 1.921875 2.046875 5.515625q0 2.265625 -0.265625 3.46875l-12.84375 0q0.078125 3.6875 1.71875 5.953125q1.640625 2.25 4.671875 2.25q1.484375 0 3.109375 -0.53125q1.625 -0.546875 2.515625 -1.296875l0.71875 1.640625q-1.09375 1.125 -3.21875 1.953125q-2.125 0.8125 -4.328125 0.8125zm3.8125 -12.765625q0.109375 -0.78125 0.109375 -1.59375q-0.03125 -2.4375 -1.03125 -3.828125q-0.984375 -1.40625 -3.109375 -1.40625q-2.171875 0 -3.46875 1.578125q-1.28125 1.5625 -1.453125 5.25l8.953125 0zm7.2753143 10.53125l2.28125 -0.34375l0 -15.671875l-2.6875 -0.671875l0 -2.015625l5.328125 -0.671875l0.671875 0.484375l0.234375 1.5l-0.046875 1.1875q1.3125 -1.1875 3.5625 -2.171875q2.265625 -1.0 4.0625 -1.0q2.015625 0 3.234375 0.671875q1.234375 0.671875 1.875 2.09375q1.203125 -1.015625 3.34375 -1.890625q2.140625 -0.875 4.015625 -0.875q2.3125 0 3.609375 0.875q1.3125 0.875 1.84375 2.734375q0.546875 1.84375 0.546875 4.9375l0 10.484375l2.6875 0.34375l0 1.828125l-8.875 0l0 -1.828125l2.3125 -0.34375l0 -10.375q0 -2.15625 -0.328125 -3.4375q-0.3125 -1.296875 -1.1875 -1.921875q-0.875 -0.640625 -2.515625 -0.640625q-1.234375 0 -2.625 0.546875q-1.375 0.53125 -2.34375 1.28125q0.34375 1.453125 0.34375 4.140625l0 10.40625l2.640625 0.34375l0 1.828125l-9.03125 0l0 -1.828125l2.46875 -0.34375l0 -10.4375q0 -2.25 -0.28125 -3.46875q-0.28125 -1.234375 -1.0625 -1.84375q-0.78125 -0.625 -2.390625 -0.625q-1.34375 0 -2.859375 0.671875q-1.515625 0.671875 -2.625 1.5625l0 14.140625l2.5 0.34375l0 1.828125l-8.703125 0l0 -1.828125zm54.097763 2.234375q-2.25 0 -4.125 -1.109375q-1.859375 -1.125 -2.96875 -3.4375q-1.09375 -2.3125 -1.09375 -5.71875q0 -3.171875 1.3125 -5.78125q1.3125 -2.609375 3.75 -4.125q2.453125 -1.515625 5.765625 -1.515625q1.90625 0 3.46875 0.421875l0 -6.984375l-3.796875 -0.453125l0 -1.609375l6.71875 -0.671875l0.109375 0l0.8125 0.609375l0 28.0625l2.171875 0l0 1.71875q-1.1875 0.265625 -2.078125 0.40625q-0.875 0.15625 -1.84375 0.15625q-0.96875 0 -1.390625 -0.34375q-0.40625 -0.328125 -0.40625 -1.40625l0 -1.203125q-1.03125 1.265625 -2.734375 2.125q-1.703125 0.859375 -3.671875 0.859375zm1.484375 -2.640625q1.453125 0 2.71875 -0.65625q1.28125 -0.65625 1.90625 -1.515625l0 -13.65625q-0.296875 -0.453125 -1.40625 -0.796875q-1.09375 -0.359375 -2.328125 -0.359375q-2.90625 0 -4.640625 2.21875q-1.734375 2.21875 -1.734375 6.84375q0 4.03125 1.53125 5.984375q1.53125 1.9375 3.953125 1.9375zm22.805832 2.640625q-4.515625 0 -6.890625 -2.9375q-2.359375 -2.953125 -2.359375 -7.890625q0 -3.234375 1.21875 -5.703125q1.234375 -2.46875 3.453125 -3.8125q2.234375 -1.34375 5.0625 -1.34375q3.46875 0 5.390625 1.921875q1.9375 1.921875 2.046875 5.515625q0 2.265625 -0.265625 3.46875l-12.84375 0q0.078125 3.6875 1.71875 5.953125q1.640625 2.25 4.671875 2.25q1.484375 0 3.109375 -0.53125q1.625 -0.546875 2.515625 -1.296875l0.71875 1.640625q-1.09375 1.125 -3.21875 1.953125q-2.125 0.8125 -4.328125 0.8125zm3.8125 -12.765625q0.109375 -0.78125 0.109375 -1.59375q-0.03125 -2.4375 -1.03125 -3.828125q-0.984375 -1.40625 -3.109375 -1.40625q-2.171875 0 -3.46875 1.578125q-1.28125 1.5625 -1.453125 5.25l8.953125 0zm10.790939 9.375q0.375 0.5625 1.578125 1.015625q1.21875 0.4375 2.5625 0.4375q2.125 0 3.125 -0.8125q1.015625 -0.828125 1.015625 -2.28125q0 -1.015625 -0.640625 -1.75q-0.625 -0.75 -1.765625 -1.328125q-1.140625 -0.578125 -3.265625 -1.40625q-2.875 -1.078125 -4.203125 -2.59375q-1.328125 -1.515625 -1.328125 -3.96875q0 -1.640625 0.984375 -2.875q1.0 -1.234375 2.734375 -1.921875q1.734375 -0.703125 3.859375 -0.703125q1.71875 0 3.0 0.265625q1.296875 0.265625 2.078125 0.53125q0.78125 0.25 1.046875 0.328125l0 4.625l-2.28125 0l-0.734375 -2.75q-0.234375 -0.453125 -1.203125 -0.765625q-0.96875 -0.328125 -2.15625 -0.328125q-1.6875 0 -2.71875 0.75q-1.015625 0.75 -1.015625 2.015625q0 1.125 0.53125 1.859375q0.546875 0.71875 1.359375 1.171875q0.828125 0.4375 2.25 1.03125l0.75 0.3125q2.078125 0.8125 3.390625 1.5625q1.3125 0.75 2.1875 1.96875q0.875 1.203125 0.875 2.953125q0 2.765625 -2.15625 4.40625q-2.140625 1.640625 -5.875 1.640625q-1.828125 0 -3.828125 -0.5q-1.984375 -0.5 -3.265625 -1.03125l0 -4.765625l2.4375 0l0.671875 2.90625zm19.772644 -21.46875q-1.1875 0 -1.78125 -0.671875q-0.59375 -0.671875 -0.59375 -1.71875q0 -1.1875 0.71875 -1.96875q0.734375 -0.78125 2.0 -0.78125q1.265625 0 1.859375 0.671875q0.609375 0.671875 0.609375 1.703125q0 1.28125 -0.734375 2.03125q-0.734375 0.734375 -2.03125 0.734375l-0.046875 0zm-1.484375 6.609375l-2.84375 -0.671875l0 -1.984375l5.796875 -0.703125l0.0625 0l0.859375 0.671875l0 18.40625l2.984375 0.296875l0 1.828125l-9.890625 0l0 -1.828125l3.03125 -0.34375l0 -15.671875zm18.430298 27.921875q-4.765625 0 -6.921875 -1.515625q-2.140625 -1.5 -2.140625 -4.15625q0 -1.640625 1.015625 -3.03125q1.03125 -1.375 2.453125 -2.078125q-1.71875 -0.984375 -1.71875 -3.140625q0 -1.34375 0.78125 -2.53125q0.796875 -1.203125 2.0625 -1.84375q-1.875 -0.8125 -2.859375 -2.34375q-0.984375 -1.53125 -0.984375 -3.625q0 -2.15625 1.203125 -3.765625q1.21875 -1.609375 3.21875 -2.46875q2.0 -0.859375 4.234375 -0.859375q3.765625 0 5.890625 1.578125q0.5625 -0.5625 1.71875 -1.078125q1.15625 -0.53125 2.46875 -0.53125l1.265625 0l0 3.28125l-4.109375 0q0.90625 1.390625 0.90625 3.21875q0 2.203125 -1.109375 3.90625q-1.09375 1.6875 -3.0625 2.625q-1.953125 0.921875 -4.421875 0.921875q-1.59375 0 -2.875 -0.328125q-0.515625 0.515625 -0.859375 1.15625q-0.328125 0.640625 -0.328125 1.234375q0 1.34375 0.890625 1.84375q0.90625 0.5 3.21875 0.5l4.21875 0q3.609375 0 5.359375 1.390625q1.765625 1.375 1.765625 3.921875q0 2.125 -1.53125 3.890625q-1.53125 1.78125 -4.125 2.796875q-2.59375 1.03125 -5.625 1.03125zm0.265625 -19.484375q4.265625 0 4.265625 -5.046875q0 -2.5 -1.109375 -3.671875q-1.09375 -1.171875 -3.296875 -1.171875q-2.0625 0 -3.265625 1.140625q-1.1875 1.140625 -1.1875 3.640625q0 2.34375 1.140625 3.734375q1.140625 1.375 3.453125 1.375zm0.078125 17.3125q1.828125 0 3.453125 -0.546875q1.625 -0.53125 2.625 -1.59375q1.015625 -1.0625 1.015625 -2.484375q0 -1.671875 -0.90625 -2.4375q-0.890625 -0.765625 -3.46875 -0.765625l-4.40625 0q-1.484375 0 -2.34375 -0.1875q-1.53125 1.671875 -1.53125 3.765625q0 2.09375 1.265625 3.171875q1.265625 1.078125 4.296875 1.078125zm15.642609 -25.75l-2.6875 -0.671875l0 -2.015625l5.328125 -0.671875l0.125 0l0.78125 0.671875l0 1.5625l-0.046875 0.90625q1.34375 -1.203125 3.546875 -2.171875q2.203125 -0.96875 4.21875 -0.96875q2.359375 0 3.640625 0.90625q1.296875 0.890625 1.8125 2.734375q0.53125 1.84375 0.53125 4.984375l0 10.453125l2.609375 0.265625l0 1.859375l-8.84375 0l0 -1.828125l2.3125 -0.296875l0 -10.484375q0 -2.203125 -0.3125 -3.453125q-0.296875 -1.25 -1.125 -1.859375q-0.8125 -0.625 -2.375 -0.625q-1.34375 0 -2.875 0.671875q-1.53125 0.671875 -2.71875 1.5625l0 14.140625l2.53125 0.34375l0 1.828125l-8.8125 0l0 -1.828125l2.359375 -0.34375l0 -15.671875z" fill-rule="nonzero"/><path fill="#000000" fill-opacity="0.0" d="m960.0 147.96063l10.299194 0l0 30.047241l-10.299194 0z" fill-rule="evenodd"/><path fill="#000000" fill-opacity="0.0" d="m970.2992 260.27795l10.299255 0l0 -1.5748291l-10.299255 0z" fill-rule="evenodd"/><path fill="#626b73" d="m435.74014 238.5898l0 0c0 -25.709503 21.497406 -46.551178 48.015778 -46.551178l0 0c12.734558 0 24.94754 4.90448 33.95227 13.6345215c9.0047 8.7300415 14.063477 20.57051 14.063477 32.916656l0 0c0 25.709518 -21.497406 46.551193 -48.015747 46.551193l0 0c-26.518372 0 -48.015778 -20.841675 -48.015778 -46.551193z" fill-rule="evenodd"/><path stroke="#666666" stroke-width="1.0" stroke-linejoin="round" stroke-linecap="butt" d="m435.74014 238.5898l0 0c0 -25.709503 21.497406 -46.551178 48.015778 -46.551178l0 0c12.734558 0 24.94754 4.90448 33.95227 13.6345215c9.0047 8.7300415 14.063477 20.57051 14.063477 32.916656l0 0c0 25.709518 -21.497406 46.551193 -48.015747 46.551193l0 0c-26.518372 0 -48.015778 -20.841675 -48.015778 -46.551193z" fill-rule="evenodd"/><path fill="#000000" fill-opacity="0.0" d="m454.25436 211.70714l56.6929 0l0 58.99211l-56.6929 0z" fill-rule="evenodd"/><path fill="#000000" d="m466.2231 227.04526l-1.84375 -0.28125l0 -1.125l6.515625 0l0 1.125l-2.25 0.28125l0 14.078125l5.84375 -0.203125l1.34375 -3.796875l1.375 0.203125l-0.796875 5.140625l-12.0625 0l0 -1.109375l1.875 -0.234375l0 -14.078125zm15.114014 0l-2.46875 -0.28125l0 -1.125l6.0 0l3.1875 10.1875l0.75 2.875l0.6875 -2.875l3.171875 -10.1875l5.953125 0l0 1.125l-2.484375 0.28125l1.8125 14.0625l1.96875 0.25l0 1.109375l-6.53125 0l0 -1.109375l2.0625 -0.234375l-1.015625 -10.171875l-0.484375 -4.359375l-0.9375 3.25l-3.796875 11.859375l-1.46875 0l-3.671875 -10.859375l-1.328125 -4.28125l-0.40625 4.390625l-0.90625 10.171875l2.234375 0.234375l0 1.109375l-5.90625 0l0 -1.109375l1.921875 -0.234375l1.65625 -14.078125z" fill-rule="nonzero"/><path fill="#626b73" d="m451.41696 369.75064l0 0c0 -25.709503 21.497375 -46.551178 48.015747 -46.551178l0 0c12.734589 0 24.94754 4.90448 33.95224 13.6345215c9.0047 8.7300415 14.063477 20.570526 14.063477 32.916656l0 0c0 25.709503 -21.497375 46.551178 -48.015717 46.551178l0 0c-26.518372 0 -48.015747 -20.841675 -48.015747 -46.551178z" fill-rule="evenodd"/><path stroke="#666666" stroke-width="1.0" stroke-linejoin="round" stroke-linecap="butt" d="m451.41696 369.75064l0 0c0 -25.709503 21.497375 -46.551178 48.015747 -46.551178l0 0c12.734589 0 24.94754 4.90448 33.95224 13.6345215c9.0047 8.7300415 14.063477 20.570526 14.063477 32.916656l0 0c0 25.709503 -21.497375 46.551178 -48.015717 46.551178l0 0c-26.518372 0 -48.015747 -20.841675 -48.015747 -46.551178z" fill-rule="evenodd"/><path fill="#000000" fill-opacity="0.0" d="m469.93115 342.86798l56.692932 0l0 58.992126l-56.692932 0z" fill-rule="evenodd"/><path fill="#000000" d="m481.8999 358.20612l-1.84375 -0.28125l0 -1.125l6.515625 0l0 1.125l-2.25 0.28125l0 14.078125l5.84375 -0.203125l1.34375 -3.796875l1.375 0.203125l-0.796875 5.140625l-12.0625 0l0 -1.109375l1.875 -0.234375l0 -14.078125zm15.114044 0l-2.46875 -0.28125l0 -1.125l6.0 0l3.1875 10.1875l0.75 2.875l0.6875 -2.875l3.171875 -10.1875l5.9530945 0l0 1.125l-2.4843445 0.28125l1.8124695 14.0625l1.96875 0.25l0 1.109375l-6.5312195 0l0 -1.109375l2.0625 -0.234375l-1.015625 -10.171875l-0.484375 -4.359375l-0.9375 3.25l-3.796875 11.859375l-1.46875 0l-3.671875 -10.859375l-1.328125 -4.28125l-0.40625 4.390625l-0.90625 10.171875l2.234375 0.234375l0 1.109375l-5.90625 0l0 -1.109375l1.921875 -0.234375l1.65625 -14.078125z" fill-rule="nonzero"/><path fill="#626b73" d="m579.3584 194.51181l0 0c0 -25.709503 21.497375 -46.551178 48.015747 -46.551178l0 0c12.734558 0 24.94757 4.90448 33.95227 13.6345215c9.0047 8.7300415 14.063477 20.57051 14.063477 32.916656l0 0c0 25.709503 -21.497375 46.551178 -48.015747 46.551178l0 0c-26.518372 0 -48.015747 -20.841675 -48.015747 -46.551178z" fill-rule="evenodd"/><path stroke="#666666" stroke-width="1.0" stroke-linejoin="round" stroke-linecap="butt" d="m579.3584 194.51181l0 0c0 -25.709503 21.497375 -46.551178 48.015747 -46.551178l0 0c12.734558 0 24.94757 4.90448 33.95227 13.6345215c9.0047 8.7300415 14.063477 20.57051 14.063477 32.916656l0 0c0 25.709503 -21.497375 46.551178 -48.015747 46.551178l0 0c-26.518372 0 -48.015747 -20.841675 -48.015747 -46.551178z" fill-rule="evenodd"/><path fill="#000000" fill-opacity="0.0" d="m597.8726 167.62915l56.69287 0l0 58.992126l-56.69287 0z" fill-rule="evenodd"/><path fill="#000000" d="m609.8414 182.96727l-1.84375 -0.28125l0 -1.125l6.515625 0l0 1.125l-2.25 0.28125l0 14.078125l5.84375 -0.203125l1.34375 -3.796875l1.375 0.203125l-0.796875 5.140625l-12.0625 0l0 -1.109375l1.875 -0.234375l0 -14.078125zm15.114014 0l-2.46875 -0.28125l0 -1.125l6.0 0l3.1875 10.1875l0.75 2.875l0.6875 -2.875l3.171875 -10.1875l5.953125 0l0 1.125l-2.484375 0.28125l1.8125 14.0625l1.96875 0.25l0 1.109375l-6.53125 0l0 -1.109375l2.0625 -0.234375l-1.015625 -10.171875l-0.484375 -4.359375l-0.9375 3.25l-3.796875 11.859375l-1.46875 0l-3.671875 -10.859375l-1.328125 -4.28125l-0.40625 4.390625l-0.90625 10.171875l2.234375 0.234375l0 1.109375l-5.90625 0l0 -1.109375l1.921875 -0.234375l1.65625 -14.078125z" fill-rule="nonzero"/><path fill="#626b73" d="m655.874 325.4777l240.78741 0l0 110.36221l-240.78741 0z" fill-rule="evenodd"/><path fill="#81888f" d="m637.4803 307.08398l277.57483 0l-18.393677 18.393707l-240.78741 0z" fill-rule="evenodd"/><path fill="#4e555b" d="m637.4803 454.23358l18.393738 -18.393677l240.78741 0l18.393677 18.393677z" fill-rule="evenodd"/><path fill="#a0a6ab" d="m637.4803 307.08398l18.393738 18.393707l0 110.36221l-18.393738 18.393677z" fill-rule="evenodd"/><path fill="#3a4044" d="m915.0551 307.08398l0 147.1496l-18.393677 -18.393677l0 -110.36221z" fill-rule="evenodd"/><path fill="#000000" fill-opacity="0.0" d="m637.4803 307.08398l277.57483 0l0 147.1496l-277.57483 0zm18.393738 18.393707l240.78741 0l0 110.36221l-240.78741 0zm-18.393738 -18.393707l18.393738 18.393707m-18.393738 128.75589l18.393738 -18.393677m259.1811 -128.75592l-18.393677 18.393707m18.393677 128.75589l-18.393677 -18.393677" fill-rule="evenodd"/><path stroke="#666666" stroke-width="1.0" stroke-linejoin="round" stroke-linecap="butt" d="m637.4803 307.08398l277.57483 0l0 147.1496l-277.57483 0zm18.393738 18.393707l240.78741 0l0 110.36221l-240.78741 0zm-18.393738 -18.393707l18.393738 18.393707m-18.393738 128.75589l18.393738 -18.393677m259.1811 -128.75592l-18.393677 18.393707m18.393677 128.75589l-18.393677 -18.393677" fill-rule="evenodd"/><path fill="#000000" fill-opacity="0.0" d="m663.2677 337.42258l229.03937 0l0 93.102356l-229.03937 0z" fill-rule="evenodd"/><path fill="#000000" d="m677.5958 357.96194l-3.546875 -0.5l0 -2.0625l22.109375 0l0.40625 7.015625l-2.6875 0l-1.234375 -4.578125l-10.625 -0.296875l0 11.984375l7.484375 -0.125l0.703125 -3.421875l2.1875 0l0 9.671875l-2.140625 0l-0.75 -3.59375l-7.484375 -0.171875l0 11.78125l6.453125 0.40625l0 2.03125l-14.171875 0l0 -2.03125l3.296875 -0.40625l0 -25.703125zm22.191528 26.109375l3.109375 -0.234375l0 -17.484375l-2.984375 -0.75l0 -2.234375l5.703125 -0.734375l0.09375 0l0.90625 0.734375l0 0.75l-0.125 3.21875l0.125 0q0.40625 -0.703125 1.484375 -1.8125q1.078125 -1.125 2.765625 -2.046875q1.703125 -0.9375 3.6875 -0.9375q0.8125 0 1.359375 0.21875l0 4.625q-0.296875 -0.203125 -0.9375 -0.390625q-0.640625 -0.1875 -1.421875 -0.1875q-3.421875 0 -6.359375 2.109375l0 14.875l5.25 0.328125l0 1.984375l-12.65625 0l0 -2.03125zm18.85022 -9.5q0 -3.71875 1.53125 -6.4375q1.53125 -2.734375 4.03125 -4.15625q2.5 -1.4375 5.34375 -1.4375q5.21875 0 7.828125 3.3125q2.625 3.3125 2.625 8.671875q0 3.765625 -1.53125 6.5q-1.515625 2.71875 -4.015625 4.125q-2.5 1.40625 -5.359375 1.40625q-5.203125 0 -7.828125 -3.296875q-2.625 -3.3125 -2.625 -8.6875zm10.703125 9.625q2.859375 0 4.375 -2.34375q1.53125 -2.359375 1.53125 -6.984375q0 -4.59375 -1.40625 -7.28125q-1.40625 -2.6875 -4.5 -2.6875q-2.84375 0 -4.40625 2.359375q-1.546875 2.359375 -1.546875 6.984375q0 4.578125 1.4375 7.265625q1.453125 2.6875 4.515625 2.6875zm16.908813 -17.84375l-2.984375 -0.75l0 -2.234375l5.921875 -0.734375l0.109375 0l0.875 0.734375l0 1.734375l-0.046875 1.0q1.5 -1.328125 3.9375 -2.390625q2.4375 -1.078125 4.671875 -1.078125q2.59375 0 4.015625 1.0q1.4375 0.984375 2.015625 3.03125q0.578125 2.03125 0.578125 5.515625l0 11.5625l2.890625 0.296875l0 2.0625l-9.796875 0l0 -2.03125l2.5625 -0.328125l0 -11.609375q0 -2.4375 -0.328125 -3.8125q-0.328125 -1.390625 -1.25 -2.078125q-0.90625 -0.6875 -2.640625 -0.6875q-1.484375 0 -3.1875 0.75q-1.6875 0.75 -3.015625 1.734375l0 15.671875l2.8125 0.359375l0 2.03125l-9.75 0l0 -2.03125l2.609375 -0.359375l0 -17.359375zm32.02002 20.15625q-2.34375 0 -3.515625 -1.0625q-1.15625 -1.078125 -1.15625 -3.6875l0 -15.859375l-2.96875 0l0 -1.859375q0.203125 -0.046875 1.15625 -0.296875q0.953125 -0.25 1.28125 -0.453125q0.65625 -0.375 1.03125 -1.484375q0.328125 -0.796875 0.78125 -2.53125q0.46875 -1.734375 0.546875 -2.0625l2.4375 0l0.078125 5.953125l6.90625 0l0 2.734375l-6.90625 0l0 12.6875q0 2.34375 0.140625 3.296875q0.15625 0.953125 0.625 1.25q0.484375 0.28125 1.640625 0.28125q1.109375 0 2.453125 -0.28125q1.34375 -0.296875 2.09375 -0.625l0.609375 1.859375q-0.984375 0.75 -3.203125 1.453125q-2.203125 0.6875 -4.03125 0.6875zm23.021606 -28.546875l-3.390625 -0.5l0 -2.0625l21.046875 0l0.578125 6.40625l-2.359375 0l-1.203125 -4.015625l-10.25 -0.25l0 11.65625l6.90625 -0.125l0.578125 -3.421875l2.265625 0l0 9.5l-2.265625 0l-0.578125 -3.546875l-6.90625 -0.125l0 12.3125l11.65625 -0.421875l2.1875 -5.203125l2.4375 0.75l-1.1875 7.1875l-22.9375 0l0 -2.03125l3.421875 -0.40625l0 -25.703125zm25.920288 8.390625l-2.984375 -0.75l0 -2.234375l5.921875 -0.734375l0.109375 0l0.875 0.734375l0 1.734375l-0.046875 1.0q1.5 -1.328125 3.9375 -2.390625q2.4375 -1.078125 4.671875 -1.078125q2.59375 0 4.015625 1.0q1.4375 0.984375 2.015625 3.03125q0.578125 2.03125 0.578125 5.515625l0 11.5625l2.890625 0.296875l0 2.0625l-9.796875 0l0 -2.03125l2.5625 -0.328125l0 -11.609375q0 -2.4375 -0.328125 -3.8125q-0.328125 -1.390625 -1.25 -2.078125q-0.90625 -0.6875 -2.640625 -0.6875q-1.484375 0 -3.1875 0.75q-1.6875 0.75 -3.015625 1.734375l0 15.671875l2.8125 0.359375l0 2.03125l-9.75 0l0 -2.03125l2.609375 -0.359375l0 -17.359375zm33.879395 20.203125q-2.46875 0 -4.546875 -1.234375q-2.0625 -1.25 -3.28125 -3.8125q-1.21875 -2.5625 -1.21875 -6.3125q0 -3.515625 1.4375 -6.40625q1.453125 -2.890625 4.15625 -4.5625q2.71875 -1.6875 6.390625 -1.6875q2.109375 0 3.84375 0.453125l0 -7.71875l-4.21875 -0.5l0 -1.78125l7.4375 -0.734375l0.125 0l0.921875 0.65625l0 31.078125l2.390625 0l0 1.90625q-1.328125 0.28125 -2.296875 0.4375q-0.96875 0.171875 -2.046875 0.171875q-1.078125 0 -1.53125 -0.375q-0.453125 -0.359375 -0.453125 -1.5625l0 -1.328125q-1.15625 1.40625 -3.03125 2.359375q-1.875 0.953125 -4.078125 0.953125zm1.65625 -2.9375q1.609375 0 3.015625 -0.71875q1.40625 -0.71875 2.109375 -1.671875l0 -15.125q-0.328125 -0.5 -1.546875 -0.890625q-1.21875 -0.390625 -2.578125 -0.390625q-3.234375 0 -5.15625 2.46875q-1.921875 2.453125 -1.921875 7.578125q0 4.453125 1.6875 6.609375q1.703125 2.140625 4.390625 2.140625z" fill-rule="nonzero"/><path fill="#626b73" d="m193.01575 342.86877l125.27524 0l17.307434 17.307434l0 86.535065l-142.58267 0z" fill-rule="evenodd"/><path stroke="#666666" stroke-width="1.0" stroke-linejoin="round" stroke-linecap="butt" d="m193.01575 342.86877l125.27524 0l17.307434 17.307434l0 86.535065l-142.58267 0z" fill-rule="evenodd"/><path fill="#626b73" d="m33.771652 275.40683l125.27525 0l17.307419 17.307434l0 86.535065l-142.58267 0z" fill-rule="evenodd"/><path stroke="#666666" stroke-width="1.0" stroke-linejoin="round" stroke-linecap="butt" d="m33.771652 275.40683l125.27525 0l17.307419 17.307434l0 86.535065l-142.58267 0z" fill-rule="evenodd"/><path fill="#000000" fill-opacity="0.0" d="m205.14961 359.5538l107.68504 0l0 80.47244l-107.68504 0z" fill-rule="evenodd"/><path fill="#000000" d="m221.46211 393.7088l0 6.703125l4.875 0q0.5 0 0.71875 0.203125q0.21875 0.1875 0.21875 0.515625q0 0.296875 -0.21875 0.5q-0.21875 0.203125 -0.71875 0.203125l-8.203125 0q-0.515625 0 -0.734375 -0.203125q-0.21875 -0.203125 -0.21875 -0.5q0 -0.328125 0.21875 -0.515625q0.21875 -0.203125 0.734375 -0.203125l1.90625 0l0 -16.953125l-1.90625 0q-0.515625 0 -0.734375 -0.1875q-0.21875 -0.203125 -0.21875 -0.53125q0 -0.3125 0.21875 -0.5q0.21875 -0.203125 0.734375 -0.203125l8.25 0q2.921875 0 4.78125 1.734375q1.859375 1.71875 1.859375 4.03125q0 1.375 -0.609375 2.484375q-0.59375 1.09375 -1.4375 1.71875q-1.28125 0.9375 -2.625 1.390625q-0.984375 0.3125 -2.4375 0.3125l-4.453125 0zm0 -1.421875l4.53125 0q1.578125 0 2.953125 -0.703125q1.375 -0.703125 2.015625 -1.71875q0.640625 -1.015625 0.640625 -2.0625q0 -1.671875 -1.453125 -3.0q-1.4375 -1.34375 -3.625 -1.34375l-5.0625 0l0 8.828125zm18.31276 8.125l0 -16.953125l-1.203125 0q-0.515625 0 -0.734375 -0.1875q-0.21875 -0.203125 -0.21875 -0.53125q0 -0.3125 0.21875 -0.5q0.21875 -0.203125 0.734375 -0.203125l7.640625 0q1.796875 0 3.28125 0.75q1.484375 0.734375 2.25 1.6875q1.34375 1.609375 2.03125 3.40625q0.5 1.296875 0.5 3.078125l0 1.953125q0 2.1875 -0.96875 4.234375q-0.96875 2.046875 -3.21875 3.578125q-1.671875 1.109375 -3.875 1.109375l-7.640625 0q-0.515625 0 -0.734375 -0.203125q-0.21875 -0.203125 -0.21875 -0.5q0 -0.328125 0.21875 -0.515625q0.21875 -0.203125 0.734375 -0.203125l1.203125 0zm1.421875 0l5.15625 0q1.796875 0 3.359375 -1.15625q1.5625 -1.171875 2.34375 -2.796875q0.796875 -1.640625 0.796875 -3.234375l0 -2.578125q0 -1.3125 -0.421875 -2.34375q-0.609375 -1.515625 -1.734375 -2.859375q-0.609375 -0.75 -1.796875 -1.359375q-1.171875 -0.625 -2.546875 -0.625l-5.15625 0l0 16.953125zm21.51587 -8.140625l0 8.140625l4.875 0q0.515625 0 0.734375 0.203125q0.21875 0.1875 0.21875 0.515625q0 0.296875 -0.21875 0.5q-0.21875 0.203125 -0.734375 0.203125l-8.203125 0q-0.515625 0 -0.734375 -0.203125q-0.21875 -0.203125 -0.21875 -0.5q0 -0.328125 0.21875 -0.515625q0.21875 -0.203125 0.734375 -0.203125l1.90625 0l0 -16.953125l-1.90625 0q-0.515625 0 -0.734375 -0.1875q-0.21875 -0.203125 -0.21875 -0.53125q0 -0.3125 0.25 -0.53125q0.1875 -0.171875 0.703125 -0.171875l15.65625 0l0 4.890625q0 0.5 -0.203125 0.734375q-0.203125 0.21875 -0.515625 0.21875q-0.3125 0 -0.515625 -0.21875q-0.203125 -0.234375 -0.203125 -0.734375l0 -3.46875l-10.890625 0l0 7.390625l5.09375 0l0 -1.609375q0 -0.5 0.203125 -0.71875q0.203125 -0.21875 0.53125 -0.21875q0.296875 0 0.5 0.21875q0.203125 0.21875 0.203125 0.71875l0 4.640625q0 0.5 -0.203125 0.734375q-0.203125 0.21875 -0.5 0.21875q-0.328125 0 -0.53125 -0.21875q-0.203125 -0.234375 -0.203125 -0.734375l0 -1.609375l-5.09375 0zm28.92215 -4.15625q0 -0.5 0.203125 -0.71875q0.203125 -0.21875 0.515625 -0.21875q0.3125 0 0.515625 0.21875q0.203125 0.21875 0.203125 0.75l0 2.4375q0 0.5 -0.203125 0.71875q-0.203125 0.21875 -0.515625 0.21875q-0.296875 0 -0.5 -0.171875q-0.1875 -0.1875 -0.21875 -0.609375q-0.09375 -1.015625 -1.046875 -1.6875q-1.390625 -0.9375 -3.671875 -0.9375q-2.390625 0 -3.703125 0.953125q-1.0 0.734375 -1.0 1.625q0 1.015625 1.1875 1.703125q0.8125 0.46875 3.078125 0.71875q2.953125 0.328125 4.109375 0.734375q1.640625 0.59375 2.4375 1.640625q0.8125 1.046875 0.8125 2.265625q0 1.8125 -1.75 3.234375q-1.734375 1.40625 -5.109375 1.40625q-3.359375 0 -5.515625 -1.71875q0 0.578125 -0.078125 0.75q-0.0625 0.171875 -0.234375 0.296875q-0.171875 0.109375 -0.390625 0.109375q-0.3125 0 -0.515625 -0.21875q-0.203125 -0.21875 -0.203125 -0.734375l0 -2.921875q0 -0.5 0.1875 -0.71875q0.203125 -0.234375 0.53125 -0.234375q0.296875 0 0.5 0.21875q0.21875 0.203125 0.21875 0.5625q0 0.78125 0.390625 1.3125q0.59375 0.8125 1.890625 1.34375q1.296875 0.53125 3.171875 0.53125q2.78125 0 4.125 -1.03125q1.359375 -1.03125 1.359375 -2.1875q0 -1.3125 -1.375 -2.109375q-1.390625 -0.796875 -4.046875 -1.0625q-2.640625 -0.28125 -3.796875 -0.71875q-1.140625 -0.4375 -1.78125 -1.3125q-0.640625 -0.890625 -0.640625 -1.90625q0 -1.828125 1.78125 -2.890625q1.796875 -1.078125 4.296875 -1.078125q2.9375 0 4.78125 1.4375z" fill-rule="nonzero"/><path fill="#000000" fill-opacity="0.0" d="m45.90551 293.57742l107.685036 0l0 78.80316l-107.685036 0z" fill-rule="evenodd"/><path fill="#000000" d="m61.12426 317.24744l-0.890625 0l-3.0 -6.828125l-0.140625 0l0 9.296875l1.4375 0q0.265625 0 0.390625 0.109375q0.125 0.109375 0.125 0.28125q0 0.171875 -0.125 0.28125q-0.125 0.109375 -0.390625 0.109375l-2.875 0q-0.28125 0 -0.40625 -0.109375q-0.125 -0.109375 -0.125 -0.28125q0 -0.171875 0.125 -0.28125q0.125 -0.109375 0.40625 -0.109375l0.65625 0l0 -9.296875l-0.5 0q-0.28125 0 -0.40625 -0.09375q-0.109375 -0.109375 -0.109375 -0.296875q0 -0.171875 0.109375 -0.28125q0.125 -0.109375 0.40625 -0.109375l1.921875 0l2.9375 6.71875l2.90625 -6.71875l1.90625 0q0.296875 0 0.40625 0.109375q0.125 0.109375 0.125 0.28125q0 0.1875 -0.125 0.296875q-0.109375 0.09375 -0.40625 0.09375l-0.46875 0l0 9.296875l0.640625 0q0.296875 0 0.40625 0.109375q0.125 0.109375 0.125 0.28125q0 0.171875 -0.125 0.28125q-0.109375 0.109375 -0.40625 0.109375l-2.859375 0q-0.28125 0 -0.40625 -0.109375q-0.125 -0.109375 -0.125 -0.28125q0 -0.171875 0.109375 -0.28125q0.125 -0.109375 0.421875 -0.109375l1.4375 0l0 -9.296875l-0.171875 0l-2.9375 6.828125zm15.10498 -0.578125l-7.953125 0q0.21875 1.515625 1.28125 2.4375q1.0625 0.921875 2.625 0.921875q0.875 0 1.828125 -0.28125q0.953125 -0.296875 1.5625 -0.765625q0.171875 -0.140625 0.296875 -0.140625q0.15625 0 0.265625 0.125q0.109375 0.109375 0.109375 0.265625q0 0.15625 -0.15625 0.296875q-0.4375 0.46875 -1.578125 0.875q-1.140625 0.40625 -2.328125 0.40625q-2.0 0 -3.34375 -1.3125q-1.34375 -1.3125 -1.34375 -3.1875q0 -1.6875 1.25 -2.90625q1.265625 -1.21875 3.125 -1.21875q1.90625 0 3.140625 1.25q1.234375 1.25 1.21875 3.234375zm-0.796875 -0.796875q-0.234375 -1.28125 -1.21875 -2.09375q-0.984375 -0.8125 -2.34375 -0.8125q-1.375 0 -2.359375 0.8125q-0.96875 0.796875 -1.21875 2.09375l7.140625 0zm10.558105 -2.90625q0 -0.265625 0.109375 -0.375q0.109375 -0.125 0.28125 -0.125q0.171875 0 0.28125 0.125q0.109375 0.109375 0.109375 0.40625l0 1.328125q0 0.28125 -0.109375 0.40625q-0.109375 0.109375 -0.28125 0.109375q-0.171875 0 -0.28125 -0.09375q-0.09375 -0.109375 -0.109375 -0.34375q-0.0625 -0.546875 -0.578125 -0.90625q-0.765625 -0.53125 -2.015625 -0.53125q-1.3125 0 -2.03125 0.53125q-0.546875 0.40625 -0.546875 0.890625q0 0.5625 0.640625 0.9375q0.453125 0.25 1.703125 0.390625q1.609375 0.171875 2.25 0.40625q0.890625 0.328125 1.328125 0.90625q0.453125 0.5625 0.453125 1.234375q0 0.984375 -0.953125 1.765625q-0.953125 0.78125 -2.8125 0.78125q-1.84375 0 -3.015625 -0.9375q0 0.3125 -0.046875 0.40625q-0.03125 0.09375 -0.125 0.15625q-0.09375 0.0625 -0.21875 0.0625q-0.171875 0 -0.28125 -0.109375q-0.109375 -0.125 -0.109375 -0.40625l0 -1.609375q0 -0.28125 0.109375 -0.390625q0.109375 -0.125 0.28125 -0.125q0.171875 0 0.28125 0.125q0.109375 0.109375 0.109375 0.296875q0 0.421875 0.21875 0.71875q0.328125 0.4375 1.03125 0.734375q0.71875 0.296875 1.75 0.296875q1.515625 0 2.25 -0.5625q0.75 -0.578125 0.75 -1.203125q0 -0.71875 -0.75 -1.15625q-0.765625 -0.4375 -2.21875 -0.578125q-1.453125 -0.15625 -2.078125 -0.390625q-0.625 -0.25 -0.984375 -0.734375q-0.359375 -0.484375 -0.359375 -1.03125q0 -1.015625 0.984375 -1.59375q0.984375 -0.59375 2.359375 -0.59375q1.609375 0 2.625 0.78125zm11.401855 0q0 -0.265625 0.109375 -0.375q0.109375 -0.125 0.28125 -0.125q0.171875 0 0.28125 0.125q0.109375 0.109375 0.109375 0.40625l0 1.328125q0 0.28125 -0.109375 0.40625q-0.109375 0.109375 -0.28125 0.109375q-0.171875 0 -0.28125 -0.09375q-0.09375 -0.109375 -0.109375 -0.34375q-0.0625 -0.546875 -0.578125 -0.90625q-0.765625 -0.53125 -2.015625 -0.53125q-1.3125 0 -2.03125 0.53125q-0.546875 0.40625 -0.546875 0.890625q0 0.5625 0.640625 0.9375q0.453125 0.25 1.703125 0.390625q1.609375 0.171875 2.25 0.40625q0.890625 0.328125 1.328125 0.90625q0.453125 0.5625 0.453125 1.234375q0 0.984375 -0.953125 1.765625q-0.953125 0.78125 -2.8125 0.78125q-1.84375 0 -3.015625 -0.9375q0 0.3125 -0.046875 0.40625q-0.03125 0.09375 -0.125 0.15625q-0.09375 0.0625 -0.21875 0.0625q-0.171875 0 -0.28125 -0.109375q-0.109375 -0.125 -0.109375 -0.40625l0 -1.609375q0 -0.28125 0.109375 -0.390625q0.109375 -0.125 0.28125 -0.125q0.171875 0 0.28125 0.125q0.109375 0.109375 0.109375 0.296875q0 0.421875 0.21875 0.71875q0.328125 0.4375 1.03125 0.734375q0.71875 0.296875 1.75 0.296875q1.515625 0 2.25 -0.5625q0.75 -0.578125 0.75 -1.203125q0 -0.71875 -0.75 -1.15625q-0.765625 -0.4375 -2.21875 -0.578125q-1.453125 -0.15625 -2.078125 -0.390625q-0.625 -0.25 -0.984375 -0.734375q-0.359375 -0.484375 -0.359375 -1.03125q0 -1.015625 0.984375 -1.59375q0.984375 -0.59375 2.359375 -0.59375q1.609375 0 2.625 0.78125zm11.058105 7.53125l0 -1.125q-1.6875 1.4375 -3.625 1.4375q-1.40625 0 -2.1875 -0.703125q-0.78125 -0.71875 -0.78125 -1.75q0 -1.140625 1.03125 -1.984375q1.046875 -0.84375 3.03125 -0.84375q0.546875 0 1.171875 0.078125q0.625 0.0625 1.359375 0.21875l0 -1.265625q0 -0.640625 -0.59375 -1.109375q-0.59375 -0.484375 -1.78125 -0.484375q-0.90625 0 -2.546875 0.53125q-0.296875 0.09375 -0.375 0.09375q-0.15625 0 -0.265625 -0.109375q-0.109375 -0.109375 -0.109375 -0.28125q0 -0.15625 0.09375 -0.25q0.140625 -0.140625 1.0625 -0.375q1.4375 -0.390625 2.1875 -0.390625q1.46875 0 2.296875 0.734375q0.828125 0.71875 0.828125 1.640625l0 5.15625l1.03125 0q0.296875 0 0.40625 0.109375q0.125 0.109375 0.125 0.28125q0 0.171875 -0.125 0.28125q-0.109375 0.109375 -0.40625 0.109375l-1.828125 0zm0 -3.875q-0.546875 -0.15625 -1.15625 -0.234375q-0.609375 -0.078125 -1.28125 -0.078125q-1.703125 0 -2.65625 0.734375q-0.734375 0.546875 -0.734375 1.3125q0 0.703125 0.546875 1.1875q0.5625 0.484375 1.625 0.484375q1.0 0 1.859375 -0.40625q0.875 -0.40625 1.796875 -1.28125l0 -1.71875zm11.79248 -2.734375l0 -1.421875l1.828125 0q0.265625 0 0.390625 0.109375q0.125 0.109375 0.125 0.28125q0 0.171875 -0.125 0.28125q-0.125 0.109375 -0.390625 0.109375l-1.0625 0l0 7.78125q0 0.78125 -0.328125 1.40625q-0.21875 0.40625 -0.75 0.828125q-0.515625 0.4375 -0.9375 0.625q-0.421875 0.1875 -1.140625 0.1875l-2.203125 0q-0.28125 0 -0.40625 -0.109375q-0.125 -0.09375 -0.125 -0.28125q0 -0.171875 0.125 -0.28125q0.125 -0.109375 0.40625 -0.109375l2.234375 0q0.6875 0 1.234375 -0.359375q0.546875 -0.34375 0.921875 -1.015625q0.203125 -0.390625 0.203125 -1.0l0 -2.328125q-1.265625 1.71875 -3.234375 1.71875q-1.609375 0 -2.78125 -1.1875q-1.15625 -1.203125 -1.15625 -2.890625q0 -1.671875 1.15625 -2.859375q1.171875 -1.1875 2.78125 -1.1875q1.96875 0 3.234375 1.703125zm0 2.34375q0 -1.359375 -0.953125 -2.3125q-0.9375 -0.953125 -2.25 -0.953125q-1.296875 0 -2.234375 0.953125q-0.9375 0.953125 -0.9375 2.3125q0 1.375 0.9375 2.328125q0.9375 0.953125 2.234375 0.953125q1.3125 0 2.25 -0.953125q0.953125 -0.953125 0.953125 -2.328125zm12.995613 0.4375l-7.9531326 0q0.21875 1.515625 1.28125 2.4375q1.0625 0.921875 2.6250076 0.921875q0.875 0 1.828125 -0.28125q0.953125 -0.296875 1.5625 -0.765625q0.171875 -0.140625 0.296875 -0.140625q0.15625 0 0.265625 0.125q0.109375 0.109375 0.109375 0.265625q0 0.15625 -0.15625 0.296875q-0.4375 0.46875 -1.578125 0.875q-1.140625 0.40625 -2.328125 0.40625q-2.0000076 0 -3.3437576 -1.3125q-1.34375 -1.3125 -1.34375 -3.1875q0 -1.6875 1.25 -2.90625q1.265625 -1.21875 3.1250076 -1.21875q1.90625 0 3.140625 1.25q1.234375 1.25 1.21875 3.234375zm-0.796875 -0.796875q-0.234375 -1.28125 -1.21875 -2.09375q-0.984375 -0.8125 -2.34375 -0.8125q-1.3750076 0 -2.3593826 0.8125q-0.96875 0.796875 -1.21875 2.09375l7.1406326 0z" fill-rule="nonzero"/><path fill="#000000" d="m60.99926 332.8193l0 9.296875l2.015625 0q0.28125 0 0.390625 0.109375q0.125 0.109375 0.125 0.28125q0 0.171875 -0.125 0.28125q-0.109375 0.109375 -0.390625 0.109375l-4.828125 0q-0.28125 0 -0.40625 -0.109375q-0.125 -0.109375 -0.125 -0.28125q0 -0.171875 0.125 -0.28125q0.125 -0.109375 0.40625 -0.109375l2.015625 0l0 -9.296875l-3.1875 0l0 2.703125q0 0.28125 -0.109375 0.40625q-0.109375 0.125 -0.28125 0.125q-0.171875 0 -0.28125 -0.125q-0.109375 -0.125 -0.109375 -0.40625l0 -3.484375l8.734375 0l0 3.484375q0 0.28125 -0.109375 0.40625q-0.109375 0.125 -0.28125 0.125q-0.1875 0 -0.296875 -0.125q-0.09375 -0.125 -0.09375 -0.40625l0 -2.703125l-3.1875 0zm10.07373 2.046875l0 1.96875q1.53125 -1.375 2.28125 -1.765625q0.75 -0.40625 1.390625 -0.40625q0.703125 0 1.296875 0.46875q0.59375 0.46875 0.59375 0.71875q0 0.171875 -0.109375 0.296875q-0.109375 0.109375 -0.296875 0.109375q-0.09375 0 -0.15625 -0.03125q-0.0625 -0.03125 -0.234375 -0.21875q-0.328125 -0.3125 -0.578125 -0.4375q-0.234375 -0.125 -0.46875 -0.125q-0.5 0 -1.21875 0.40625q-0.71875 0.40625 -2.5 2.0l0 4.265625l3.453125 0q0.28125 0 0.40625 0.109375q0.125 0.109375 0.125 0.28125q0 0.171875 -0.125 0.28125q-0.125 0.109375 -0.40625 0.109375l-6.109375 0q-0.28125 0 -0.40625 -0.109375q-0.109375 -0.109375 -0.109375 -0.265625q0 -0.15625 0.109375 -0.265625q0.109375 -0.109375 0.40625 -0.109375l1.875 0l0 -6.5l-1.4375 0q-0.28125 0 -0.40625 -0.109375q-0.109375 -0.109375 -0.109375 -0.28125q0 -0.171875 0.109375 -0.28125q0.125 -0.109375 0.40625 -0.109375l2.21875 0zm14.57373 8.03125l0 -1.125q-1.6875 1.4375 -3.625 1.4375q-1.40625 0 -2.1875 -0.703125q-0.78125 -0.71875 -0.78125 -1.75q0 -1.140625 1.03125 -1.984375q1.046875 -0.84375 3.03125 -0.84375q0.546875 0 1.171875 0.078125q0.625 0.0625 1.359375 0.21875l0 -1.265625q0 -0.640625 -0.59375 -1.109375q-0.59375 -0.484375 -1.78125 -0.484375q-0.90625 0 -2.546875 0.53125q-0.296875 0.09375 -0.375 0.09375q-0.15625 0 -0.265625 -0.109375q-0.109375 -0.109375 -0.109375 -0.28125q0 -0.15625 0.09375 -0.25q0.140625 -0.140625 1.0625 -0.375q1.4375 -0.390625 2.1875 -0.390625q1.46875 0 2.296875 0.734375q0.828125 0.71875 0.828125 1.640625l0 5.15625l1.03125 0q0.296875 0 0.40625 0.109375q0.125 0.109375 0.125 0.28125q0 0.171875 -0.125 0.28125q-0.109375 0.109375 -0.40625 0.109375l-1.828125 0zm0 -3.875q-0.546875 -0.15625 -1.15625 -0.234375q-0.609375 -0.078125 -1.28125 -0.078125q-1.703125 0 -2.65625 0.734375q-0.734375 0.546875 -0.734375 1.3125q0 0.703125 0.546875 1.1875q0.5625 0.484375 1.625 0.484375q1.0 0 1.859375 -0.40625q0.875 -0.40625 1.796875 -1.28125l0 -1.71875zm8.651855 -3.375l0 6.46875l3.421875 0q0.28125 0 0.390625 0.109375q0.125 0.109375 0.125 0.28125q0 0.171875 -0.125 0.28125q-0.109375 0.109375 -0.390625 0.109375l-6.09375 0q-0.28125 0 -0.40625 -0.109375q-0.109375 -0.109375 -0.109375 -0.28125q0 -0.171875 0.109375 -0.28125q0.125 -0.109375 0.40625 -0.109375l1.875 0l0 -6.46875l-1.6875 0q-0.265625 0 -0.390625 -0.109375q-0.125 -0.109375 -0.125 -0.28125q0 -0.171875 0.125 -0.28125q0.125 -0.109375 0.390625 -0.109375l1.6875 0l0 -1.1875q0 -0.984375 0.796875 -1.703125q0.8125 -0.71875 2.125 -0.71875q1.109375 0 2.359375 0.203125q0.46875 0.078125 0.5625 0.1875q0.09375 0.09375 0.09375 0.25q0 0.171875 -0.109375 0.28125q-0.109375 0.109375 -0.296875 0.109375q-0.0625 0 -0.25 -0.03125q-1.390625 -0.21875 -2.359375 -0.21875q-1.015625 0 -1.578125 0.5q-0.546875 0.5 -0.546875 1.140625l0 1.1875l3.640625 0q0.28125 0 0.40625 0.109375q0.125 0.109375 0.125 0.28125q0 0.171875 -0.125 0.28125q-0.125 0.109375 -0.40625 0.109375l-3.640625 0zm11.401855 0l0 6.46875l3.421875 0q0.28125 0 0.390625 0.109375q0.125 0.109375 0.125 0.28125q0 0.171875 -0.125 0.28125q-0.109375 0.109375 -0.390625 0.109375l-6.09375 0q-0.28125 0 -0.40625 -0.109375q-0.109375 -0.109375 -0.109375 -0.28125q0 -0.171875 0.109375 -0.28125q0.125 -0.109375 0.40625 -0.109375l1.875 0l0 -6.46875l-1.6875 0q-0.265625 0 -0.390625 -0.109375q-0.125 -0.109375 -0.125 -0.28125q0 -0.171875 0.125 -0.28125q0.125 -0.109375 0.390625 -0.109375l1.6875 0l0 -1.1875q0 -0.984375 0.796875 -1.703125q0.8125 -0.71875 2.125 -0.71875q1.109375 0 2.359375 0.203125q0.46875 0.078125 0.5625 0.1875q0.09375 0.09375 0.09375 0.25q0 0.171875 -0.109375 0.28125q-0.109375 0.109375 -0.296875 0.109375q-0.0625 0 -0.25 -0.03125q-1.390625 -0.21875 -2.359375 -0.21875q-1.015625 0 -1.578125 0.5q-0.546875 0.5 -0.546875 1.140625l0 1.1875l3.640625 0q0.28125 0 0.40625 0.109375q0.125 0.109375 0.125 0.28125q0 0.171875 -0.125 0.28125q-0.125 0.109375 -0.40625 0.109375l-3.640625 0zm12.308105 -4.78125l0 2.015625l-1.15625 0l0 -2.015625l1.15625 0zm0.015625 4.0l0 7.25l3.0625 0q0.296875 0 0.40625 0.109375q0.125 0.109375 0.125 0.28125q0 0.171875 -0.125 0.28125q-0.109375 0.109375 -0.40625 0.109375l-6.90625 0q-0.265625 0 -0.390625 -0.109375q-0.125 -0.109375 -0.125 -0.28125q0 -0.171875 0.125 -0.28125q0.125 -0.109375 0.390625 -0.109375l3.0625 0l0 -6.46875l-2.265625 0q-0.28125 0 -0.40625 -0.109375q-0.125 -0.109375 -0.125 -0.28125q0 -0.171875 0.125 -0.28125q0.125 -0.109375 0.40625 -0.109375l3.046875 0zm14.245613 0.78125l0 -0.25q0 -0.296875 0.109375 -0.40625q0.109375 -0.125 0.28125 -0.125q0.171875 0 0.28125 0.125q0.109375 0.109375 0.109375 0.40625l0 1.75q0 0.296875 -0.109375 0.421875q-0.109375 0.109375 -0.28125 0.109375q-0.15625 0 -0.265625 -0.09375q-0.109375 -0.109375 -0.125 -0.359375q-0.0625 -0.671875 -0.875 -1.265625q-0.796875 -0.59375 -2.171875 -0.59375q-1.7343826 0 -2.6406326 1.09375q-0.90625 1.078125 -0.90625 2.484375q0 1.515625 0.984375 2.5q1.0 0.984375 2.5781326 0.984375q0.921875 0 1.859375 -0.328125q0.9375 -0.34375 1.703125 -1.09375q0.1875 -0.171875 0.34375 -0.171875q0.15625 0 0.265625 0.109375q0.109375 0.09375 0.109375 0.25q0 0.40625 -0.9375 1.015625q-1.515625 1.0 -3.375 1.0q-1.8750076 0 -3.0937576 -1.203125q-1.203125 -1.203125 -1.203125 -3.046875q0 -1.890625 1.234375 -3.125q1.234375 -1.25 3.1250076 -1.25q1.78125 0 3.0 1.0625z" fill-rule="nonzero"/><path fill="#626b73" d="m33.771652 395.95276l125.27525 0l17.307419 17.307434l0 86.535095l-142.58267 0z" fill-rule="evenodd"/><path stroke="#666666" stroke-width="1.0" stroke-linejoin="round" stroke-linecap="butt" d="m33.771652 395.95276l125.27525 0l17.307419 17.307434l0 86.535095l-142.58267 0z" fill-rule="evenodd"/><path fill="#000000" fill-opacity="0.0" d="m50.45669 408.85828l107.68504 0l0 78.80313l-107.68504 0z" fill-rule="evenodd"/><path fill="#000000" d="m70.44107 433.88513l0 3.6875q-0.984375 0.546875 -1.96875 0.828125q-0.96875 0.28125 -1.953125 0.28125q-1.375 0 -2.4375 -0.40625q-1.0468788 -0.421875 -1.7812538 -1.15625q-0.71875 -0.734375 -1.125 -1.640625q-0.40625 -0.921875 -0.40625 -2.328125l0 -1.578125q0 -1.421875 0.703125 -2.75q0.703125 -1.34375 1.921875 -2.046875q1.2187538 -0.71875 2.6562538 -0.71875q2.078125 0 3.515625 1.140625q0 -0.5 0.03125 -0.59375q0.046875 -0.109375 0.15625 -0.1875q0.109375 -0.078125 0.25 -0.078125q0.1875 0 0.3125 0.140625q0.125 0.125 0.125 0.4375l0 1.953125q0 0.3125 -0.125 0.4375q-0.125 0.125 -0.3125 0.125q-0.171875 0 -0.296875 -0.109375q-0.109375 -0.125 -0.125 -0.421875q-0.0625 -0.875 -1.140625 -1.421875q-1.0625 -0.546875 -2.3125 -0.546875q-1.203125 0 -2.1562538 0.515625q-0.953125 0.515625 -1.78125 1.96875q-0.5625 0.953125 -0.5625 2.171875l0 1.5625q0 2.140625 1.3125 3.40625q1.3125038 1.265625 3.6250038 1.265625q0.78125 0 1.4375 -0.15625q0.671875 -0.171875 1.5625 -0.59375l0 -3.1875l-2.96875 0q-0.296875 0 -0.4375 -0.109375q-0.125 -0.125 -0.125 -0.3125q0 -0.203125 0.125 -0.328125q0.140625 -0.125 0.4375 -0.125l4.15625 0.015625q0.296875 0 0.421875 0.125q0.140625 0.109375 0.140625 0.3125q0 0.125 -0.078125 0.25q-0.078125 0.109375 -0.1875 0.140625q-0.09375 0.03125 -0.609375 0.03125zm12.727051 0.03125q0 1.96875 -1.40625 3.375q-1.40625 1.390625 -3.390625 1.390625q-2.015625 0 -3.421875 -1.40625q-1.40625 -1.40625 -1.40625 -3.359375q0 -1.96875 1.40625 -3.359375q1.40625 -1.40625 3.421875 -1.40625q1.984375 0 3.390625 1.390625q1.40625 1.390625 1.40625 3.375zm-0.859375 0q0 -1.625 -1.15625 -2.75q-1.15625 -1.140625 -2.796875 -1.140625q-1.640625 0 -2.796875 1.140625q-1.15625 1.140625 -1.15625 2.75q0 1.609375 1.15625 2.765625q1.15625 1.140625 2.796875 1.140625q1.640625 0 2.796875 -1.140625q1.15625 -1.15625 1.15625 -2.765625zm13.461426 0q0 1.96875 -1.40625 3.375q-1.40625 1.390625 -3.390625 1.390625q-2.015625 0 -3.421875 -1.40625q-1.40625 -1.40625 -1.40625 -3.359375q0 -1.96875 1.40625 -3.359375q1.40625 -1.40625 3.421875 -1.40625q1.984375 0 3.390625 1.390625q1.40625 1.390625 1.40625 3.375zm-0.859375 0q0 -1.625 -1.15625 -2.75q-1.15625 -1.140625 -2.796875 -1.140625q-1.640625 0 -2.796875 1.140625q-1.15625 1.140625 -1.15625 2.75q0 1.609375 1.15625 2.765625q1.15625 1.140625 2.796875 1.140625q1.640625 0 2.796875 -1.140625q1.15625 -1.15625 1.15625 -2.765625zm11.555176 -2.875l0 -1.578125l2.015625 0q0.3125 0 0.4375 0.125q0.140625 0.109375 0.140625 0.3125q0 0.1875 -0.140625 0.3125q-0.125 0.109375 -0.4375 0.109375l-1.15625 0l0 8.609375q0 0.859375 -0.375 1.546875q-0.25 0.4375 -0.828125 0.921875q-0.5625 0.484375 -1.03125 0.6875q-0.46875 0.203125 -1.265625 0.203125l-2.4375 0q-0.3125 0 -0.453125 -0.125q-0.125 -0.109375 -0.125 -0.296875q0 -0.203125 0.125 -0.328125q0.140625 -0.109375 0.453125 -0.109375l2.46875 0q0.765625 0 1.375 -0.390625q0.609375 -0.390625 1.0 -1.140625q0.234375 -0.421875 0.234375 -1.09375l0 -2.578125q-1.390625 1.890625 -3.578125 1.890625q-1.765625 0 -3.0625 -1.3125q-1.28125 -1.3125 -1.28125 -3.171875q0 -1.859375 1.28125 -3.171875q1.296875 -1.3125 3.0625 -1.3125q2.1875 0 3.578125 1.890625zm0 2.59375q0 -1.515625 -1.046875 -2.5625q-1.046875 -1.046875 -2.484375 -1.046875q-1.453125 0 -2.484375 1.046875q-1.03125 1.046875 -1.03125 2.5625q0 1.515625 1.03125 2.5625q1.03125 1.046875 2.484375 1.046875q1.4375 0 2.484375 -1.046875q1.046875 -1.046875 1.046875 -2.5625zm10.133301 -8.171875l0 12.015625l3.390625 0q0.3125 0 0.4375 0.125q0.140625 0.109375 0.140625 0.296875q0 0.1875 -0.140625 0.3125q-0.125 0.125 -0.4375 0.125l-7.640625 0q-0.296875 0 -0.4375 -0.125q-0.125 -0.125 -0.125 -0.3125q0 -0.1875 0.125 -0.296875q0.140625 -0.125 0.4375 -0.125l3.390625 0l0 -11.140625l-2.484375 0q-0.296875 0 -0.4375 -0.125q-0.140625 -0.125 -0.140625 -0.3125q0 -0.1875 0.125 -0.3125q0.140625 -0.125 0.453125 -0.125l3.34375 0zm16.836426 8.640625l-8.78125 0q0.21875 1.671875 1.390625 2.703125q1.1875 1.015625 2.90625 1.015625q0.96875 0 2.015625 -0.3125q1.0625 -0.328125 1.734375 -0.859375q0.1875 -0.140625 0.34375 -0.140625q0.15625 0 0.28125 0.125q0.125 0.125 0.125 0.296875q0 0.171875 -0.171875 0.34375q-0.484375 0.515625 -1.75 0.96875q-1.25 0.4375 -2.578125 0.4375q-2.203125 0 -3.6875 -1.453125q-1.484375 -1.453125 -1.484375 -3.515625q0 -1.875 1.390625 -3.21875q1.390625 -1.34375 3.4375 -1.34375q2.109375 0 3.46875 1.390625q1.375 1.375 1.359375 3.5625zm-0.875 -0.875q-0.265625 -1.421875 -1.359375 -2.3125q-1.078125 -0.890625 -2.59375 -0.890625q-1.5 0 -2.59375 0.890625q-1.078125 0.875 -1.359375 2.3125l7.90625 0z" fill-rule="nonzero"/><path fill="#000000" d="m62.378567 463.0789l0 -10.28125l-0.734375 0q-0.296875 0 -0.4375 -0.109375q-0.125 -0.125 -0.125 -0.3125q0 -0.203125 0.125 -0.3125q0.140625 -0.125 0.4375 -0.125l4.640629 0q1.09375 0 1.984375 0.453125q0.890625 0.453125 1.375 1.03125q0.8125 0.96875 1.21875 2.0625q0.296875 0.78125 0.296875 1.859375l0 1.1875q0 1.328125 -0.578125 2.578125q-0.578125 1.234375 -1.953125 2.15625q-1.015625 0.671875 -2.34375 0.671875l-4.640629 0q-0.296875 0 -0.4375 -0.125q-0.125 -0.125 -0.125 -0.3125q0 -0.1875 0.125 -0.296875q0.140625 -0.125 0.4375 -0.125l0.734375 0zm0.859375 0l3.1250038 0q1.09375 0 2.03125 -0.703125q0.953125 -0.71875 1.421875 -1.703125q0.484375 -0.984375 0.484375 -1.953125l0 -1.5625q0 -0.796875 -0.25 -1.421875q-0.375 -0.90625 -1.046875 -1.734375q-0.375 -0.453125 -1.09375 -0.828125q-0.71875 -0.375 -1.546875 -0.375l-3.1250038 0l0 10.28125zm14.08643 -8.015625l0 2.171875q1.6875 -1.515625 2.515625 -1.953125q0.84375 -0.4375 1.546875 -0.4375q0.765625 0 1.421875 0.515625q0.671875 0.515625 0.671875 0.78125q0 0.203125 -0.125 0.328125q-0.125 0.125 -0.328125 0.125q-0.09375 0 -0.171875 -0.03125q-0.078125 -0.03125 -0.265625 -0.234375q-0.359375 -0.359375 -0.625 -0.484375q-0.265625 -0.140625 -0.53125 -0.140625q-0.5625 0 -1.359375 0.453125q-0.78125 0.453125 -2.75 2.203125l0 4.71875l3.8125 0q0.328125 0 0.453125 0.125q0.140625 0.109375 0.140625 0.296875q0 0.1875 -0.140625 0.3125q-0.125 0.125 -0.453125 0.125l-6.75 0q-0.3125 0 -0.453125 -0.109375q-0.125 -0.125 -0.125 -0.3125q0 -0.171875 0.125 -0.28125q0.140625 -0.125 0.453125 -0.125l2.078125 0l0 -7.1875l-1.59375 0q-0.296875 0 -0.4375 -0.109375q-0.125 -0.125 -0.125 -0.328125q0 -0.1875 0.125 -0.296875q0.125 -0.125 0.4375 -0.125l2.453125 0zm14.070801 -4.421875l0 2.21875l-1.28125 0l0 -2.21875l1.28125 0zm0.015625 4.421875l0 8.015625l3.390625 0q0.3125 0 0.4375 0.125q0.140625 0.109375 0.140625 0.296875q0 0.1875 -0.140625 0.3125q-0.125 0.125 -0.4375 0.125l-7.625 0q-0.3125 0 -0.453125 -0.125q-0.125 -0.125 -0.125 -0.3125q0 -0.1875 0.125 -0.296875q0.140625 -0.125 0.453125 -0.125l3.375 0l0 -7.15625l-2.5 0q-0.3125 0 -0.453125 -0.109375q-0.140625 -0.125 -0.140625 -0.3125q0 -0.203125 0.125 -0.3125q0.140625 -0.125 0.46875 -0.125l3.359375 0zm12.914551 8.875l-1.46875 0l-3.53125 -8.015625l-0.890625 0q-0.296875 0 -0.4375 -0.109375q-0.125 -0.125 -0.125 -0.328125q0 -0.1875 0.125 -0.296875q0.140625 -0.125 0.4375 -0.125l3.234375 0q0.3125 0 0.4375 0.125q0.140625 0.109375 0.140625 0.3125q0 0.1875 -0.140625 0.3125q-0.125 0.109375 -0.4375 0.109375l-1.421875 0l3.15625 7.15625l0.375 0l3.109375 -7.15625l-1.4375 0q-0.3125 0 -0.453125 -0.109375q-0.125 -0.125 -0.125 -0.328125q0 -0.1875 0.125 -0.296875q0.140625 -0.125 0.453125 -0.125l3.234375 0q0.3125 0 0.4375 0.125q0.140625 0.109375 0.140625 0.3125q0 0.1875 -0.140625 0.3125q-0.125 0.109375 -0.4375 0.109375l-0.875 0l-3.484375 8.015625zm16.5083 -4.234375l-8.78125 0q0.21875 1.671875 1.390625 2.703125q1.1875 1.015625 2.90625 1.015625q0.96875 0 2.015625 -0.3125q1.0625 -0.328125 1.734375 -0.859375q0.1875 -0.140625 0.34375 -0.140625q0.15625 0 0.28125 0.125q0.125 0.125 0.125 0.296875q0 0.171875 -0.171875 0.34375q-0.484375 0.515625 -1.75 0.96875q-1.25 0.4375 -2.578125 0.4375q-2.203125 0 -3.6875 -1.453125q-1.484375 -1.453125 -1.484375 -3.515625q0 -1.875 1.390625 -3.21875q1.390625 -1.34375 3.4375 -1.34375q2.109375 0 3.46875 1.390625q1.375 1.375 1.359375 3.5625zm-0.875 -0.875q-0.265625 -1.421875 -1.359375 -2.3125q-1.078125 -0.890625 -2.59375 -0.890625q-1.5 0 -2.59375 0.890625q-1.078125 0.875 -1.359375 2.3125l7.90625 0zm11.648926 -3.203125q0 -0.296875 0.125 -0.421875q0.125 -0.140625 0.3125 -0.140625q0.1875 0 0.3125 0.140625q0.125 0.125 0.125 0.4375l0 1.484375q0 0.296875 -0.125 0.4375q-0.125 0.125 -0.3125 0.125q-0.171875 0 -0.296875 -0.109375q-0.109375 -0.109375 -0.140625 -0.375q-0.0625 -0.609375 -0.625 -1.0q-0.84375 -0.578125 -2.234375 -0.578125q-1.4375 0 -2.234375 0.578125q-0.609375 0.4375 -0.609375 0.984375q0 0.625 0.71875 1.03125q0.484375 0.28125 1.859375 0.4375q1.796875 0.1875 2.5 0.4375q0.984375 0.359375 1.46875 1.0q0.5 0.640625 0.5 1.375q0 1.09375 -1.0625 1.953125q-1.046875 0.859375 -3.09375 0.859375q-2.046875 0 -3.34375 -1.046875q0 0.359375 -0.046875 0.46875q-0.03125 0.09375 -0.140625 0.171875q-0.109375 0.0625 -0.25 0.0625q-0.171875 0 -0.296875 -0.125q-0.125 -0.140625 -0.125 -0.453125l0 -1.765625q0 -0.3125 0.109375 -0.4375q0.125 -0.140625 0.3125 -0.140625q0.1875 0 0.3125 0.125q0.140625 0.125 0.140625 0.34375q0 0.46875 0.234375 0.796875q0.359375 0.484375 1.140625 0.8125q0.78125 0.328125 1.921875 0.328125q1.6875 0 2.5 -0.625q0.828125 -0.640625 0.828125 -1.328125q0 -0.796875 -0.84375 -1.28125q-0.828125 -0.484375 -2.4375 -0.640625q-1.609375 -0.171875 -2.3125 -0.4375q-0.6875 -0.265625 -1.078125 -0.796875q-0.390625 -0.53125 -0.390625 -1.15625q0 -1.109375 1.078125 -1.75q1.09375 -0.65625 2.609375 -0.65625q1.78125 0 2.890625 0.875z" fill-rule="nonzero"/><path fill="#000000" fill-opacity="0.0" d="m58.73491 194.78477l211.62206 0l0 71.37007l-211.62206 0z" fill-rule="evenodd"/><path stroke="#31394d" stroke-width="1.0" stroke-linejoin="round" stroke-linecap="butt" d="m58.73491 194.78477l211.62206 0l0 71.37007l-211.62206 0z" fill-rule="evenodd"/><path fill="#666666" d="m71.98491 207.7554l-2.515625 0.078125l-0.515625 3.0625l-0.96875 0l0.25 -3.921875l9.125 0l0.1875 3.921875l-0.9375 0l-0.484375 -3.0625l-2.53125 -0.078125l0 9.25l2.078125 0.140625l0 0.71875l-5.59375 0l0 -0.71875l1.90625 -0.140625l0 -9.25zm6.579666 9.390625l1.09375 -0.09375l0 -6.1875l-1.046875 -0.265625l0 -0.796875l2.015625 -0.265625l0.03125 0l0.328125 0.265625l0 0.265625l-0.046875 1.140625l0.046875 0q0.140625 -0.25 0.515625 -0.640625q0.390625 -0.390625 0.984375 -0.71875q0.609375 -0.34375 1.3125 -0.34375q0.296875 0 0.484375 0.078125l0 1.640625q-0.109375 -0.078125 -0.34375 -0.140625q-0.21875 -0.0625 -0.5 -0.0625q-1.203125 0 -2.25 0.75l0 5.265625l1.859375 0.125l0 0.703125l-4.484375 0l0 -0.71875zm6.6813354 -1.484375q0 -1.375 1.375 -2.015625q1.390625 -0.65625 3.5 -0.703125l0 -0.40625q0 -0.703125 -0.15625 -1.09375q-0.140625 -0.390625 -0.5 -0.578125q-0.359375 -0.1875 -1.015625 -0.1875q-0.75 0 -1.34375 0.21875q-0.59375 0.21875 -1.1875 0.515625l-0.359375 -0.75q0.1875 -0.171875 0.703125 -0.4375q0.515625 -0.265625 1.1875 -0.46875q0.671875 -0.203125 1.34375 -0.203125q1.046875 0 1.65625 0.296875q0.609375 0.28125 0.859375 0.90625q0.265625 0.625 0.265625 1.6875l0 4.703125l0.875 0l0 0.640625q-0.296875 0.078125 -0.75 0.140625q-0.4375 0.078125 -0.78125 0.078125q-0.40625 0 -0.5625 -0.125q-0.140625 -0.125 -0.140625 -0.546875l0 -0.484375q-0.4375 0.4375 -1.078125 0.8125q-0.640625 0.359375 -1.4375 0.359375q-1.0625 0 -1.765625 -0.609375q-0.6875 -0.609375 -0.6875 -1.75zm3.078125 1.375q0.390625 0 0.875 -0.234375q0.5 -0.234375 0.921875 -0.5625l0 -2.515625q-1.609375 0 -2.421875 0.484375q-0.8125 0.484375 -0.8125 1.28125q0 0.796875 0.390625 1.171875q0.390625 0.375 1.046875 0.375zm6.878433 -8.765625q-0.46875 0 -0.703125 -0.265625q-0.234375 -0.265625 -0.234375 -0.671875q0 -0.46875 0.28125 -0.78125q0.28125 -0.3125 0.78125 -0.3125q0.5 0 0.734375 0.265625q0.234375 0.265625 0.234375 0.671875q0 0.5 -0.28125 0.796875q-0.28125 0.296875 -0.796875 0.296875l-0.015625 0zm-0.59375 2.59375l-1.109375 -0.265625l0 -0.78125l2.265625 -0.28125l0.03125 0l0.34375 0.265625l0 7.234375l1.171875 0.109375l0 0.71875l-3.890625 0l0 -0.71875l1.1875 -0.125l0 -6.15625zm4.614929 0l-1.046875 -0.265625l0 -0.796875l2.09375 -0.265625l0.046875 0l0.3125 0.265625l0 0.609375l-0.015625 0.359375q0.515625 -0.46875 1.375 -0.84375q0.875 -0.390625 1.671875 -0.390625q0.921875 0 1.421875 0.359375q0.515625 0.34375 0.71875 1.078125q0.203125 0.71875 0.203125 1.953125l0 4.109375l1.03125 0.09375l0 0.734375l-3.484375 0l0 -0.71875l0.90625 -0.109375l0 -4.125q0 -0.859375 -0.125 -1.34375q-0.109375 -0.5 -0.4375 -0.734375q-0.3125 -0.25 -0.921875 -0.25q-0.53125 0 -1.140625 0.265625q-0.59375 0.265625 -1.0625 0.609375l0 5.5625l1.0 0.125l0 0.71875l-3.46875 0l0 -0.71875l0.921875 -0.125l0 -6.15625zm10.591156 -2.59375q-0.46875 0 -0.703125 -0.265625q-0.234375 -0.265625 -0.234375 -0.671875q0 -0.46875 0.28125 -0.78125q0.28125 -0.3125 0.78125 -0.3125q0.5 0 0.734375 0.265625q0.234375 0.265625 0.234375 0.671875q0 0.5 -0.28125 0.796875q-0.28125 0.296875 -0.796875 0.296875l-0.015625 0zm-0.59375 2.59375l-1.109375 -0.265625l0 -0.78125l2.265625 -0.28125l0.03125 0l0.34375 0.265625l0 7.234375l1.171875 0.109375l0 0.71875l-3.890625 0l0 -0.71875l1.1875 -0.125l0 -6.15625zm4.614929 0l-1.046875 -0.265625l0 -0.796875l2.09375 -0.265625l0.046875 0l0.3125 0.265625l0 0.609375l-0.015625 0.359375q0.515625 -0.46875 1.375 -0.84375q0.875 -0.390625 1.671875 -0.390625q0.921875 0 1.421875 0.359375q0.515625 0.34375 0.71875 1.078125q0.203125 0.71875 0.203125 1.953125l0 4.109375l1.03125 0.09375l0 0.734375l-3.484375 0l0 -0.71875l0.90625 -0.109375l0 -4.125q0 -0.859375 -0.125 -1.34375q-0.109375 -0.5 -0.4375 -0.734375q-0.3125 -0.25 -0.921875 -0.25q-0.53125 0 -1.140625 0.265625q-0.59375 0.265625 -1.0625 0.609375l0 5.5625l1.0 0.125l0 0.71875l-3.46875 0l0 -0.71875l0.921875 -0.125l0 -6.15625zm12.356781 10.953125q-1.875 0 -2.71875 -0.59375q-0.84375 -0.59375 -0.84375 -1.625q0 -0.65625 0.40625 -1.203125q0.40625 -0.53125 0.96875 -0.8125q-0.671875 -0.375 -0.671875 -1.234375q0 -0.515625 0.296875 -0.984375q0.3125 -0.46875 0.8125 -0.71875q-0.734375 -0.328125 -1.125 -0.921875q-0.390625 -0.609375 -0.390625 -1.421875q0 -0.859375 0.46875 -1.484375q0.484375 -0.640625 1.265625 -0.96875q0.796875 -0.34375 1.671875 -0.34375q1.484375 0 2.3125 0.625q0.21875 -0.21875 0.671875 -0.421875q0.453125 -0.21875 0.96875 -0.21875l0.5 0l0 1.296875l-1.609375 0q0.34375 0.546875 0.34375 1.265625q0 0.859375 -0.4375 1.53125q-0.421875 0.65625 -1.203125 1.03125q-0.765625 0.359375 -1.71875 0.359375q-0.640625 0 -1.140625 -0.125q-0.203125 0.203125 -0.34375 0.453125q-0.125 0.25 -0.125 0.484375q0 0.53125 0.34375 0.734375q0.359375 0.1875 1.28125 0.1875l1.65625 0q1.40625 0 2.09375 0.546875q0.703125 0.53125 0.703125 1.53125q0 0.84375 -0.609375 1.53125q-0.59375 0.703125 -1.625 1.09375q-1.015625 0.40625 -2.203125 0.40625zm0.109375 -7.640625q1.671875 0 1.671875 -1.984375q0 -0.984375 -0.4375 -1.4375q-0.421875 -0.46875 -1.296875 -0.46875q-0.796875 0 -1.265625 0.453125q-0.46875 0.4375 -0.46875 1.421875q0 0.921875 0.4375 1.46875q0.453125 0.546875 1.359375 0.546875zm0.03125 6.796875q0.71875 0 1.34375 -0.21875q0.640625 -0.203125 1.03125 -0.625q0.40625 -0.421875 0.40625 -0.96875q0 -0.671875 -0.359375 -0.96875q-0.34375 -0.296875 -1.359375 -0.296875l-1.71875 0q-0.59375 0 -0.921875 -0.078125q-0.609375 0.65625 -0.609375 1.484375q0 0.8125 0.5 1.234375q0.5 0.4375 1.6875 0.4375zm9.963669 -13.09375l-1.140625 -0.171875l0 -0.734375l1.921875 0q0.453125 0 1.296875 -0.0625q0.859375 -0.046875 1.28125 -0.046875q2.71875 0 4.046875 1.375q1.328125 1.359375 1.328125 3.828125q0 1.734375 -0.6875 3.078125q-0.671875 1.34375 -1.90625 2.09375q-1.234375 0.75 -2.828125 0.75q-0.359375 0 -1.203125 -0.0625q-0.875 -0.0625 -1.3125 -0.0625l-2.015625 0l0 -0.71875l1.21875 -0.140625l0 -9.125zm1.546875 9.15625q0.515625 0.125 1.328125 0.125l0.4375 0q1.09375 -0.015625 1.9375 -0.546875q0.84375 -0.546875 1.3125 -1.625q0.46875 -1.078125 0.46875 -2.625q0 -2.3125 -1.0 -3.515625q-1.0 -1.203125 -3.03125 -1.203125q-0.421875 0 -1.0 0.0625q-0.25 0.046875 -0.453125 0.046875l0 9.28125zm8.328232 -1.375q0 -1.375 1.375 -2.015625q1.390625 -0.65625 3.5 -0.703125l0 -0.40625q0 -0.703125 -0.15625 -1.09375q-0.140625 -0.390625 -0.5 -0.578125q-0.359375 -0.1875 -1.015625 -0.1875q-0.75 0 -1.34375 0.21875q-0.59375 0.21875 -1.1875 0.515625l-0.359375 -0.75q0.1875 -0.171875 0.703125 -0.4375q0.515625 -0.265625 1.1875 -0.46875q0.671875 -0.203125 1.34375 -0.203125q1.046875 0 1.65625 0.296875q0.609375 0.28125 0.859375 0.90625q0.265625 0.625 0.265625 1.6875l0 4.703125l0.875 0l0 0.640625q-0.296875 0.078125 -0.75 0.140625q-0.4375 0.078125 -0.78125 0.078125q-0.40625 0 -0.5625 -0.125q-0.140625 -0.125 -0.140625 -0.546875l0 -0.484375q-0.4375 0.4375 -1.078125 0.8125q-0.640625 0.359375 -1.4375 0.359375q-1.0625 0 -1.765625 -0.609375q-0.6875 -0.609375 -0.6875 -1.75zm3.078125 1.375q0.390625 0 0.875 -0.234375q0.5 -0.234375 0.921875 -0.5625l0 -2.515625q-1.609375 0 -2.421875 0.484375q-0.8125 0.484375 -0.8125 1.28125q0 0.796875 0.390625 1.171875q0.390625 0.375 1.046875 0.375zm7.659683 0.96875q-0.84375 0 -1.25 -0.375q-0.40625 -0.375 -0.40625 -1.296875l0 -5.640625l-1.0625 0l0 -0.65625q0.078125 -0.015625 0.40625 -0.09375q0.34375 -0.09375 0.453125 -0.171875q0.234375 -0.125 0.375 -0.53125q0.109375 -0.265625 0.265625 -0.875q0.171875 -0.625 0.203125 -0.75l0.859375 0l0.03125 2.109375l2.453125 0l0 0.96875l-2.453125 0l0 4.5q0 0.84375 0.046875 1.1875q0.0625 0.328125 0.21875 0.4375q0.171875 0.09375 0.59375 0.09375q0.390625 0 0.859375 -0.09375q0.484375 -0.109375 0.75 -0.234375l0.21875 0.671875q-0.359375 0.25 -1.140625 0.5q-0.78125 0.25 -1.421875 0.25zm3.4494934 -2.34375q0 -1.375 1.375 -2.015625q1.390625 -0.65625 3.5 -0.703125l0 -0.40625q0 -0.703125 -0.15625 -1.09375q-0.140625 -0.390625 -0.5 -0.578125q-0.359375 -0.1875 -1.015625 -0.1875q-0.75 0 -1.34375 0.21875q-0.59375 0.21875 -1.1875 0.515625l-0.359375 -0.75q0.1875 -0.171875 0.703125 -0.4375q0.515625 -0.265625 1.1875 -0.46875q0.671875 -0.203125 1.34375 -0.203125q1.046875 0 1.65625 0.296875q0.609375 0.28125 0.859375 0.90625q0.265625 0.625 0.265625 1.6875l0 4.703125l0.875 0l0 0.640625q-0.296875 0.078125 -0.75 0.140625q-0.4375 0.078125 -0.78125 0.078125q-0.40625 0 -0.5625 -0.125q-0.140625 -0.125 -0.140625 -0.546875l0 -0.484375q-0.4375 0.4375 -1.078125 0.8125q-0.640625 0.359375 -1.4375 0.359375q-1.0625 0 -1.765625 -0.609375q-0.6875 -0.609375 -0.6875 -1.75zm3.078125 1.375q0.390625 0 0.875 -0.234375q0.5 -0.234375 0.921875 -0.5625l0 -2.515625q-1.609375 0 -2.421875 0.484375q-0.8125 0.484375 -0.8125 1.28125q0 0.796875 0.390625 1.171875q0.390625 0.375 1.046875 0.375zm6.909683 -5.078125q-0.390625 0 -0.65625 -0.25q-0.265625 -0.265625 -0.265625 -0.671875q0 -0.46875 0.3125 -0.765625q0.328125 -0.3125 0.78125 -0.3125q0.453125 0 0.6875 0.265625q0.234375 0.265625 0.234375 0.671875q0 0.46875 -0.3125 0.765625q-0.3125 0.296875 -0.78125 0.296875zm0 6.046875q-0.390625 0 -0.65625 -0.25q-0.265625 -0.265625 -0.265625 -0.6875q0 -0.453125 0.3125 -0.75q0.328125 -0.3125 0.78125 -0.3125q0.4375 0 0.671875 0.28125q0.25 0.265625 0.25 0.65625q0 0.484375 -0.3125 0.78125q-0.3125 0.28125 -0.78125 0.28125zm5.9840546 -8.28125l3.421875 0l0 0.6875l-1.109375 0.1875l1.21875 4.3125l0.421875 1.859375l0.421875 -1.875l1.40625 -5.171875l1.4375 0l1.453125 5.171875l0.421875 1.890625l0.46875 -1.875l1.1875 -4.296875l-1.109375 -0.203125l0 -0.6875l2.96875 0l0 0.6875l-0.78125 0.203125l-2.265625 7.375l-1.375 0l-1.5625 -5.1875l-0.375 -1.8125l-0.3125 1.8125l-1.46875 5.1875l-1.375 0l-2.34375 -7.390625l-0.75 -0.1875l0 -0.6875zm14.796646 -1.453125q-0.46875 0 -0.703125 -0.265625q-0.234375 -0.265625 -0.234375 -0.671875q0 -0.46875 0.28125 -0.78125q0.28125 -0.3125 0.78125 -0.3125q0.5 0 0.734375 0.265625q0.234375 0.265625 0.234375 0.671875q0 0.5 -0.28125 0.796875q-0.28125 0.296875 -0.796875 0.296875l-0.015625 0zm-0.59375 2.59375l-1.109375 -0.265625l0 -0.78125l2.265625 -0.28125l0.03125 0l0.34375 0.265625l0 7.234375l1.171875 0.109375l0 0.71875l-3.890625 0l0 -0.71875l1.1875 -0.125l0 -6.15625zm4.818054 -3.9375l-1.1875 -0.15625l0 -0.625l2.359375 -0.28125l0.03125 0l0.3125 0.21875l0 10.953125l1.25 0.109375l0 0.71875l-3.953125 0l0 -0.71875l1.1875 -0.125l0 -10.09375zm4.880554 0l-1.1875 -0.15625l0 -0.625l2.359375 -0.28125l0.03125 0l0.3125 0.21875l0 10.953125l1.25 0.109375l0 0.71875l-3.953125 0l0 -0.71875l1.1875 -0.125l0 -10.09375zm6.5884705 -0.78125l2.34375 -0.28125l0.03125 0l0.34375 0.21875l0 4.40625q0.4375 -0.421875 1.046875 -0.703125q0.609375 -0.28125 1.34375 -0.28125q0.890625 0 1.609375 0.4375q0.734375 0.421875 1.15625 1.3125q0.4375 0.890625 0.4375 2.25q0 1.265625 -0.53125 2.296875q-0.515625 1.015625 -1.484375 1.625q-0.953125 0.59375 -2.234375 0.59375q-1.015625 0 -1.859375 -0.1875q-0.828125 -0.203125 -1.0 -0.359375l0 -10.5625l-1.203125 -0.15625l0 -0.609375zm4.515625 4.40625q-0.5625 0 -1.046875 0.265625q-0.46875 0.25 -0.75 0.5625l0 5.40625q0.078125 0.203125 0.5 0.328125q0.421875 0.125 0.953125 0.125q1.125 0 1.8125 -0.90625q0.6875 -0.921875 0.6875 -2.65625q0 -1.578125 -0.609375 -2.34375q-0.59375 -0.78125 -1.546875 -0.78125zm8.677628 7.46875q-1.78125 0 -2.71875 -1.15625q-0.921875 -1.15625 -0.921875 -3.09375q0 -1.265625 0.484375 -2.234375q0.484375 -0.96875 1.359375 -1.5q0.875 -0.53125 1.984375 -0.53125q1.359375 0 2.109375 0.765625q0.765625 0.75 0.8125 2.15625q0 0.890625 -0.109375 1.359375l-5.03125 0q0.015625 1.453125 0.65625 2.34375q0.65625 0.890625 1.84375 0.890625q0.578125 0 1.21875 -0.21875q0.640625 -0.21875 1.0 -0.5l0.265625 0.640625q-0.421875 0.4375 -1.265625 0.765625q-0.828125 0.3125 -1.6875 0.3125zm1.5 -5.0q0.03125 -0.3125 0.03125 -0.640625q0 -0.953125 -0.390625 -1.5q-0.390625 -0.546875 -1.234375 -0.546875q-0.84375 0 -1.359375 0.625q-0.5 0.609375 -0.5625 2.0625l3.515625 0z" fill-rule="nonzero"/><path fill="#666666" d="m76.32866 231.10541q0 1.25 -0.515625 2.28125q-0.515625 1.03125 -1.46875 1.640625q-0.953125 0.59375 -2.234375 0.59375q-0.34375 0 -0.765625 -0.0625q-0.40625 -0.046875 -0.65625 -0.140625l0.046875 1.234375l0 1.484375l1.53125 0.15625l0 0.71875l-4.09375 0l0 -0.71875l1.0625 -0.15625l0 -9.671875l-1.078125 -0.265625l0 -0.796875l2.078125 -0.265625l0.03125 0l0.3125 0.265625l0 0.859375q0.4375 -0.484375 1.09375 -0.8125q0.65625 -0.34375 1.453125 -0.34375q0.875 0 1.59375 0.4375q0.71875 0.421875 1.15625 1.3125q0.453125 0.890625 0.453125 2.25zm-3.796875 -2.96875q-0.5625 0 -1.046875 0.234375q-0.484375 0.234375 -0.75 0.515625l0 5.515625q0.109375 0.1875 0.515625 0.328125q0.421875 0.140625 0.921875 0.140625q1.125 0 1.828125 -0.890625q0.703125 -0.90625 0.703125 -2.703125q0 -1.59375 -0.609375 -2.359375q-0.609375 -0.78125 -1.5625 -0.78125zm5.0947876 6.609375l1.09375 -0.09375l0 -6.1875l-1.046875 -0.265625l0 -0.796875l2.015625 -0.265625l0.03125 0l0.328125 0.265625l0 0.265625l-0.046875 1.140625l0.046875 0q0.140625 -0.25 0.515625 -0.640625q0.390625 -0.390625 0.984375 -0.71875q0.609375 -0.34375 1.3125 -0.34375q0.296875 0 0.484375 0.078125l0 1.640625q-0.109375 -0.078125 -0.34375 -0.140625q-0.21875 -0.0625 -0.5 -0.0625q-1.203125 0 -2.25 0.75l0 5.265625l1.859375 0.125l0 0.703125l-4.484375 0l0 -0.71875zm6.6813354 -3.375q0 -1.3125 0.546875 -2.28125q0.546875 -0.96875 1.421875 -1.46875q0.890625 -0.515625 1.90625 -0.515625q1.84375 0 2.765625 1.171875q0.9375 1.171875 0.9375 3.078125q0 1.34375 -0.546875 2.3125q-0.53125 0.96875 -1.421875 1.46875q-0.890625 0.484375 -1.890625 0.484375q-1.859375 0 -2.796875 -1.171875q-0.921875 -1.171875 -0.921875 -3.078125zm3.796875 3.421875q1.015625 0 1.546875 -0.828125q0.546875 -0.84375 0.546875 -2.484375q0 -1.625 -0.5 -2.578125q-0.484375 -0.953125 -1.59375 -0.953125q-1.015625 0 -1.5625 0.84375q-0.546875 0.828125 -0.546875 2.46875q0 1.625 0.515625 2.578125q0.515625 0.953125 1.59375 0.953125zm4.9422913 -3.34375q0 -1.21875 0.46875 -2.203125q0.484375 -0.984375 1.40625 -1.5625q0.9375 -0.578125 2.25 -0.578125q0.625 0 1.078125 0.125q0.453125 0.109375 1.078125 0.3125l-0.046875 2.265625l-0.953125 0l-0.328125 -1.5q-0.09375 -0.40625 -1.109375 -0.40625q-1.03125 0 -1.625 0.828125q-0.59375 0.828125 -0.59375 2.359375q0 1.71875 0.65625 2.625q0.671875 0.90625 1.75 0.90625q0.609375 0 1.15625 -0.1875q0.5625 -0.203125 0.953125 -0.46875l0.28125 0.59375q-0.40625 0.40625 -1.171875 0.734375q-0.765625 0.328125 -1.5625 0.328125q-1.203125 0 -2.03125 -0.53125q-0.828125 -0.546875 -1.25 -1.484375q-0.40625 -0.953125 -0.40625 -2.15625zm11.299942 4.171875q-1.78125 0 -2.71875 -1.15625q-0.921875 -1.15625 -0.921875 -3.09375q0 -1.265625 0.484375 -2.234375q0.484375 -0.96875 1.359375 -1.5q0.875 -0.53125 1.984375 -0.53125q1.359375 0 2.109375 0.765625q0.765625 0.75 0.8125 2.15625q0 0.890625 -0.109375 1.359375l-5.03125 0q0.015625 1.453125 0.65625 2.34375q0.65625 0.890625 1.84375 0.890625q0.578125 0 1.21875 -0.21875q0.640625 -0.21875 1.0 -0.5l0.265625 0.640625q-0.421875 0.4375 -1.265625 0.765625q-0.828125 0.3125 -1.6875 0.3125zm1.5 -5.0q0.03125 -0.3125 0.03125 -0.640625q0 -0.953125 -0.390625 -1.5q-0.390625 -0.546875 -1.234375 -0.546875q-0.84375 0 -1.359375 0.625q-0.5 0.609375 -0.5625 2.0625l3.515625 0zm4.2230377 3.671875q0.15625 0.21875 0.625 0.40625q0.484375 0.171875 1.015625 0.171875q0.828125 0 1.21875 -0.328125q0.40625 -0.328125 0.40625 -0.890625q0 -0.40625 -0.25 -0.6875q-0.25 -0.296875 -0.703125 -0.515625q-0.4375 -0.234375 -1.28125 -0.5625q-1.125 -0.421875 -1.65625 -1.015625q-0.515625 -0.59375 -0.515625 -1.5625q0 -0.640625 0.390625 -1.125q0.390625 -0.484375 1.0625 -0.75q0.6875 -0.28125 1.53125 -0.28125q0.671875 0 1.171875 0.109375q0.515625 0.09375 0.8125 0.203125q0.3125 0.09375 0.421875 0.125l0 1.828125l-0.90625 0l-0.28125 -1.09375q-0.09375 -0.171875 -0.484375 -0.296875q-0.375 -0.125 -0.84375 -0.125q-0.65625 0 -1.0625 0.296875q-0.40625 0.296875 -0.40625 0.78125q0 0.453125 0.21875 0.734375q0.21875 0.28125 0.53125 0.46875q0.328125 0.171875 0.875 0.40625l0.296875 0.109375q0.828125 0.328125 1.328125 0.625q0.515625 0.28125 0.859375 0.765625q0.34375 0.46875 0.34375 1.15625q0 1.09375 -0.84375 1.734375q-0.828125 0.640625 -2.296875 0.640625q-0.71875 0 -1.515625 -0.1875q-0.78125 -0.203125 -1.265625 -0.40625l0 -1.875l0.953125 0l0.25 1.140625zm7.401428 0q0.15625 0.21875 0.625 0.40625q0.484375 0.171875 1.015625 0.171875q0.828125 0 1.21875 -0.328125q0.40625 -0.328125 0.40625 -0.890625q0 -0.40625 -0.25 -0.6875q-0.25 -0.296875 -0.703125 -0.515625q-0.4375 -0.234375 -1.28125 -0.5625q-1.125 -0.421875 -1.65625 -1.015625q-0.515625 -0.59375 -0.515625 -1.5625q0 -0.640625 0.390625 -1.125q0.390625 -0.484375 1.0625 -0.75q0.6875 -0.28125 1.53125 -0.28125q0.671875 0 1.171875 0.109375q0.515625 0.09375 0.8125 0.203125q0.3125 0.09375 0.421875 0.125l0 1.828125l-0.90625 0l-0.28125 -1.09375q-0.09375 -0.171875 -0.484375 -0.296875q-0.375 -0.125 -0.84375 -0.125q-0.65625 0 -1.0625 0.296875q-0.40625 0.296875 -0.40625 0.78125q0 0.453125 0.21875 0.734375q0.21875 0.28125 0.53125 0.46875q0.328125 0.171875 0.875 0.40625l0.296875 0.109375q0.828125 0.328125 1.328125 0.625q0.515625 0.28125 0.859375 0.765625q0.34375 0.46875 0.34375 1.15625q0 1.09375 -0.84375 1.734375q-0.828125 0.640625 -2.296875 0.640625q-0.71875 0 -1.515625 -0.1875q-0.78125 -0.203125 -1.265625 -0.40625l0 -1.875l0.953125 0l0.25 1.140625zm9.651428 1.328125q-1.78125 0 -2.71875 -1.15625q-0.921875 -1.15625 -0.921875 -3.09375q0 -1.265625 0.484375 -2.234375q0.484375 -0.96875 1.359375 -1.5q0.875 -0.53125 1.984375 -0.53125q1.359375 0 2.109375 0.765625q0.765625 0.75 0.8125 2.15625q0 0.890625 -0.109375 1.359375l-5.03125 0q0.015625 1.453125 0.65625 2.34375q0.65625 0.890625 1.84375 0.890625q0.578125 0 1.21875 -0.21875q0.640625 -0.21875 1.0 -0.5l0.265625 0.640625q-0.421875 0.4375 -1.265625 0.765625q-0.828125 0.3125 -1.6875 0.3125zm1.5 -5.0q0.03125 -0.3125 0.03125 -0.640625q0 -0.953125 -0.390625 -1.5q-0.390625 -0.546875 -1.234375 -0.546875q-0.84375 0 -1.359375 0.625q-0.5 0.609375 -0.5625 2.0625l3.515625 0zm6.0355377 5.0q-0.875 0 -1.609375 -0.4375q-0.734375 -0.4375 -1.171875 -1.34375q-0.4375 -0.90625 -0.4375 -2.25q0 -1.234375 0.515625 -2.265625q0.515625 -1.03125 1.46875 -1.625q0.96875 -0.59375 2.265625 -0.59375q0.75 0 1.375 0.171875l0 -2.75l-1.5 -0.171875l0 -0.625l2.640625 -0.265625l0.046875 0l0.3125 0.234375l0 11.015625l0.859375 0l0 0.671875q-0.46875 0.109375 -0.8125 0.15625q-0.34375 0.0625 -0.734375 0.0625q-0.375 0 -0.546875 -0.140625q-0.15625 -0.125 -0.15625 -0.546875l0 -0.46875q-0.40625 0.5 -1.078125 0.84375q-0.65625 0.328125 -1.4375 0.328125zm0.578125 -1.03125q0.578125 0 1.078125 -0.25q0.5 -0.265625 0.75 -0.609375l0 -5.359375q-0.125 -0.171875 -0.5625 -0.3125q-0.421875 -0.140625 -0.90625 -0.140625q-1.140625 0 -1.828125 0.875q-0.6875 0.875 -0.6875 2.6875q0 1.578125 0.59375 2.34375q0.609375 0.765625 1.5625 0.765625zm9.996979 -6.296875l-1.375 0l0 -0.671875l1.375 -0.28125l0 -0.6875q0 -0.90625 0.46875 -1.65625q0.484375 -0.765625 1.25 -1.21875q0.78125 -0.453125 1.640625 -0.453125q0.5 0 0.859375 0.140625l0 1.46875q-0.125 -0.125 -0.515625 -0.234375q-0.390625 -0.109375 -0.859375 -0.109375q-0.6875 0 -1.0 0.359375q-0.3125 0.359375 -0.3125 1.234375l0 1.15625l2.015625 0l0 0.953125l-2.015625 0l0 6.34375l1.625 0.109375l0 0.71875l-4.390625 0l0 -0.71875l1.234375 -0.125l0 -6.328125zm4.7218933 6.453125l1.09375 -0.09375l0 -6.1875l-1.046875 -0.265625l0 -0.796875l2.015625 -0.265625l0.03125 0l0.328125 0.265625l0 0.265625l-0.046875 1.140625l0.046875 0q0.140625 -0.25 0.515625 -0.640625q0.390625 -0.390625 0.984375 -0.71875q0.609375 -0.34375 1.3125 -0.34375q0.296875 0 0.484375 0.078125l0 1.640625q-0.109375 -0.078125 -0.34375 -0.140625q-0.21875 -0.0625 -0.5 -0.0625q-1.203125 0 -2.25 0.75l0 5.265625l1.859375 0.125l0 0.703125l-4.484375 0l0 -0.71875zm6.6813354 -3.375q0 -1.3125 0.546875 -2.28125q0.546875 -0.96875 1.421875 -1.46875q0.890625 -0.515625 1.90625 -0.515625q1.84375 0 2.765625 1.171875q0.9375 1.171875 0.9375 3.078125q0 1.34375 -0.546875 2.3125q-0.53125 0.96875 -1.421875 1.46875q-0.890625 0.484375 -1.890625 0.484375q-1.859375 0 -2.796875 -1.171875q-0.921875 -1.171875 -0.921875 -3.078125zm3.796875 3.421875q1.015625 0 1.546875 -0.828125q0.546875 -0.84375 0.546875 -2.484375q0 -1.625 -0.5 -2.578125q-0.484375 -0.953125 -1.59375 -0.953125q-1.015625 0 -1.5625 0.84375q-0.546875 0.828125 -0.546875 2.46875q0 1.625 0.515625 2.578125q0.515625 0.953125 1.59375 0.953125zm5.0985413 -0.046875l0.890625 -0.125l0 -6.15625l-1.046875 -0.265625l0 -0.796875l2.09375 -0.265625l0.265625 0.1875l0.09375 0.59375l-0.015625 0.46875q0.5 -0.46875 1.390625 -0.859375q0.890625 -0.390625 1.59375 -0.390625q0.796875 0 1.28125 0.265625q0.484375 0.265625 0.734375 0.828125q0.46875 -0.40625 1.296875 -0.75q0.84375 -0.34375 1.578125 -0.34375q0.90625 0 1.421875 0.34375q0.515625 0.34375 0.71875 1.078125q0.21875 0.71875 0.21875 1.9375l0 4.125l1.0625 0.125l0 0.71875l-3.484375 0l0 -0.71875l0.90625 -0.125l0 -4.078125q0 -0.859375 -0.125 -1.359375q-0.125 -0.5 -0.46875 -0.75q-0.34375 -0.25 -1.0 -0.25q-0.46875 0 -1.015625 0.21875q-0.546875 0.203125 -0.921875 0.5q0.125 0.5625 0.125 1.625l0 4.09375l1.046875 0.125l0 0.71875l-3.546875 0l0 -0.71875l0.96875 -0.125l0 -4.109375q0 -0.875 -0.109375 -1.359375q-0.109375 -0.484375 -0.421875 -0.71875q-0.3125 -0.25 -0.9375 -0.25q-0.53125 0 -1.125 0.265625q-0.59375 0.265625 -1.03125 0.609375l0 5.5625l0.984375 0.125l0 0.71875l-3.421875 0l0 -0.71875zm17.400314 -7.421875l3.40625 0l0 0.6875l-1.046875 0.203125l1.484375 4.21875l0.609375 1.859375l0.53125 -1.796875l1.484375 -4.28125l-1.0 -0.203125l0 -0.6875l2.96875 0l0 0.6875l-0.75 0.203125l-2.828125 7.375l-1.25 0l-2.953125 -7.375l-0.65625 -0.203125l0 -0.6875zm8.996658 5.9375q0 -1.375 1.375 -2.015625q1.390625 -0.65625 3.5 -0.703125l0 -0.40625q0 -0.703125 -0.15625 -1.09375q-0.140625 -0.390625 -0.5 -0.578125q-0.359375 -0.1875 -1.015625 -0.1875q-0.75 0 -1.34375 0.21875q-0.59375 0.21875 -1.1875 0.515625l-0.359375 -0.75q0.1875 -0.171875 0.703125 -0.4375q0.515625 -0.265625 1.1875 -0.46875q0.671875 -0.203125 1.34375 -0.203125q1.046875 0 1.65625 0.296875q0.609375 0.28125 0.859375 0.90625q0.265625 0.625 0.265625 1.6875l0 4.703125l0.875 0l0 0.640625q-0.296875 0.078125 -0.75 0.140625q-0.4375 0.078125 -0.78125 0.078125q-0.40625 0 -0.5625 -0.125q-0.140625 -0.125 -0.140625 -0.546875l0 -0.484375q-0.4375 0.4375 -1.078125 0.8125q-0.640625 0.359375 -1.4375 0.359375q-1.0625 0 -1.765625 -0.609375q-0.6875 -0.609375 -0.6875 -1.75zm3.078125 1.375q0.390625 0 0.875 -0.234375q0.5 -0.234375 0.921875 -0.5625l0 -2.515625q-1.609375 0 -2.421875 0.484375q-0.8125 0.484375 -0.8125 1.28125q0 0.796875 0.390625 1.171875q0.390625 0.375 1.046875 0.375zm5.175308 0.109375l1.09375 -0.09375l0 -6.1875l-1.046875 -0.265625l0 -0.796875l2.015625 -0.265625l0.03125 0l0.328125 0.265625l0 0.265625l-0.046875 1.140625l0.046875 0q0.140625 -0.25 0.515625 -0.640625q0.390625 -0.390625 0.984375 -0.71875q0.609375 -0.34375 1.3125 -0.34375q0.296875 0 0.484375 0.078125l0 1.640625q-0.109375 -0.078125 -0.34375 -0.140625q-0.21875 -0.0625 -0.5 -0.0625q-1.203125 0 -2.25 0.75l0 5.265625l1.859375 0.125l0 0.703125l-4.484375 0l0 -0.71875zm8.41571 -8.875q-0.46875 0 -0.703125 -0.265625q-0.234375 -0.265625 -0.234375 -0.671875q0 -0.46875 0.28125 -0.78125q0.28125 -0.3125 0.78125 -0.3125q0.5 0 0.734375 0.265625q0.234375 0.265625 0.234375 0.671875q0 0.5 -0.28125 0.796875q-0.28125 0.296875 -0.796875 0.296875l-0.015625 0zm-0.59375 2.59375l-1.109375 -0.265625l0 -0.78125l2.265625 -0.28125l0.03125 0l0.34375 0.265625l0 7.234375l1.171875 0.109375l0 0.71875l-3.890625 0l0 -0.71875l1.1875 -0.125l0 -6.15625zm3.7399292 2.90625q0 -1.3125 0.546875 -2.28125q0.546875 -0.96875 1.421875 -1.46875q0.890625 -0.515625 1.90625 -0.515625q1.84375 0 2.765625 1.171875q0.9375 1.171875 0.9375 3.078125q0 1.34375 -0.546875 2.3125q-0.53125 0.96875 -1.421875 1.46875q-0.890625 0.484375 -1.890625 0.484375q-1.859375 0 -2.796875 -1.171875q-0.921875 -1.171875 -0.921875 -3.078125zm3.796875 3.421875q1.015625 0 1.546875 -0.828125q0.546875 -0.84375 0.546875 -2.484375q0 -1.625 -0.5 -2.578125q-0.484375 -0.953125 -1.59375 -0.953125q-1.015625 0 -1.5625 0.84375q-0.546875 0.828125 -0.546875 2.46875q0 1.625 0.515625 2.578125q0.515625 0.953125 1.59375 0.953125zm11.786041 0.796875q-0.40625 0 -0.609375 -0.15625q-0.203125 -0.15625 -0.203125 -0.53125l0 -0.5q-0.484375 0.484375 -1.203125 0.859375q-0.71875 0.359375 -1.453125 0.359375q-1.375 0 -1.953125 -0.71875q-0.5625 -0.734375 -0.5625 -2.421875l0 -4.25l-0.8125 -0.234375l0 -0.65625l2.046875 -0.1875l0.015625 0l0.28125 0.171875l0 5.03125q0 0.859375 0.125 1.34375q0.125 0.46875 0.4375 0.703125q0.3125 0.21875 0.921875 0.21875q0.578125 0 1.09375 -0.25q0.515625 -0.25 0.890625 -0.59375l0 -5.546875l-1.046875 -0.234375l0 -0.65625l2.21875 -0.1875l0.015625 0l0.34375 0.171875l0 7.390625l0.875 0l-0.015625 0.65625q-0.40625 0.109375 -0.71875 0.15625q-0.296875 0.0625 -0.6875 0.0625zm3.9502869 -1.296875q0.15625 0.21875 0.625 0.40625q0.484375 0.171875 1.015625 0.171875q0.828125 0 1.21875 -0.328125q0.40625 -0.328125 0.40625 -0.890625q0 -0.40625 -0.25 -0.6875q-0.25 -0.296875 -0.703125 -0.515625q-0.4375 -0.234375 -1.28125 -0.5625q-1.125 -0.421875 -1.65625 -1.015625q-0.515625 -0.59375 -0.515625 -1.5625q0 -0.640625 0.390625 -1.125q0.390625 -0.484375 1.0625 -0.75q0.6875 -0.28125 1.53125 -0.28125q0.671875 0 1.171875 0.109375q0.515625 0.09375 0.8125 0.203125q0.3125 0.09375 0.421875 0.125l0 1.828125l-0.90625 0l-0.28125 -1.09375q-0.09375 -0.171875 -0.484375 -0.296875q-0.375 -0.125 -0.84375 -0.125q-0.65625 0 -1.0625 0.296875q-0.40625 0.296875 -0.40625 0.78125q0 0.453125 0.21875 0.734375q0.21875 0.28125 0.53125 0.46875q0.328125 0.171875 0.875 0.40625l0.296875 0.109375q0.828125 0.328125 1.328125 0.625q0.515625 0.28125 0.859375 0.765625q0.34375 0.46875 0.34375 1.15625q0 1.09375 -0.84375 1.734375q-0.828125 0.640625 -2.296875 0.640625q-0.71875 0 -1.515625 -0.1875q-0.78125 -0.203125 -1.265625 -0.40625l0 -1.875l0.953125 0l0.25 1.140625z" fill-rule="nonzero"/><path fill="#666666" d="m69.563034 245.8929l-1.375 0l0 -0.671875l1.375 -0.28125l0 -0.6875q0 -0.90625 0.46875 -1.65625q0.484375 -0.765625 1.25 -1.21875q0.78125 -0.453125 1.640625 -0.453125q0.5 0 0.859375 0.140625l0 1.46875q-0.125 -0.125 -0.515625 -0.234375q-0.390625 -0.109375 -0.859375 -0.109375q-0.6875 0 -1.0 0.359375q-0.3125 0.359375 -0.3125 1.234375l0 1.15625l2.015625 0l0 0.953125l-2.015625 0l0 6.34375l1.625 0.109375l0 0.71875l-4.390625 0l0 -0.71875l1.234375 -0.125l0 -6.328125zm4.6906433 3.078125q0 -1.3125 0.546875 -2.28125q0.546875 -0.96875 1.421875 -1.46875q0.890625 -0.515625 1.90625 -0.515625q1.84375 0 2.765625 1.171875q0.9375 1.171875 0.9375 3.078125q0 1.34375 -0.546875 2.3125q-0.53125 0.96875 -1.421875 1.46875q-0.890625 0.484375 -1.890625 0.484375q-1.859375 0 -2.796875 -1.171875q-0.921875 -1.171875 -0.921875 -3.078125zm3.796875 3.421875q1.015625 0 1.546875 -0.828125q0.546875 -0.84375 0.546875 -2.484375q0 -1.625 -0.5 -2.578125q-0.484375 -0.953125 -1.59375 -0.953125q-1.015625 0 -1.5625 0.84375q-0.546875 0.828125 -0.546875 2.46875q0 1.625 0.515625 2.578125q0.515625 0.953125 1.59375 0.953125zm5.1454163 -0.046875l1.09375 -0.09375l0 -6.1875l-1.046875 -0.265625l0 -0.796875l2.015625 -0.265625l0.03125 0l0.328125 0.265625l0 0.265625l-0.046875 1.140625l0.046875 0q0.140625 -0.25 0.515625 -0.640625q0.390625 -0.390625 0.984375 -0.71875q0.609375 -0.34375 1.3125 -0.34375q0.296875 0 0.484375 0.078125l0 1.640625q-0.109375 -0.078125 -0.34375 -0.140625q-0.21875 -0.0625 -0.5 -0.0625q-1.203125 0 -2.25 0.75l0 5.265625l1.859375 0.125l0 0.703125l-4.484375 0l0 -0.71875zm6.6657104 0l0.890625 -0.125l0 -6.15625l-1.046875 -0.265625l0 -0.796875l2.09375 -0.265625l0.265625 0.1875l0.09375 0.59375l-0.015625 0.46875q0.5 -0.46875 1.390625 -0.859375q0.890625 -0.390625 1.59375 -0.390625q0.796875 0 1.28125 0.265625q0.484375 0.265625 0.734375 0.828125q0.46875 -0.40625 1.296875 -0.75q0.84375 -0.34375 1.578125 -0.34375q0.90625 0 1.421875 0.34375q0.515625 0.34375 0.71875 1.078125q0.21875 0.71875 0.21875 1.9375l0 4.125l1.0625 0.125l0 0.71875l-3.484375 0l0 -0.71875l0.90625 -0.125l0 -4.078125q0 -0.859375 -0.125 -1.359375q-0.125 -0.5 -0.46875 -0.75q-0.34375 -0.25 -1.0 -0.25q-0.46875 0 -1.015625 0.21875q-0.546875 0.203125 -0.921875 0.5q0.125 0.5625 0.125 1.625l0 4.09375l1.046875 0.125l0 0.71875l-3.546875 0l0 -0.71875l0.96875 -0.125l0 -4.109375q0 -0.875 -0.109375 -1.359375q-0.109375 -0.484375 -0.421875 -0.71875q-0.3125 -0.25 -0.9375 -0.25q-0.53125 0 -1.125 0.265625q-0.59375 0.265625 -1.03125 0.609375l0 5.5625l0.984375 0.125l0 0.71875l-3.421875 0l0 -0.71875zm15.958023 -0.453125q0.15625 0.21875 0.625 0.40625q0.484375 0.171875 1.015625 0.171875q0.828125 0 1.21875 -0.328125q0.40625 -0.328125 0.40625 -0.890625q0 -0.40625 -0.25 -0.6875q-0.25 -0.296875 -0.703125 -0.515625q-0.4375 -0.234375 -1.28125 -0.5625q-1.125 -0.421875 -1.65625 -1.015625q-0.515625 -0.59375 -0.515625 -1.5625q0 -0.640625 0.390625 -1.125q0.390625 -0.484375 1.0625 -0.75q0.6875 -0.28125 1.53125 -0.28125q0.671875 0 1.171875 0.109375q0.515625 0.09375 0.8125 0.203125q0.3125 0.09375 0.421875 0.125l0 1.828125l-0.90625 0l-0.28125 -1.09375q-0.09375 -0.171875 -0.484375 -0.296875q-0.375 -0.125 -0.84375 -0.125q-0.65625 0 -1.0625 0.296875q-0.40625 0.296875 -0.40625 0.78125q0 0.453125 0.21875 0.734375q0.21875 0.28125 0.53125 0.46875q0.328125 0.171875 0.875 0.40625l0.296875 0.109375q0.828125 0.328125 1.328125 0.625q0.515625 0.28125 0.859375 0.765625q0.34375 0.46875 0.34375 1.15625q0 1.09375 -0.84375 1.734375q-0.828125 0.640625 -2.296875 0.640625q-0.71875 0 -1.515625 -0.1875q-0.78125 -0.203125 -1.265625 -0.40625l0 -1.875l0.953125 0l0.25 1.140625zm7.245178 1.3125q-0.375 0 -0.65625 -0.25q-0.28125 -0.265625 -0.28125 -0.6875q0 -0.453125 0.328125 -0.75q0.328125 -0.3125 0.765625 -0.3125q0.46875 0 0.703125 0.28125q0.234375 0.265625 0.234375 0.65625q0 0.484375 -0.328125 0.78125q-0.3125 0.28125 -0.765625 0.28125z" fill-rule="nonzero"/><path fill="#000000" fill-opacity="0.0" d="m312.83466 399.79004l138.58267 -30.047272" fill-rule="evenodd"/><path stroke="#666666" stroke-width="1.0" stroke-linejoin="round" stroke-linecap="butt" d="m312.83466 399.79004l138.58267 -30.047272" fill-rule="evenodd"/><path fill="#000000" fill-opacity="0.0" d="m153.59055 332.979l344.69293 9.8897705" fill-rule="evenodd"/><path stroke="#666666" stroke-width="1.0" stroke-linejoin="round" stroke-linecap="butt" d="m153.59055 332.979l344.69293 9.8897705" fill-rule="evenodd"/><path fill="#000000" fill-opacity="0.0" d="m104.29921 487.6614l395.1181 -71.370056" fill-rule="evenodd"/><path stroke="#666666" stroke-width="1.0" stroke-linejoin="round" stroke-linecap="butt" d="m104.29921 487.6614l395.1181 -71.370056" fill-rule="evenodd"/><path fill="#626b73" d="m653.4249 214.98145l65.52753 65.52756l5.3150024 -5.3149414l0 21.259827l-21.259888 0l5.3150024 -5.314972l-65.52759 -65.52754z" fill-rule="evenodd"/><path stroke="#666666" stroke-width="1.0" stroke-linejoin="round" stroke-linecap="butt" d="m653.4249 214.98145l65.52753 65.52756l5.3150024 -5.3149414l0 21.259827l-21.259888 0l5.3150024 -5.314972l-65.52759 -65.52754z" fill-rule="evenodd"/><path fill="#626b73" d="m517.0728 247.02435l92.97711 50.660095l5.173218 -9.496063l8.6449585 29.339905l-29.33789 8.644348l5.173218 -9.496063l-92.97708 -50.660095z" fill-rule="evenodd"/><path stroke="#666666" stroke-width="1.0" stroke-linejoin="round" stroke-linecap="butt" d="m517.0728 247.02435l92.97711 50.660095l5.173218 -9.496063l8.6449585 29.339905l-29.33789 8.644348l5.173218 -9.496063l-92.97708 -50.660095z" fill-rule="evenodd"/><path fill="#626b73" d="m534.03674 364.85303l81.00787 0l0 -7.5118103l15.023621 15.023621l-15.023621 15.023621l0 -7.5118103l-81.00787 0z" fill-rule="evenodd"/><path stroke="#666666" stroke-width="1.0" stroke-linejoin="round" stroke-linecap="butt" d="m534.03674 364.85303l81.00787 0l0 -7.5118103l15.023621 15.023621l-15.023621 15.023621l0 -7.5118103l-81.00787 0z" fill-rule="evenodd"/></g></svg>